<svg width="1543" height="948" fill="none" xmlns="http://www.w3.org/2000/svg"><path fill="#1E1E1E" d="M0 0h1543v948H0z"/><path fill="#fff" d="M4.5.5h1534v939H4.5z"/><path stroke="#000" d="M4.5.5h1534v939H4.5z"/><g clip-path="url(#a)" filter="url(#b)"><path fill="#0C0E1C" d="M4 0h1535v940H4z"/><path fill="#0C0E1C" d="M-299.887-458h2085.77v1485.02h-2085.77z"/><path d="M519.752 80.12c-7.391 2.22-7.85 2.948-7.085 10.607-2.221-7.39-2.948-7.85-10.608-7.084 7.392-2.222 7.851-2.95 7.085-10.608 2.26 7.39 2.949 7.85 10.608 7.084Z" fill="#fff"/><path d="M410.837 258.004c0 .957-.766 1.723-1.723 1.723a1.716 1.716 0 0 1-1.723-1.723c0-.958.766-1.724 1.723-1.724.957 0 1.723.766 1.723 1.724ZM740.183 14.48a1.992 1.992 0 1 0-.001-3.983 1.992 1.992 0 0 0 .001 3.983ZM631.195 64.265a1.992 1.992 0 1 0-.001-3.983 1.992 1.992 0 0 0 .001 3.983ZM123.889 218.597a1.977 1.977 0 0 1-1.991 1.991 1.977 1.977 0 0 1-1.992-1.991c0-1.111.881-1.991 1.992-1.991 1.11 0 1.991.88 1.991 1.991ZM39.867 117.764c0 1.111-.881 1.991-1.992 1.991-1.11 0-1.991-.88-1.991-1.991 0-1.111.88-1.991 1.991-1.991 1.11 0 1.992.88 1.992 1.991ZM62.769 284.275a1.992 1.992 0 1 0-.001-3.984 1.992 1.992 0 0 0 0 3.984ZM628.206 208.87a1.977 1.977 0 0 1-1.992 1.991c-1.11 0-1.991-.88-1.991-1.991 0-1.11.881-1.991 1.991-1.991 1.111 0 1.992.881 1.992 1.991ZM722.07 282.283a4.29 4.29 0 1 0 0-8.58 4.29 4.29 0 0 0 0 8.58ZM229.507 222.886a4.289 4.289 0 1 0 0-8.577 4.289 4.289 0 0 0 0 8.577ZM445.752 134.398a4.289 4.289 0 1 0-8.467-1.375 4.289 4.289 0 0 0 8.467 1.375ZM685.035 148.746a6.435 6.435 0 1 0-.001-12.869 6.435 6.435 0 0 0 .001 12.869Z" fill="#212444"/><path d="M230.695 70.66c0 .65-.536 1.187-1.187 1.187a1.193 1.193 0 0 1-1.187-1.187c0-.651.536-1.187 1.187-1.187s1.187.498 1.187 1.187Z" fill="#fff"/><path d="M368.753 60.282c0 .65-.536 1.187-1.187 1.187a1.193 1.193 0 0 1-1.187-1.187c0-.651.536-1.187 1.187-1.187s1.187.536 1.187 1.187ZM100.605 15.246c0 .651-.536 1.187-1.187 1.187a1.193 1.193 0 0 1-1.188-1.187c0-.651.537-1.187 1.188-1.187.651 0 1.187.498 1.187 1.187ZM934.356 135.419c0 .957-.766 1.723-1.723 1.723a1.716 1.716 0 0 1-1.723-1.723c0-.958.766-1.724 1.723-1.724.957 0 1.723.804 1.723 1.724ZM896.481 189.071c0 .957-.766 1.723-1.723 1.723a1.715 1.715 0 0 1-1.723-1.723c0-.957.765-1.723 1.723-1.723.957 0 1.723.766 1.723 1.723ZM746.746 220.014a1.723 1.723 0 1 0 .001-3.447 1.723 1.723 0 0 0-.001 3.447ZM1453.72 258.004c0 .957-.76 1.723-1.72 1.723s-1.72-.766-1.72-1.723c0-.958.76-1.724 1.72-1.724s1.72.766 1.72 1.724ZM746.552.655c0 .958-.766 1.724-1.724 1.724a1.716 1.716 0 0 1-1.723-1.724c0-.957.766-1.723 1.723-1.723.958 0 1.724.766 1.724 1.723ZM754.173 142.159a3.37 3.37 0 1 0 0-6.74 3.37 3.37 0 0 0 0 6.74ZM1166.78 218.597c0 1.111-.89 1.991-2 1.991-1.11 0-1.99-.88-1.99-1.991 0-1.111.88-1.991 1.99-1.991 1.11 0 2 .88 2 1.991ZM1082.75 117.764c0 1.111-.88 1.991-1.99 1.991-1.11 0-1.99-.88-1.99-1.991 0-1.111.88-1.991 1.99-1.991 1.11 0 1.99.88 1.99 1.991ZM1105.65 284.275c1.1 0 2-.892 2-1.992 0-1.099-.9-1.991-2-1.991s-1.99.892-1.99 1.991c0 1.1.89 1.992 1.99 1.992ZM975.524 164.6a4.289 4.289 0 1 0 0-8.577 4.289 4.289 0 0 0 0 8.577ZM1272.39 222.886a4.289 4.289 0 1 0 0-8.578 4.289 4.289 0 1 0 0 8.578ZM1488.64 134.398a4.29 4.29 0 0 0-8.47-1.374 4.29 4.29 0 0 0 8.47 1.374ZM775.006 61.316a4.29 4.29 0 1 0 0-8.58 4.29 4.29 0 0 0 0 8.58ZM857.573 258.003a8.08 8.08 0 1 0 0-16.16 8.08 8.08 0 1 0 0 16.16ZM913.185 97.496a3.562 3.562 0 1 0-3.168-6.38 3.562 3.562 0 0 0 3.168 6.38Z" fill="#212444"/><path d="M1273.58 70.66c0 .65-.54 1.187-1.19 1.187a1.188 1.188 0 0 1 0-2.374c.65 0 1.19.498 1.19 1.187Z" fill="#fff"/><path d="M1411.64 60.282c0 .65-.54 1.187-1.19 1.187a1.188 1.188 0 0 1 0-2.374c.65 0 1.19.536 1.19 1.187ZM1143.49 15.246c0 .651-.54 1.187-1.19 1.187a1.188 1.188 0 0 1 0-2.374c.65 0 1.19.498 1.19 1.187Z" fill="#212444"/><path d="M519.752 822.627c-7.391 2.222-7.851 2.949-7.085 10.608-2.221-7.391-2.948-7.85-10.608-7.084 7.391-2.222 7.851-2.949 7.085-10.608 2.26 7.391 2.949 7.85 10.608 7.084ZM487.737 455.753c-4.289-1.724-4.787-1.57-7.315 2.298 1.724-4.29 1.57-4.787-2.297-7.315 4.289 1.723 4.787 1.57 7.314-2.298-1.723 4.289-1.57 4.787 2.298 7.315Z" fill="#fff"/><path d="M210.626 632.373c-4.481 1.188-4.787 1.571-4.481 6.204-1.187-4.48-1.57-4.787-6.204-4.48 4.481-1.187 4.787-1.57 4.481-6.204 1.187 4.48 1.608 4.748 6.204 4.48ZM414.13 312.335c-4.672-3.868-5.323-3.907-10.071-.039 3.868-4.672 3.906-5.323.038-10.033 4.672 3.868 5.323 3.906 10.072.038-3.868 4.634-3.906 5.323-.039 10.034Z" fill="#212444"/><path d="M416.238 307.318c-6.051.536-6.51 1.034-7.161 7.085-.536-6.051-1.034-6.511-7.085-7.162 6.051-.536 6.51-1.034 7.161-7.084.575 6.05 1.034 6.548 7.085 7.161ZM702.921 544.829c-7.62.727-8.195 1.34-8.961 8.961-.727-7.621-1.34-8.195-8.961-8.961 7.621-.728 8.195-1.341 8.961-8.961.728 7.62 1.341 8.233 8.961 8.961Z" fill="#212444"/><path d="M700.277 538.51c-4.863 5.898-4.863 6.74 0 12.638-5.897-4.864-6.74-4.864-12.637 0 4.863-5.898 4.863-6.74 0-12.638 5.897 4.864 6.74 4.864 12.637 0Z" fill="#fff"/><path d="M54.42 341.937a3.37 3.37 0 1 0 .002-6.739 3.37 3.37 0 0 0-.001 6.739ZM726.092 615.6c0 1.11-.881 1.991-1.991 1.991a1.978 1.978 0 0 1-1.992-1.991c0-1.111.881-1.992 1.992-1.992 1.11 0 1.991.881 1.991 1.992ZM630.62 465.901a1.991 1.991 0 1 0 .001-3.983 1.991 1.991 0 0 0-.001 3.983ZM738.191 349.443a1.991 1.991 0 1 0 0-3.982 1.991 1.991 0 0 0 0 3.982ZM635.174 604.915a1.977 1.977 0 0 1-1.991 1.991 1.977 1.977 0 0 1-1.992-1.991c0-1.11.881-1.991 1.992-1.991 1.11 0 1.991.881 1.991 1.991ZM432.706 595.494a1.978 1.978 0 0 1-1.992 1.992 1.978 1.978 0 0 1-1.991-1.992c0-1.11.881-1.991 1.991-1.991 1.111 0 1.992.881 1.992 1.991ZM339.913 374.795a1.991 1.991 0 1 0 0-3.982 1.991 1.991 0 0 0 0 3.982ZM669.795 667.337a1.991 1.991 0 1 0 .001-3.983 1.991 1.991 0 0 0-.001 3.983ZM740.183 756.988a1.991 1.991 0 1 0 0-3.982 1.991 1.991 0 0 0 0 3.982ZM631.194 806.773a1.992 1.992 0 1 0 0-3.984 1.992 1.992 0 0 0 0 3.984ZM39.866 860.272c0 1.111-.88 1.991-1.991 1.991-1.11 0-1.991-.88-1.991-1.991 0-1.11.88-1.991 1.99-1.991 1.111 0 1.992.881 1.992 1.991ZM685.038 635.207a1.99 1.99 0 1 0 0-3.983 1.991 1.991 0 0 0 0 3.983ZM238.24 719.994c0 1.111-.88 1.992-1.991 1.992a1.977 1.977 0 0 1-1.991-1.992c0-1.11.88-1.991 1.991-1.991 1.111 0 1.991.881 1.991 1.991ZM602.702 337.189a1.992 1.992 0 1 0 0-3.984 1.992 1.992 0 0 0 0 3.984ZM93.401 527.481a1.992 1.992 0 1 0 0-3.984 1.992 1.992 0 0 0 0 3.984Z" fill="#212444"/><path d="M102.328 483.134a1.454 1.454 0 1 1-2.909.001 1.454 1.454 0 0 1 2.909-.001Z" fill="#fff"/><path d="M172.445 286.063a1.455 1.455 0 1 1-2.91.003 1.455 1.455 0 0 1 2.91-.003ZM60.776 463.91a1.992 1.992 0 1 0 0-3.983 1.992 1.992 0 0 0 0 3.983ZM441.475 392.909a1.991 1.991 0 1 0 .001-3.983 1.991 1.991 0 0 0-.001 3.983ZM299.702 347.452a1.992 1.992 0 1 0 0-3.984 1.992 1.992 0 0 0 0 3.984ZM232.186 405.585a1.992 1.992 0 1 0 0-3.984 1.992 1.992 0 0 0 0 3.984ZM540.468 312.641a1.991 1.991 0 1 0 0-3.983 1.991 1.991 0 0 0 0 3.983ZM518.258 619.889a4.29 4.29 0 1 0 0-8.58 4.29 4.29 0 0 0 0 8.58ZM151.883 540.195a4.289 4.289 0 1 0 0-8.577 4.289 4.289 0 0 0 0 8.577ZM445.752 876.906a4.289 4.289 0 1 0-8.467-1.375 4.289 4.289 0 0 0 8.467 1.375ZM685.035 891.254a6.435 6.435 0 1 0-.001-12.869 6.435 6.435 0 0 0 .001 12.869ZM496.664 729.015a5.285 5.285 0 1 0-7.473-7.474 5.285 5.285 0 0 0 7.473 7.474ZM697.904 302.224a8.08 8.08 0 1 0 0-16.16 8.08 8.08 0 1 0 0 16.16Z" fill="#212444"/><path d="M230.695 813.168c0 .651-.537 1.187-1.188 1.187a1.193 1.193 0 0 1-1.187-1.187c0-.651.536-1.187 1.187-1.187a1.17 1.17 0 0 1 1.188 1.187Z" fill="#fff"/><path d="M330.57 687.673c0 .651-.536 1.187-1.187 1.187a1.194 1.194 0 0 1-1.188-1.187c0-.651.537-1.188 1.188-1.188.651 0 1.187.537 1.187 1.188ZM368.753 802.79c0 .651-.536 1.187-1.187 1.187a1.193 1.193 0 0 1-1.187-1.187c0-.651.536-1.187 1.187-1.187s1.187.536 1.187 1.187ZM100.605 757.754c0 .651-.536 1.187-1.187 1.187a1.193 1.193 0 0 1-1.188-1.187c0-.651.536-1.187 1.188-1.187.651 0 1.187.498 1.187 1.187ZM309.125 514.077c0 .651-.536 1.188-1.187 1.188a1.194 1.194 0 0 1-1.187-1.188c0-.651.536-1.187 1.187-1.187s1.187.536 1.187 1.187Z" fill="#212444"/><path d="M872.853 714.671c-7.391 2.221-7.851 2.949-7.085 10.608-2.221-7.391-2.949-7.851-10.608-7.085 7.391-2.221 7.851-2.948 7.085-10.608 2.221 7.392 2.948 7.851 10.608 7.085Z" fill="#fff"/><path d="M981.307 345.46c-5.514-5.361-6.357-5.438-12.714-1.072 5.362-5.515 5.438-6.357 1.072-12.714 5.515 5.361 6.358 5.438 12.715 1.072-5.362 5.515-5.438 6.357-1.073 12.714Z" fill="#212444"/><path d="M1530.62 455.753c-4.29-1.724-4.78-1.57-7.31 2.298 1.72-4.29 1.57-4.788-2.3-7.315 4.29 1.723 4.79 1.57 7.32-2.298-1.73 4.289-1.57 4.787 2.29 7.315Z" fill="#fff"/><path d="M1253.51 632.373c-4.48 1.188-4.79 1.571-4.48 6.204-1.19-4.48-1.57-4.787-6.2-4.48 4.48-1.187 4.78-1.57 4.48-6.204 1.19 4.48 1.61 4.748 6.2 4.48ZM1457.02 312.335c-4.68-3.868-5.33-3.907-10.07-.039 3.86-4.672 3.9-5.323.03-10.033 4.68 3.868 5.33 3.906 10.08.038-3.87 4.634-3.91 5.323-.04 10.034Z" fill="#212444"/><path d="M1459.12 307.318c-6.05.536-6.51 1.034-7.16 7.085-.53-6.051-1.03-6.511-7.08-7.162 6.05-.536 6.51-1.034 7.16-7.085.57 6.051 1.03 6.549 7.08 7.162ZM1028.14 675.763a3.37 3.37 0 1 0-.002-6.742 3.37 3.37 0 0 0 .002 6.742ZM934.356 877.927c0 .957-.766 1.723-1.723 1.723a1.715 1.715 0 0 1-1.723-1.723c0-.958.765-1.724 1.723-1.724.957 0 1.723.805 1.723 1.724ZM896.481 931.579c0 .958-.766 1.723-1.723 1.723a1.716 1.716 0 0 1-1.724-1.723c0-.957.766-1.723 1.724-1.723.957 0 1.723.766 1.723 1.723ZM746.551 743.164c0 .957-.765 1.723-1.723 1.723a1.716 1.716 0 0 1-1.723-1.723c0-.958.766-1.724 1.723-1.724.958 0 1.723.766 1.723 1.724ZM754.173 884.667a3.37 3.37 0 1 0 0-6.74 3.37 3.37 0 0 0 0 6.74ZM849.021 529.497a3.37 3.37 0 1 0-6.654-1.083 3.37 3.37 0 0 0 6.654 1.083ZM831.53 314.02a3.37 3.37 0 1 0 0-6.74 3.37 3.37 0 0 0 0 6.74ZM1097.3 341.937a3.37 3.37 0 1 0 0-6.74 3.37 3.37 0 0 0 0 6.74Z" fill="#212444"/><path d="M812.768 617.591a1.992 1.992 0 1 0 0-3.984 1.992 1.992 0 0 0 0 3.984Z" fill="#fff"/><path d="M1475.59 595.494c0 1.111-.88 1.992-1.99 1.992-1.11 0-1.99-.881-1.99-1.992 0-1.11.88-1.991 1.99-1.991 1.11 0 1.99.881 1.99 1.991ZM1382.8 374.795c1.1 0 1.99-.892 1.99-1.991a1.99 1.99 0 1 0-1.99 1.991ZM1082.75 860.272c0 1.111-.88 1.991-1.99 1.991-1.11 0-1.99-.88-1.99-1.991 0-1.11.88-1.991 1.99-1.991 1.11 0 1.99.881 1.99 1.991ZM1281.13 719.994c0 1.111-.88 1.992-1.99 1.992-1.12 0-2-.881-2-1.992 0-1.11.88-1.991 2-1.991 1.11 0 1.99.881 1.99 1.991ZM900.464 584.848a1.99 1.99 0 1 0 0-3.983 1.991 1.991 0 0 0 0 3.983ZM1136.29 527.481c1.1 0 1.99-.892 1.99-1.992a1.99 1.99 0 1 0-3.98 0c0 1.1.89 1.992 1.99 1.992Z" fill="#212444"/><path d="M1145.21 483.134c0 .804-.65 1.455-1.45 1.455-.8 0-1.46-.651-1.46-1.455s.66-1.455 1.46-1.455c.8 0 1.45.651 1.45 1.455Z" fill="#fff"/><path d="M1215.33 286.063a1.455 1.455 0 1 1-2.91.002 1.455 1.455 0 0 1 2.91-.002ZM1103.66 463.91c1.1 0 1.99-.892 1.99-1.992a1.99 1.99 0 1 0-3.98 0c0 1.1.89 1.992 1.99 1.992ZM1484.36 392.909c1.1 0 1.99-.892 1.99-1.991a1.99 1.99 0 1 0-1.99 1.991ZM1342.59 347.451c1.1 0 1.99-.891 1.99-1.991a1.99 1.99 0 1 0-3.98 0c0 1.1.89 1.991 1.99 1.991ZM1275.07 405.585c1.1 0 1.99-.892 1.99-1.991a1.99 1.99 0 1 0-1.99 1.991ZM992.26 394.939c0 1.11-.881 1.991-1.992 1.991a1.978 1.978 0 0 1-1.991-1.991c0-1.111.881-1.992 1.991-1.992 1.111 0 1.992.881 1.992 1.992ZM831.53 375.944a1.991 1.991 0 1 0 0-3.982 1.991 1.991 0 0 0 0 3.982ZM831.53 568.189a1.99 1.99 0 1 0 0-3.982 1.991 1.991 0 1 0 0 3.982ZM848.956 608.783a4.289 4.289 0 1 0 0-8.577 4.289 4.289 0 0 0 0 8.577ZM1194.77 540.195a4.289 4.289 0 1 0 0-8.578 4.289 4.289 0 1 0 0 8.578ZM757.542 378.242a4.29 4.29 0 1 0 0-8.58 4.29 4.29 0 0 0 0 8.58ZM975.524 907.108a4.289 4.289 0 1 0 0-8.577 4.289 4.289 0 0 0 0 8.577ZM1488.64 876.906a4.29 4.29 0 0 0-8.47-1.374 4.29 4.29 0 0 0 8.47 1.374ZM775.006 803.824a4.289 4.289 0 1 0 0-8.577 4.289 4.289 0 0 0 0 8.577ZM1539.55 729.015a5.292 5.292 0 0 0 0-7.474 5.28 5.28 0 0 0-7.47 0 5.274 5.274 0 0 0 0 7.474 5.28 5.28 0 0 0 7.47 0ZM913.185 840.005a3.561 3.561 0 1 0-3.167-6.38 3.561 3.561 0 0 0 3.167 6.38Z" fill="#212444"/><path d="M1273.58 813.168c0 .651-.54 1.187-1.19 1.187a1.188 1.188 0 0 1 0-2.374c.65 0 1.19.498 1.19 1.187Z" fill="#fff"/><path d="M1373.46 687.673c0 .651-.54 1.187-1.19 1.187-.65 0-1.19-.536-1.19-1.187s.54-1.188 1.19-1.188c.65 0 1.19.537 1.19 1.188ZM1411.64 802.79c0 .651-.54 1.187-1.19 1.187a1.188 1.188 0 0 1 0-2.374c.65 0 1.19.536 1.19 1.187ZM1143.49 757.754c0 .651-.54 1.187-1.19 1.187a1.188 1.188 0 0 1 0-2.374c.65 0 1.19.498 1.19 1.187ZM1352.01 514.077c0 .651-.54 1.188-1.19 1.188a1.188 1.188 0 0 1 0-2.375c.65 0 1.19.536 1.19 1.187Z" fill="#212444"/><path d="M2381.79 1055.58c-243.26-93.444-708.61-268.098-977.12-341.932-375.4-103.271-825.853-319.076-910.322-281.527-84.469 37.55 23.444 136.106-197.129 28.195C76.647 352.405-669.388 216.308-950.952 103.689c-53.188-21.27-109.058-39.542-164.708-55.145l417.65 417.653c138.847 15.952 257.348 32.025 314.885 45.755 197.065 46.892 642.837 201.76 741.385 234.609 98.549 32.85 98.532-32.879 220.514-23.463 121.982 9.415 708.596 258.012 999.556 333.072 186.75 48.23 504.93 142.75 708.88 204.35l149.76-149.76-55.18-55.18Z" fill="url(#c)"/><path d="M1685.98 315.085c-200.86-69.865-534.4-169.606-702.362-128.734-249.941 60.797-183.338 38.664-383.402-28.261-200.063-66.924-466.823-67.222-416.764-28.271 50.059 38.951 344.588 67.075 489.173 167.256C817.209 397.257 922.852 458.51 1206.18 464.414c217.93 4.48 751.5 245.933 986.37 357.25l-506.57-506.579Z" fill="url(#d)"/><g opacity=".4" clip-path="url(#e)"><path d="M465.833-1.912c0 162.011-131.285 293.606-293.607 293.606-175.667 0-314.711-159.838-290.502-333.954 19.863-143.389 145.872-252.948 290.502-252.948 162.012-.31 293.607 130.975 293.607 293.296Z" fill="url(#f)"/><path d="M110.464 227.139c-24.52-10.553-39.727-30.106-37.555-45.935-1.24 1.242-2.172 2.794-2.793 4.346-7.138 16.449 9 39.416 36.003 51.21 27.002 11.794 54.624 7.759 61.763-9.001.62-1.551 1.241-3.414 1.241-4.965-9.621 12.725-34.451 14.897-58.659 4.345Z" fill="#171B34"/><path d="M131.879 176.859c-24.519-10.552-49.348-8.38-59.28 4.345-2.483 15.829 13.035 35.382 37.554 45.935 24.519 10.552 49.349 8.38 59.28-4.345 2.483-15.829-13.035-35.382-37.554-45.935Z" fill="#0B0D19"/><path d="M339.822 156.996c-16.76 22.657-41.899 32.588-59.59 24.829 1.241 1.552 2.793 3.104 4.655 4.345 17.381 13.036 46.555 3.104 65.177-21.725 18.622-24.83 19.243-55.866 1.862-68.591-1.862-1.242-3.724-2.173-5.586-3.104 12.414 14.587 10.242 41.9-6.518 64.246Z" fill="#171B34"/><path d="M339.923 157.165c18.253-24.662 21.099-53.5 6.356-64.411-14.742-10.911-41.49.236-59.743 24.899s-21.099 53.501-6.357 64.412c14.743 10.911 41.491-.237 59.744-24.9Z" fill="#0B0D19"/><path d="M407.174-18.05c1.862 19.553-6.518 36.623-19.553 40.968 1.551.31 3.103.31 4.345 0 15.208-1.552 25.76-20.174 23.898-41.9-2.173-21.725-16.139-38.174-31.347-36.623-1.552 0-2.793.621-4.345.931 13.656 1.863 25.139 17.07 27.002 36.624Z" fill="#171B34"/><path d="M360.929-13.706c1.862 19.554 13.346 34.761 26.691 36.624 12.725-4.345 21.416-21.416 19.554-40.969-1.863-19.553-13.346-34.76-26.692-36.623-13.035 4.345-21.415 21.415-19.553 40.968Z" fill="#0B0D19"/><path d="M298.546-5.015c1.241 3.414 1.241 7.138.31 10.242 1.862-3.725 2.483-8.38.931-12.725-3.104-8.69-12.415-13.346-21.105-10.243-5.276 1.863-9.001 5.897-10.552 10.863 1.862-3.724 5.276-6.828 9.621-8.38 8.38-3.103 18.001 1.552 20.795 10.243Z" fill="#171B34"/><path d="M289.234 13.607c4.345-1.552 7.759-4.656 9.621-8.38.931-3.414.931-6.828-.31-10.242-3.104-8.69-12.415-13.346-21.105-10.242-4.345 1.551-7.759 4.655-9.622 8.38-.931 3.414-.931 6.828.311 10.242 3.103 8.69 12.414 13.345 21.105 10.242Z" fill="#0B0D19"/><path d="M74.77-74.848c11.174-6.207 23.589-8.38 35.693-6.828-14.587-4.345-30.726-3.103-45.003 4.966C37.217-60.88 27.285-25.5 42.803 2.744c9.311 17.07 26.071 27.312 43.762 29.484-14.277-4.034-26.692-13.656-34.45-27.622-15.519-28.243-5.587-63.935 22.656-79.454Z" fill="#171B34"/><path d="M144.914-54.054c-7.759-13.966-20.484-23.587-34.451-27.622-11.793-1.552-24.208.62-35.692 6.828C46.528-59.02 36.596-23.638 52.115 4.606c7.759 13.966 20.484 23.587 34.45 27.622 11.794 1.552 24.209-.62 35.692-6.828 28.244-15.829 38.486-51.52 22.657-79.454Z" fill="#0B0D19"/><path d="M466.762-77.64c-3.414-3.105-7.759-6.208-12.104-4.346-2.483.931-4.035 3.104-5.587 5.587-3.724 6.207-5.897 13.345-7.759 20.484-9.932 38.175-10.242 78.522-1.241 116.697 1.551 6.208 3.414 12.725 6.517 18.312.621.931 1.242 2.172 2.483 2.172.931.31 1.862-.31 2.794-.93 4.965-3.104 9.621-6.208 14.587-9.312 2.172-1.241 4.034-2.793 5.276-4.965 1.552-2.794 1.241-5.897.931-9.001-3.724-38.175-2.483-76.97 4.035-114.835.621-3.414 3.103-9.001.31-11.794-1.241-1.242-3.414-1.863-4.966-3.104-1.862-1.552-3.724-3.414-5.276-4.966Z" fill="#171B34"/><path d="M467.074 65.748c.931 1.863 2.172 3.104 3.414 3.104 6.828.31 13.966-30.726 15.518-69.522 1.552-38.485-2.793-70.143-9.621-70.453-1.242 0-2.483.931-3.725 2.793 4.966 8.69 7.449 35.692 6.208 67.35-1.242 31.967-6.208 58.348-11.794 66.728Z" fill="#171B34"/><path d="M467.073 65.749c5.586-8.38 10.552-35.072 11.794-66.73 1.241-31.657-1.242-58.658-6.208-67.349-5.586 8.38-10.552 35.072-11.794 66.729-1.241 31.657 1.552 58.66 6.208 67.35Z" fill="#0B0D19"/><path d="M35.974 254.451c4.656-.621 9.622-2.483 10.863-6.828.62-2.483 0-5.277-.93-7.76-2.794-6.828-6.829-12.725-11.484-18.622-23.899-31.036-55.556-56.486-91.558-72.625-5.897-2.794-12.105-5.276-18.312-5.897-1.242 0-2.483-.311-3.414.621-.62.62-.931 1.862-.931 2.793-.62 5.586-.931 11.483-1.552 17.07-.31 2.483-.31 4.966.62 7.138 1.242 2.794 4.035 4.656 6.518 6.208 32.589 20.484 62.384 45.313 88.144 73.557 2.483 2.482 5.277 8.069 9.311 7.448 1.863-.31 3.725-1.552 5.587-2.172 2.483-.311 4.966-.621 7.138-.931Z" fill="#171B34"/><path d="M-77.62 166.927c-2.173-.31-3.725 0-4.656.931-4.656 5.276 15.829 29.795 45.313 54.935 29.485 25.14 57.108 40.968 61.453 35.692.93-.931.93-2.483 0-4.655-9.932-1.552-32.899-16.139-57.107-36.624-23.899-20.794-41.9-40.968-45.004-50.279Z" fill="#171B34"/><path d="M24.672 253.403c3.214-3.793-17.078-26.274-45.324-50.214-28.246-23.941-53.75-40.274-56.964-36.481-3.214 3.792 17.078 26.274 45.324 50.214 28.246 23.94 53.75 40.273 56.964 36.481Z" fill="#0B0D19"/><path d="M409.655 177.17c0-2.483-.62-5.277-3.103-6.208-1.242-.62-2.794-.31-4.035 0-3.724.931-7.138 2.794-10.553 4.966-18.001 10.863-33.209 26.071-43.761 44.072-1.862 3.104-3.414 6.207-4.345 9.311 0 .621-.311 1.242 0 1.862.31.311.931.621 1.552.621 3.103.621 5.897 1.241 9 1.862 1.242.311 2.483.621 3.725 0 1.551-.621 2.793-1.862 3.724-3.103 12.725-16.139 27.623-30.416 44.072-42.521 1.552-1.241 4.655-2.172 4.345-4.345 0-.931-.621-2.172-.931-3.103.31-.931.31-2.173.31-3.414Z" fill="#171B34"/><path d="M356.581 232.105c-.31 1.241-.31 1.862.311 2.482 2.483 2.794 16.76-6.517 31.657-20.794 14.898-14.277 25.14-27.933 22.346-30.416-.31-.621-1.241-.621-2.482-.31-1.552 5.276-10.243 16.449-22.657 27.933-12.104 11.794-23.898 20.173-29.175 21.105Z" fill="#171B34"/><path d="M356.583 232.105c5.276-1.242 17.07-9.622 29.174-21.105 12.415-11.484 21.105-22.967 22.657-27.933-5.276 1.241-17.07 9.621-29.175 21.105-12.104 11.483-21.104 22.967-22.656 27.933Z" fill="#0B0D19"/></g><path fill-rule="evenodd" clip-rule="evenodd" d="m1439.87 763.83-5.73 66.77.92 10.619c-10.98 56.23-32.12 108.919-32.12 108.919-10.74 10.304-55.26 30.446-55.26 30.446l-26.58 53.536c-15.63 15.15-50.4 20.97-50.4 20.97l-.32 9.78c-21.9-2.84-54.95-16.09-54.95-16.09l-8.57-28.92c-10.43-5.59-48.4-31.961-48.4-31.961l-8.31-34.088s-28.04-25.723-29.79-37.494c-.22-1.346-.72-4.497-1.46-9.037-5.7-34.706-25.1-149.905-25.1-149.905s-4.39-10.352-3.83-19.578c.57-9.225 3.49-37.761 3.49-37.761s132.59-34.282 155.27-36.051c22.67-1.77 114.95-.503 114.95-.503l2.24-66.431 32.13-36.427c6.57 7.509 10.91 17.353 13.84 26.402.2.649.41 1.297.57 1.94l.03.066a137.49 137.49 0 0 1 3.68 15.899v.03l.09.485c.6 3.794.82 6.17.82 6.17l-1.82-32.948 12.63-20.087c4.44-24.772 3.72-73.552 3.72-73.552l9.49-7.328 2.56-43.489 15.5-3.194 9.28 56.611 7.62 14.298s-1.88 65.291-3.88 92.706c-2 27.414 4.89 109.186 4.89 109.186-13.71 37.73-37.2 60.011-37.2 60.011Z" fill="url(#g)"/><path fill-rule="evenodd" clip-rule="evenodd" d="m1439.88 763.831-5.74 66.77.93 10.619c-10.98 56.229-32.12 108.919-32.12 108.919-10.74 10.304-55.26 30.445-55.26 30.445l-26.58 53.536c-15.63 15.15-50.41 20.97-50.41 20.97l-.32 9.78c-21.89-2.84-54.94-16.09-54.94-16.09l-8.57-28.92c-10.43-5.59-48.4-31.96-48.4-31.96l-8.32-34.088s-28.03-25.724-29.79-37.494c-.21-1.346-.71-4.498-1.46-9.038l19.08 11.226 8.58-14.753-2.31-39.167 11.86 63.927 1.57 42.276 9 11.207 30.06 17.954 25.88 22.9 20.68-12.84 3.72-112.391-6-15.589 9 9.388 8.99 78.899 5.12 43.993 34.27 1.14 22.48-30.762 24.49-25.645 31.06-32.627 18.08-36.858 18.09-43.392 19.87-6.668-12.64-6.558-38.92 2.158-32.28 8.977s-43.38 9.819-59.4 13.577c-16.02 3.758-43.15 3.715-43.15 3.715l-57.69-13.013-3.57-17.075-10.07-27.014-1.56-63.133-1.14-38.04 31.11-22.426 68.08-5.292 4.15 18.693-.98 115.623 17.51 42.264 27.96-8.898 31.15-35.154 6.06-67.498 1.91-57.708c9.66-11.389 15.54-10.207 15.54-10.207l-.46 13.874 4.94 97.827 7.88-26.669-1.58-54.375 12.92-1.745 22.77-5.74 12.73-10.486-16.13-9.698-16.52 16.05-6.37-20.529-2.23-27.106-5.4-37.833 16.66-7.377 8.15-11.601.11-.157.46 2.097.03.066 3.68 15.844v.031l.06.23v.254l3.43 63.037 16.66 11.243.35 31.906 19.29-12.698 2.57-11.916s-6.47-24.718-4.7-45.168c1.77-20.451 9.88-52.126 9.88-52.126l1.02-30.864-.44-45.283 8.4.279-6.29-5.164.36-10.807s-4.73-3.77-6.87-8.831c-2.14-5.061-2.46-21.481-2.46-21.481l2.63-13.668-.9-22.905 9.28 56.611 7.62 14.299s-1.88 65.29-3.88 92.705c-2 27.415 4.9 109.186 4.9 109.186-13.72 37.749-37.21 60.03-37.21 60.03Z" fill="#0E1020"/><path fill-rule="evenodd" clip-rule="evenodd" d="m1121 82.232 5.42 34.731s18.43 6.174 21.31 12.159c2.88 5.984 14.64 113.895 14.64 113.895l12.73 9.947s7.97 19.753 14.42 17.52c6.44-2.234 13.11-29.039 13.11-29.039s1.01-1.182 2.56-3.253c1.54-2.07 3.75-5.182 6.06-8.96 2.88-4.662 6.1-22.821 8.13-35.918a692.668 692.668 0 0 0 2.03-14.094l32.35-6.787 4.02-7.974 26.89-16.262c7.8-39.94-.54-90.293-.54-90.293-8.8-6.9-49.41-16.468-62.84-15.26-12.63 1.128-38.76 9.899-41.95 11l-.33.097-4.48 25.418c-21.47-6.277-53.53 3.073-53.53 3.073Z" fill="url(#h)"/><path fill-rule="evenodd" clip-rule="evenodd" d="m1121 82.232 5.42 34.731s18.43 6.174 21.31 12.159c2.88 5.984 14.64 113.895 14.64 113.895l12.73 9.947s7.97 19.753 14.42 17.519c6.44-2.233 13.11-29.038 13.11-29.038s1.01-1.182 2.56-3.253l-6.59-3.117-11.92 10.592-5.55-14.435-3.14-80.346 17.52 5.128 20.48 23.851 3.38 13.46c1.23-7.98 2.03-14.094 2.03-14.094l32.35-6.787 4.02-7.974 26.89-16.262-18.23 3.09-2.59-18.707-6.4 27.814-8.34.325-19.04-5.09s-5.96-12.273-7.68-18.788c-1.71-6.516-5.86-48.993-5.86-48.993l-1.51-38.58-10.47-2.65-25.19 6.987-.33.098-4.48 25.418c-21.48-6.25-53.54 3.1-53.54 3.1Z" fill="#0E1020"/><path fill-rule="evenodd" clip-rule="evenodd" d="M64.195 518.911s-5.697 28.136-5.05 34.846c.647 6.71 13.52 21.642 13.52 21.642s13.575 29.22 17.883 43.509c4.31 14.289 18.993 32.465 18.993 32.465s87.914 13.637 111.938 13.637c24.023 0 36.126-11.255 36.126-11.255s33.902-58.871 36.878-61.795c2.977-2.924 19.862-8.978 19.862-8.978s27.471-49.61 29.631-62.683l-76.391 3.157-203.39-4.545Z" fill="url(#i)"/><path fill-rule="evenodd" clip-rule="evenodd" d="m64.192 518.91 36.107-4.516 20.983-3.567s99.346.267 127.897 1.915c0 0 23.81-9.626 30.305-9.833 6.495-.207 18.992 11.485 18.992 11.485l45.504 5.931s-20.776 7.233-36.792 6.928l15.267 5.14s-3.579 3.011-9.637 4.836c-6.059 1.825-51.589 3.18-73.193 2.939-21.604-.241-31.08-7.775-31.08-7.775l9.901-3.763-11.666-1.385s-35.343 6.183-48.845 6.62c-13.502.436-30.816-2.868-30.816-2.868l-1.299-4.602s-36.668-2.062-61.628-7.485Z" fill="url(#j)"/><path fill-rule="evenodd" clip-rule="evenodd" d="M117.26 525.808v19.632l-19.944 3.387s-.877.376-3.067 6.021c-2.19 5.645-12.35 19.568-12.35 19.568l-9.24 1.009 7.395 16.558s10.669.109 14.902 2.739c4.234 2.631 13.641 10.496 13.641 10.496l5.645 15.458s5.645-28.599 6.021-33.115c.376-4.516 5.856-23.918 4.998-27.192-.858-3.274.338-16.061.338-16.061l1.506-13.322s28.885 3.918 31.892 5.046c3.007 1.129 4.324 13.171 4.324 13.171l9.844 22.696-11.026 33.115 4.275 28.107 1.347 21.138 15.689 16.791h12.418s10.161-54.916 10.913-58.299c.753-3.383-2.679-11.289-2.679-11.289l4.941-34.504-.486-34.598 9.901-3.763-11.666-1.385s-36.701 5.494-42.775 6.055c-6.074.56-36.961-5.156-36.961-5.156l18.522-4.516-28.318 2.213ZM275.681 540.183l24.746 4.139-3.943 9.457-10.729 25.887-12.941 12.305-14.518 5.374-11.29 7.861h9.784l-.752 10.48-5.246 24.965-.26 17.769 6.635-.907s26.484-47.972 37.318-65.542c0 0 17.996-5.562 19.862-8.979 1.867-3.417 27.309-50.956 29.631-62.682l-36.773 6.928 15.267 5.14s-10.748 4.787-17.898 5.916c-7.149 1.129-28.893 1.889-28.893 1.889Z" fill="#0C0E1C"/><path fill-rule="evenodd" clip-rule="evenodd" d="m249.182 512.727-7.993 3.925s5.833 1.314 9.216 2.258c3.383.945 21.965-.564 25.277-1.505 3.311-.941 15.53-4.689 15.53-4.689l.655-3.827s-9.122-8.162-11.877-7.718c-2.754.444-25.984 9.178-30.808 11.556Z" fill="url(#k)"/><path fill-rule="evenodd" clip-rule="evenodd" d="m299.609 514.53-7.745 4.38-12.124.297h-25.83s19.869-1.697 22.849-2.348c2.981-.651 14.451-4.139 14.451-4.139l.654-3.827 7.745 5.637ZM117.264 545.44l8.339 19.557 1.433-36.86 18.523-4.512-28.295 2.183v19.632ZM307.209 527.238l15.267 5.141-6.593 47.791s20.528-39.136 28.118-59.879l-36.792 6.947ZM163.996 533.293l19.459 18.879 12.034 12.825 2.45 10.97 10.789-6.876-.181-36.713 9.901-3.755-11.677-1.385-42.775 6.055Z" fill="#0E1020"/></g><defs><linearGradient id="c" x1="1087.58" y1="365.302" x2="880.072" y2="1112.21" gradientUnits="userSpaceOnUse"><stop stop-color="#0F1122" stop-opacity="0"/><stop offset="1" stop-color="#161A31"/></linearGradient><linearGradient id="d" x1="1415.8" y1="364.432" x2="1285.38" y2="763.754" gradientUnits="userSpaceOnUse"><stop stop-color="#0F1122" stop-opacity="0"/><stop offset="1" stop-color="#161A31"/></linearGradient><linearGradient id="g" x1="1196.2" y1="967.686" x2="1514.15" y2="644.441" gradientUnits="userSpaceOnUse"><stop offset=".01" stop-color="#0E1020"/><stop offset="1" stop-color="#1F2342"/></linearGradient><linearGradient id="h" x1="1166.84" y1="235.684" x2="1279.09" y2="98.911" gradientUnits="userSpaceOnUse"><stop offset=".01" stop-color="#0E1020"/><stop offset="1" stop-color="#1F2342"/></linearGradient><linearGradient id="i" x1="137.296" y1="642.61" x2="178.547" y2="508.726" gradientUnits="userSpaceOnUse"><stop offset=".01" stop-color="#0E1020"/><stop offset="1" stop-color="#1F2342"/></linearGradient><radialGradient id="f" cx="0" cy="0" r="1" gradientUnits="userSpaceOnUse" gradientTransform="rotate(128.026 170.085 6.96) scale(409.279 409.246)"><stop stop-color="#1E2140"/><stop offset="1" stop-color="#131525"/></radialGradient><radialGradient id="j" cx="0" cy="0" r="1" gradientUnits="userSpaceOnUse" gradientTransform="matrix(-120.20214 20.48392 -6.98996 -41.01797 255.546 513.865)"><stop stop-color="#2C335C"/><stop offset="1" stop-color="#191D36"/></radialGradient><radialGradient id="k" cx="0" cy="0" r="1" gradientUnits="userSpaceOnUse" gradientTransform="rotate(155.507 82.96 283.168) scale(23.9251 18.5994)"><stop stop-color="#2C335C"/><stop offset="1" stop-color="#191D36"/></radialGradient><clipPath id="a"><path fill="#fff" transform="translate(4)" d="M0 0h1535v940H0z"/></clipPath><clipPath id="e"><path fill="#fff" transform="translate(-122 -298)" d="M0 0h611.421v589.695H0z"/></clipPath><filter id="b" x="0" y="0" width="1543" height="948" filterUnits="userSpaceOnUse" color-interpolation-filters="sRGB"><feFlood flood-opacity="0" result="BackgroundImageFix"/><feColorMatrix in="SourceAlpha" values="0 0 0 0 0 0 0 0 0 0 0 0 0 0 0 0 0 0 127 0" result="hardAlpha"/><feOffset dy="4"/><feGaussianBlur stdDeviation="2"/><feComposite in2="hardAlpha" operator="out"/><feColorMatrix values="0 0 0 0 0 0 0 0 0 0 0 0 0 0 0 0 0 0 0.25 0"/><feBlend in2="BackgroundImageFix" result="effect1_dropShadow_0_1"/><feBlend in="SourceGraphic" in2="effect1_dropShadow_0_1" result="shape"/></filter></defs></svg>