<?xml version="1.0" encoding="UTF-8" standalone="no"?>
<svg
   width="1543"
   height="948"
   fill="none"
   version="1.1"
   id="svg80"
   sodipodi:docname="bg-desktop.svg"
   inkscape:version="1.3 (0e150ed, 2023-07-21)"
   xmlns:inkscape="http://www.inkscape.org/namespaces/inkscape"
   xmlns:sodipodi="http://sodipodi.sourceforge.net/DTD/sodipodi-0.dtd"
   xmlns="http://www.w3.org/2000/svg"
   xmlns:svg="http://www.w3.org/2000/svg">
  <sodipodi:namedview
     id="namedview80"
     pagecolor="#ffffff"
     bordercolor="#000000"
     borderopacity="0.25"
     inkscape:showpageshadow="2"
     inkscape:pageopacity="0.0"
     inkscape:pagecheckerboard="0"
     inkscape:deskcolor="#d1d1d1"
     inkscape:zoom="0.60997263"
     inkscape:cx="739.37743"
     inkscape:cy="518.87574"
     inkscape:window-width="1792"
     inkscape:window-height="920"
     inkscape:window-x="0"
     inkscape:window-y="25"
     inkscape:window-maximized="0"
     inkscape:current-layer="svg80" />
  <g
     clip-path="url(#a)"
     filter="url(#b)"
     id="g62"
     transform="matrix(1.0074762,0,0,1.0104644,-4.9481634,1.1695633e-5)">
    <path
       fill="#0c0e1c"
       d="M 4,0 H 1539 V 940 H 4 Z"
       id="path4" />
    <path
       fill="#0c0e1c"
       d="m -299.887,-458 h 2085.77 v 1485.02 h -2085.77 z"
       id="path5" />
    <path
       d="m 519.752,80.12 c -7.391,2.22 -7.85,2.948 -7.085,10.607 -2.221,-7.39 -2.948,-7.85 -10.608,-7.084 7.392,-2.222 7.851,-2.95 7.085,-10.608 2.26,7.39 2.949,7.85 10.608,7.084 z"
       fill="#ffffff"
       id="path6" />
    <path
       d="m 410.837,258.004 c 0,0.957 -0.766,1.723 -1.723,1.723 a 1.716,1.716 0 0 1 -1.723,-1.723 c 0,-0.958 0.766,-1.724 1.723,-1.724 0.957,0 1.723,0.766 1.723,1.724 z M 740.183,14.48 a 1.992,1.992 0 1 0 -10e-4,-3.983 1.992,1.992 0 0 0 10e-4,3.983 z M 631.195,64.265 a 1.992,1.992 0 1 0 -0.001,-3.983 1.992,1.992 0 0 0 0.001,3.983 z M 123.889,218.597 a 1.977,1.977 0 0 1 -1.991,1.991 1.977,1.977 0 0 1 -1.992,-1.991 c 0,-1.111 0.881,-1.991 1.992,-1.991 1.11,0 1.991,0.88 1.991,1.991 z M 39.867,117.764 c 0,1.111 -0.881,1.991 -1.992,1.991 -1.11,0 -1.991,-0.88 -1.991,-1.991 0,-1.111 0.88,-1.991 1.991,-1.991 1.11,0 1.992,0.88 1.992,1.991 z m 22.902,166.511 a 1.9920001,1.9920001 0 1 0 -10e-4,-3.984 1.992,1.992 0 0 0 0,3.984 z M 628.206,208.87 a 1.977,1.977 0 0 1 -1.992,1.991 c -1.11,0 -1.991,-0.88 -1.991,-1.991 0,-1.11 0.881,-1.991 1.991,-1.991 1.111,0 1.992,0.881 1.992,1.991 z m 93.864,73.413 a 4.29,4.29 0 1 0 0,-8.58 4.29,4.29 0 0 0 0,8.58 z M 229.507,222.886 a 4.289,4.289 0 1 0 0,-8.577 4.289,4.289 0 0 0 0,8.577 z m 216.245,-88.488 a 4.289,4.289 0 1 0 -8.467,-1.375 4.289,4.289 0 0 0 8.467,1.375 z m 239.283,14.348 a 6.435,6.435 0 1 0 -10e-4,-12.869 6.435,6.435 0 0 0 10e-4,12.869 z"
       fill="#212444"
       id="path7" />
    <path
       d="m 230.695,70.66 c 0,0.65 -0.536,1.187 -1.187,1.187 a 1.193,1.193 0 0 1 -1.187,-1.187 c 0,-0.651 0.536,-1.187 1.187,-1.187 0.651,0 1.187,0.498 1.187,1.187 z"
       fill="#ffffff"
       id="path8" />
    <path
       d="m 368.753,60.282 c 0,0.65 -0.536,1.187 -1.187,1.187 a 1.193,1.193 0 0 1 -1.187,-1.187 c 0,-0.651 0.536,-1.187 1.187,-1.187 0.651,0 1.187,0.536 1.187,1.187 z M 100.605,15.246 c 0,0.651 -0.536,1.187 -1.187,1.187 A 1.193,1.193 0 0 1 98.23,15.246 c 0,-0.651 0.537,-1.187 1.188,-1.187 0.651,0 1.187,0.498 1.187,1.187 z m 833.751,120.173 c 0,0.957 -0.766,1.723 -1.723,1.723 a 1.716,1.716 0 0 1 -1.723,-1.723 c 0,-0.958 0.766,-1.724 1.723,-1.724 0.957,0 1.723,0.804 1.723,1.724 z m -37.875,53.652 c 0,0.957 -0.766,1.723 -1.723,1.723 a 1.715,1.715 0 0 1 -1.723,-1.723 c 0,-0.957 0.765,-1.723 1.723,-1.723 0.957,0 1.723,0.766 1.723,1.723 z m -149.735,30.943 a 1.7235001,1.7235001 0 1 0 10e-4,-3.447 1.7235001,1.7235001 0 0 0 -10e-4,3.447 z m 706.974,37.99 c 0,0.957 -0.76,1.723 -1.72,1.723 -0.96,0 -1.72,-0.766 -1.72,-1.723 0,-0.958 0.76,-1.724 1.72,-1.724 0.96,0 1.72,0.766 1.72,1.724 z M 746.552,0.655 c 0,0.958 -0.766,1.724 -1.724,1.724 a 1.716,1.716 0 0 1 -1.723,-1.724 c 0,-0.957 0.766,-1.723 1.723,-1.723 0.958,0 1.724,0.766 1.724,1.723 z m 7.621,141.504 a 3.37,3.37 0 1 0 0,-6.74 3.37,3.37 0 0 0 0,6.74 z m 412.607,76.438 c 0,1.111 -0.89,1.991 -2,1.991 -1.11,0 -1.99,-0.88 -1.99,-1.991 0,-1.111 0.88,-1.991 1.99,-1.991 1.11,0 2,0.88 2,1.991 z m -84.03,-100.833 c 0,1.111 -0.88,1.991 -1.99,1.991 -1.11,0 -1.99,-0.88 -1.99,-1.991 0,-1.111 0.88,-1.991 1.99,-1.991 1.11,0 1.99,0.88 1.99,1.991 z m 22.9,166.511 c 1.1,0 2,-0.892 2,-1.992 0,-1.099 -0.9,-1.991 -2,-1.991 -1.1,0 -1.99,0.892 -1.99,1.991 0,1.1 0.89,1.992 1.99,1.992 z M 975.524,164.6 a 4.289,4.289 0 1 0 0,-8.577 4.289,4.289 0 0 0 0,8.577 z m 296.866,58.286 a 4.289,4.289 0 1 0 0,-8.578 4.289,4.289 0 1 0 0,8.578 z m 216.25,-88.488 a 4.2903606,4.2903606 0 0 0 -8.47,-1.374 4.2903606,4.2903606 0 0 0 8.47,1.374 z M 775.006,61.316 a 4.29,4.29 0 1 0 0,-8.58 4.29,4.29 0 0 0 0,8.58 z m 82.567,196.687 a 8.08,8.08 0 1 0 0,-16.16 8.08,8.08 0 1 0 0,16.16 z M 913.185,97.496 a 3.562,3.562 0 1 0 -3.168,-6.38 3.562,3.562 0 0 0 3.168,6.38 z"
       fill="#212444"
       id="path9" />
    <path
       d="m 1273.58,70.66 c 0,0.65 -0.54,1.187 -1.19,1.187 a 1.188,1.188 0 0 1 0,-2.374 c 0.65,0 1.19,0.498 1.19,1.187 z"
       fill="#ffffff"
       id="path10" />
    <path
       d="m 1411.64,60.282 c 0,0.65 -0.54,1.187 -1.19,1.187 a 1.188,1.188 0 0 1 0,-2.374 c 0.65,0 1.19,0.536 1.19,1.187 z M 1143.49,15.246 c 0,0.651 -0.54,1.187 -1.19,1.187 a 1.188,1.188 0 0 1 0,-2.374 c 0.65,0 1.19,0.498 1.19,1.187 z"
       fill="#212444"
       id="path11" />
    <path
       d="m 519.752,822.627 c -7.391,2.222 -7.851,2.949 -7.085,10.608 -2.221,-7.391 -2.948,-7.85 -10.608,-7.084 7.391,-2.222 7.851,-2.949 7.085,-10.608 2.26,7.391 2.949,7.85 10.608,7.084 z M 487.737,455.753 c -4.289,-1.724 -4.787,-1.57 -7.315,2.298 1.724,-4.29 1.57,-4.787 -2.297,-7.315 4.289,1.723 4.787,1.57 7.314,-2.298 -1.723,4.289 -1.57,4.787 2.298,7.315 z"
       fill="#ffffff"
       id="path12" />
    <path
       d="m 210.626,632.373 c -4.481,1.188 -4.787,1.571 -4.481,6.204 -1.187,-4.48 -1.57,-4.787 -6.204,-4.48 4.481,-1.187 4.787,-1.57 4.481,-6.204 1.187,4.48 1.608,4.748 6.204,4.48 z M 414.13,312.335 c -4.672,-3.868 -5.323,-3.907 -10.071,-0.039 3.868,-4.672 3.906,-5.323 0.038,-10.033 4.672,3.868 5.323,3.906 10.072,0.038 -3.868,4.634 -3.906,5.323 -0.039,10.034 z"
       fill="#212444"
       id="path13" />
    <path
       d="m 416.238,307.318 c -6.051,0.536 -6.51,1.034 -7.161,7.085 -0.536,-6.051 -1.034,-6.511 -7.085,-7.162 6.051,-0.536 6.51,-1.034 7.161,-7.084 0.575,6.05 1.034,6.548 7.085,7.161 z m 286.683,237.511 c -7.62,0.727 -8.195,1.34 -8.961,8.961 -0.727,-7.621 -1.34,-8.195 -8.961,-8.961 7.621,-0.728 8.195,-1.341 8.961,-8.961 0.728,7.62 1.341,8.233 8.961,8.961 z"
       fill="#212444"
       id="path14" />
    <path
       d="m 700.277,538.51 c -4.863,5.898 -4.863,6.74 0,12.638 -5.897,-4.864 -6.74,-4.864 -12.637,0 4.863,-5.898 4.863,-6.74 0,-12.638 5.897,4.864 6.74,4.864 12.637,0 z"
       fill="#ffffff"
       id="path15" />
    <path
       d="m 54.42,341.937 a 3.37,3.37 0 1 0 0.002,-6.739 3.37,3.37 0 0 0 -10e-4,6.739 z M 726.092,615.6 c 0,1.11 -0.881,1.991 -1.991,1.991 a 1.978,1.978 0 0 1 -1.992,-1.991 c 0,-1.111 0.881,-1.992 1.992,-1.992 1.11,0 1.991,0.881 1.991,1.992 z M 630.62,465.901 a 1.9915001,1.9915001 0 1 0 10e-4,-3.983 1.9915001,1.9915001 0 0 0 -10e-4,3.983 z M 738.191,349.443 a 1.991,1.991 0 1 0 0,-3.982 1.991,1.991 0 0 0 0,3.982 z M 635.174,604.915 a 1.977,1.977 0 0 1 -1.991,1.991 1.977,1.977 0 0 1 -1.992,-1.991 c 0,-1.11 0.881,-1.991 1.992,-1.991 1.11,0 1.991,0.881 1.991,1.991 z m -202.468,-9.421 a 1.978,1.978 0 0 1 -1.992,1.992 1.978,1.978 0 0 1 -1.991,-1.992 c 0,-1.11 0.881,-1.991 1.991,-1.991 1.111,0 1.992,0.881 1.992,1.991 z M 339.913,374.795 a 1.991,1.991 0 1 0 0,-3.982 1.991,1.991 0 0 0 0,3.982 z m 329.882,292.542 a 1.9915001,1.9915001 0 1 0 0.001,-3.983 1.9915001,1.9915001 0 0 0 -0.001,3.983 z m 70.388,89.651 a 1.991,1.991 0 1 0 0,-3.982 1.991,1.991 0 0 0 0,3.982 z m -108.989,49.785 a 1.992,1.992 0 1 0 0,-3.984 1.992,1.992 0 0 0 0,3.984 z M 39.866,860.272 c 0,1.111 -0.88,1.991 -1.991,1.991 -1.11,0 -1.991,-0.88 -1.991,-1.991 0,-1.11 0.88,-1.991 1.99,-1.991 1.111,0 1.992,0.881 1.992,1.991 z M 685.038,635.207 a 1.9915,1.9915 0 1 0 0,-3.983 1.9915,1.9915 0 0 0 0,3.983 z M 238.24,719.994 c 0,1.111 -0.88,1.992 -1.991,1.992 a 1.977,1.977 0 0 1 -1.991,-1.992 c 0,-1.11 0.88,-1.991 1.991,-1.991 1.111,0 1.991,0.881 1.991,1.991 z M 602.702,337.189 a 1.992,1.992 0 1 0 0,-3.984 1.992,1.992 0 0 0 0,3.984 z M 93.401,527.481 a 1.992,1.992 0 1 0 0,-3.984 1.992,1.992 0 0 0 0,3.984 z"
       fill="#212444"
       id="path16" />
    <path
       d="m 102.328,483.134 a 1.4545001,1.4545001 0 1 1 -2.909,10e-4 1.4545001,1.4545001 0 0 1 2.909,-10e-4 z"
       fill="#ffffff"
       id="path17" />
    <path
       d="m 172.445,286.063 a 1.4550008,1.4550008 0 1 1 -2.91,0.003 1.4550008,1.4550008 0 0 1 2.91,-0.003 z M 60.776,463.91 a 1.992,1.992 0 1 0 0,-3.983 1.992,1.992 0 0 0 0,3.983 z m 380.699,-71.001 a 1.9915001,1.9915001 0 1 0 10e-4,-3.983 1.9915001,1.9915001 0 0 0 -10e-4,3.983 z M 299.702,347.452 a 1.992,1.992 0 1 0 0,-3.984 1.992,1.992 0 0 0 0,3.984 z m -67.516,58.133 a 1.992,1.992 0 1 0 0,-3.984 1.992,1.992 0 0 0 0,3.984 z m 308.282,-92.944 a 1.9915,1.9915 0 1 0 0,-3.983 1.9915,1.9915 0 0 0 0,3.983 z m -22.21,307.248 a 4.29,4.29 0 1 0 0,-8.58 4.29,4.29 0 0 0 0,8.58 z M 151.883,540.195 a 4.289,4.289 0 1 0 0,-8.577 4.289,4.289 0 0 0 0,8.577 z m 293.869,336.711 a 4.289,4.289 0 1 0 -8.467,-1.375 4.289,4.289 0 0 0 8.467,1.375 z m 239.283,14.348 a 6.435,6.435 0 1 0 -10e-4,-12.869 6.435,6.435 0 0 0 10e-4,12.869 z M 496.664,729.015 a 5.285,5.285 0 1 0 -7.473,-7.474 5.285,5.285 0 0 0 7.473,7.474 z m 201.24,-426.791 a 8.08,8.08 0 1 0 0,-16.16 8.08,8.08 0 1 0 0,16.16 z"
       fill="#212444"
       id="path18" />
    <path
       d="m 230.695,813.168 c 0,0.651 -0.537,1.187 -1.188,1.187 a 1.193,1.193 0 0 1 -1.187,-1.187 c 0,-0.651 0.536,-1.187 1.187,-1.187 a 1.17,1.17 0 0 1 1.188,1.187 z"
       fill="#ffffff"
       id="path19" />
    <path
       d="m 330.57,687.673 c 0,0.651 -0.536,1.187 -1.187,1.187 a 1.194,1.194 0 0 1 -1.188,-1.187 c 0,-0.651 0.537,-1.188 1.188,-1.188 0.651,0 1.187,0.537 1.187,1.188 z m 38.183,115.117 c 0,0.651 -0.536,1.187 -1.187,1.187 a 1.193,1.193 0 0 1 -1.187,-1.187 c 0,-0.651 0.536,-1.187 1.187,-1.187 0.651,0 1.187,0.536 1.187,1.187 z M 100.605,757.754 c 0,0.651 -0.536,1.187 -1.187,1.187 a 1.193,1.193 0 0 1 -1.188,-1.187 c 0,-0.651 0.536,-1.187 1.188,-1.187 0.651,0 1.187,0.498 1.187,1.187 z m 208.52,-243.677 c 0,0.651 -0.536,1.188 -1.187,1.188 a 1.194,1.194 0 0 1 -1.187,-1.188 c 0,-0.651 0.536,-1.187 1.187,-1.187 0.651,0 1.187,0.536 1.187,1.187 z"
       fill="#212444"
       id="path20" />
    <path
       d="m 872.853,714.671 c -7.391,2.221 -7.851,2.949 -7.085,10.608 -2.221,-7.391 -2.949,-7.851 -10.608,-7.085 7.391,-2.221 7.851,-2.948 7.085,-10.608 2.221,7.392 2.948,7.851 10.608,7.085 z"
       fill="#ffffff"
       id="path21" />
    <path
       d="m 981.307,345.46 c -5.514,-5.361 -6.357,-5.438 -12.714,-1.072 5.362,-5.515 5.438,-6.357 1.072,-12.714 5.515,5.361 6.358,5.438 12.715,1.072 -5.362,5.515 -5.438,6.357 -1.073,12.714 z"
       fill="#212444"
       id="path22" />
    <path
       d="m 1530.62,455.753 c -4.29,-1.724 -4.78,-1.57 -7.31,2.298 1.72,-4.29 1.57,-4.788 -2.3,-7.315 4.29,1.723 4.79,1.57 7.32,-2.298 -1.73,4.289 -1.57,4.787 2.29,7.315 z"
       fill="#ffffff"
       id="path23" />
    <path
       d="m 1253.51,632.373 c -4.48,1.188 -4.79,1.571 -4.48,6.204 -1.19,-4.48 -1.57,-4.787 -6.2,-4.48 4.48,-1.187 4.78,-1.57 4.48,-6.204 1.19,4.48 1.61,4.748 6.2,4.48 z m 203.51,-320.038 c -4.68,-3.868 -5.33,-3.907 -10.07,-0.039 3.86,-4.672 3.9,-5.323 0.03,-10.033 4.68,3.868 5.33,3.906 10.08,0.038 -3.87,4.634 -3.91,5.323 -0.04,10.034 z"
       fill="#212444"
       id="path24" />
    <path
       d="m 1459.12,307.318 c -6.05,0.536 -6.51,1.034 -7.16,7.085 -0.53,-6.051 -1.03,-6.511 -7.08,-7.162 6.05,-0.536 6.51,-1.034 7.16,-7.085 0.57,6.051 1.03,6.549 7.08,7.162 z m -430.98,368.445 a 3.3710001,3.3710001 0 1 0 0,-6.742 3.3710001,3.3710001 0 0 0 0,6.742 z m -93.784,202.164 c 0,0.957 -0.766,1.723 -1.723,1.723 a 1.715,1.715 0 0 1 -1.723,-1.723 c 0,-0.958 0.765,-1.724 1.723,-1.724 0.957,0 1.723,0.805 1.723,1.724 z m -37.875,53.652 c 0,0.958 -0.766,1.723 -1.723,1.723 a 1.716,1.716 0 0 1 -1.724,-1.723 c 0,-0.957 0.766,-1.723 1.724,-1.723 0.957,0 1.723,0.766 1.723,1.723 z M 746.551,743.164 c 0,0.957 -0.765,1.723 -1.723,1.723 a 1.716,1.716 0 0 1 -1.723,-1.723 c 0,-0.958 0.766,-1.724 1.723,-1.724 0.958,0 1.723,0.766 1.723,1.724 z m 7.622,141.503 a 3.37,3.37 0 1 0 0,-6.74 3.37,3.37 0 0 0 0,6.74 z m 94.848,-355.17 a 3.370779,3.370779 0 1 0 -6.654,-1.083 3.370779,3.370779 0 0 0 6.654,1.083 z M 831.53,314.02 a 3.37,3.37 0 1 0 0,-6.74 3.37,3.37 0 0 0 0,6.74 z m 265.77,27.917 a 3.37,3.37 0 1 0 0,-6.74 3.37,3.37 0 0 0 0,6.74 z"
       fill="#212444"
       id="path25" />
    <path
       d="m 812.768,617.591 a 1.992,1.992 0 1 0 0,-3.984 1.992,1.992 0 0 0 0,3.984 z"
       fill="#ffffff"
       id="path26" />
    <path
       d="m 1475.59,595.494 c 0,1.111 -0.88,1.992 -1.99,1.992 -1.11,0 -1.99,-0.881 -1.99,-1.992 0,-1.11 0.88,-1.991 1.99,-1.991 1.11,0 1.99,0.881 1.99,1.991 z M 1382.8,374.795 c 1.1,0 1.99,-0.892 1.99,-1.991 a 1.99,1.99 0 1 0 -1.99,1.991 z m -300.05,485.477 c 0,1.111 -0.88,1.991 -1.99,1.991 -1.11,0 -1.99,-0.88 -1.99,-1.991 0,-1.11 0.88,-1.991 1.99,-1.991 1.11,0 1.99,0.881 1.99,1.991 z m 198.38,-140.278 c 0,1.111 -0.88,1.992 -1.99,1.992 -1.12,0 -2,-0.881 -2,-1.992 0,-1.11 0.88,-1.991 2,-1.991 1.11,0 1.99,0.881 1.99,1.991 z M 900.464,584.848 a 1.9915,1.9915 0 1 0 0,-3.983 1.9915,1.9915 0 0 0 0,3.983 z m 235.826,-57.367 c 1.1,0 1.99,-0.892 1.99,-1.992 a 1.99,1.99 0 1 0 -3.98,0 c 0,1.1 0.89,1.992 1.99,1.992 z"
       fill="#212444"
       id="path27" />
    <path
       d="m 1145.21,483.134 c 0,0.804 -0.65,1.455 -1.45,1.455 -0.8,0 -1.46,-0.651 -1.46,-1.455 0,-0.804 0.66,-1.455 1.46,-1.455 0.8,0 1.45,0.651 1.45,1.455 z"
       fill="#ffffff"
       id="path28" />
    <path
       d="m 1215.33,286.063 a 1.4550003,1.4550003 0 1 1 -2.91,0.002 1.4550003,1.4550003 0 0 1 2.91,-0.002 z M 1103.66,463.91 c 1.1,0 1.99,-0.892 1.99,-1.992 a 1.99,1.99 0 1 0 -3.98,0 c 0,1.1 0.89,1.992 1.99,1.992 z m 380.7,-71.001 c 1.1,0 1.99,-0.892 1.99,-1.991 a 1.99,1.99 0 1 0 -1.99,1.991 z m -141.77,-45.458 c 1.1,0 1.99,-0.891 1.99,-1.991 a 1.99,1.99 0 1 0 -3.98,0 c 0,1.1 0.89,1.991 1.99,1.991 z m -67.52,58.134 c 1.1,0 1.99,-0.892 1.99,-1.991 a 1.99,1.99 0 1 0 -1.99,1.991 z M 992.26,394.939 c 0,1.11 -0.881,1.991 -1.992,1.991 a 1.978,1.978 0 0 1 -1.991,-1.991 c 0,-1.111 0.881,-1.992 1.991,-1.992 1.111,0 1.992,0.881 1.992,1.992 z M 831.53,375.944 a 1.991,1.991 0 1 0 0,-3.982 1.991,1.991 0 0 0 0,3.982 z m 0,192.245 a 1.991,1.991 0 1 0 0,-3.982 1.991,1.991 0 1 0 0,3.982 z m 17.426,40.594 a 4.289,4.289 0 1 0 0,-8.577 4.289,4.289 0 0 0 0,8.577 z m 345.814,-68.588 a 4.289,4.289 0 1 0 0,-8.578 4.289,4.289 0 1 0 0,8.578 z M 757.542,378.242 a 4.29,4.29 0 1 0 0,-8.58 4.29,4.29 0 0 0 0,8.58 z m 217.982,528.866 a 4.289,4.289 0 1 0 0,-8.577 4.289,4.289 0 0 0 0,8.577 z m 513.116,-30.202 a 4.2903606,4.2903606 0 0 0 -8.47,-1.374 4.2903606,4.2903606 0 0 0 8.47,1.374 z M 775.006,803.824 a 4.289,4.289 0 1 0 0,-8.577 4.289,4.289 0 0 0 0,8.577 z m 764.544,-74.809 a 5.292,5.292 0 0 0 0,-7.474 5.28,5.28 0 0 0 -7.47,0 5.274,5.274 0 0 0 0,7.474 5.28,5.28 0 0 0 7.47,0 z m -626.365,110.99 a 3.5614003,3.5614003 0 1 0 -3.167,-6.38 3.5614003,3.5614003 0 0 0 3.167,6.38 z"
       fill="#212444"
       id="path29" />
    <path
       d="m 1273.58,813.168 c 0,0.651 -0.54,1.187 -1.19,1.187 a 1.188,1.188 0 0 1 0,-2.374 c 0.65,0 1.19,0.498 1.19,1.187 z"
       fill="#ffffff"
       id="path30" />
    <path
       d="m 1373.46,687.673 c 0,0.651 -0.54,1.187 -1.19,1.187 -0.65,0 -1.19,-0.536 -1.19,-1.187 0,-0.651 0.54,-1.188 1.19,-1.188 0.65,0 1.19,0.537 1.19,1.188 z m 38.18,115.117 c 0,0.651 -0.54,1.187 -1.19,1.187 a 1.188,1.188 0 0 1 0,-2.374 c 0.65,0 1.19,0.536 1.19,1.187 z m -268.15,-45.036 c 0,0.651 -0.54,1.187 -1.19,1.187 a 1.188,1.188 0 0 1 0,-2.374 c 0.65,0 1.19,0.498 1.19,1.187 z m 208.52,-243.677 c 0,0.651 -0.54,1.188 -1.19,1.188 a 1.188,1.188 0 0 1 0,-2.375 c 0.65,0 1.19,0.536 1.19,1.187 z"
       fill="#212444"
       id="path31" />
    <path
       d="M 2381.79,1055.58 C 2138.53,962.136 1673.18,787.482 1404.67,713.648 1029.27,610.377 578.817,394.572 494.348,432.121 409.879,469.671 517.792,568.227 297.219,460.316 76.647,352.405 -669.388,216.308 -950.952,103.689 -1004.14,82.419 -1060.01,64.147 -1115.66,48.544 l 417.65,417.653 c 138.847,15.952 257.348,32.025 314.885,45.755 197.065,46.892 642.837,201.76 741.385,234.609 98.549,32.85 98.532,-32.879 220.514,-23.463 121.982,9.415 708.596,258.012 999.556,333.072 186.75,48.23 504.93,142.75 708.88,204.35 l 149.76,-149.76 z"
       fill="url(#c)"
       id="path32"
       style="fill:url(#c)" />
    <path
       d="M 1685.98,315.085 C 1485.12,245.22 1151.58,145.479 983.618,186.351 733.677,247.148 800.28,225.015 600.216,158.09 400.153,91.166 133.393,90.868 183.452,129.819 c 50.059,38.951 344.588,67.075 489.173,167.256 144.584,100.182 250.227,161.435 533.555,167.339 217.93,4.48 751.5,245.933 986.37,357.25 z"
       fill="url(#d)"
       id="path33"
       style="fill:url(#d)" />
    <g
       opacity="0.4"
       clip-path="url(#e)"
       id="g53">
      <path
         d="m 465.833,-1.912 c 0,162.011 -131.285,293.606 -293.607,293.606 -175.667,0 -314.711,-159.838 -290.502,-333.954 19.863,-143.389 145.872,-252.948 290.502,-252.948 162.012,-0.31 293.607,130.975 293.607,293.296 z"
         fill="url(#f)"
         id="path34"
         style="fill:url(#f)" />
      <path
         d="m 110.464,227.139 c -24.52,-10.553 -39.727,-30.106 -37.555,-45.935 -1.24,1.242 -2.172,2.794 -2.793,4.346 -7.138,16.449 9,39.416 36.003,51.21 27.002,11.794 54.624,7.759 61.763,-9.001 0.62,-1.551 1.241,-3.414 1.241,-4.965 -9.621,12.725 -34.451,14.897 -58.659,4.345 z"
         fill="#171b34"
         id="path35" />
      <path
         d="m 131.879,176.859 c -24.519,-10.552 -49.348,-8.38 -59.28,4.345 -2.483,15.829 13.035,35.382 37.554,45.935 24.519,10.552 49.349,8.38 59.28,-4.345 2.483,-15.829 -13.035,-35.382 -37.554,-45.935 z"
         fill="#0b0d19"
         id="path36" />
      <path
         d="m 339.822,156.996 c -16.76,22.657 -41.899,32.588 -59.59,24.829 1.241,1.552 2.793,3.104 4.655,4.345 17.381,13.036 46.555,3.104 65.177,-21.725 18.622,-24.83 19.243,-55.866 1.862,-68.591 -1.862,-1.242 -3.724,-2.173 -5.586,-3.104 12.414,14.587 10.242,41.9 -6.518,64.246 z"
         fill="#171b34"
         id="path37" />
      <path
         d="m 339.923,157.165 c 18.253,-24.662 21.099,-53.5 6.356,-64.411 -14.742,-10.911 -41.49,0.236 -59.743,24.899 -18.253,24.663 -21.099,53.501 -6.357,64.412 14.743,10.911 41.491,-0.237 59.744,-24.9 z"
         fill="#0b0d19"
         id="path38" />
      <path
         d="m 407.174,-18.05 c 1.862,19.553 -6.518,36.623 -19.553,40.968 1.551,0.31 3.103,0.31 4.345,0 15.208,-1.552 25.76,-20.174 23.898,-41.9 -2.173,-21.725 -16.139,-38.174 -31.347,-36.623 -1.552,0 -2.793,0.621 -4.345,0.931 13.656,1.863 25.139,17.07 27.002,36.624 z"
         fill="#171b34"
         id="path39" />
      <path
         d="m 360.929,-13.706 c 1.862,19.554 13.346,34.761 26.691,36.624 12.725,-4.345 21.416,-21.416 19.554,-40.969 -1.863,-19.553 -13.346,-34.76 -26.692,-36.623 -13.035,4.345 -21.415,21.415 -19.553,40.968 z"
         fill="#0b0d19"
         id="path40" />
      <path
         d="m 298.546,-5.015 c 1.241,3.414 1.241,7.138 0.31,10.242 1.862,-3.725 2.483,-8.38 0.931,-12.725 -3.104,-8.69 -12.415,-13.346 -21.105,-10.243 -5.276,1.863 -9.001,5.897 -10.552,10.863 1.862,-3.724 5.276,-6.828 9.621,-8.38 8.38,-3.103 18.001,1.552 20.795,10.243 z"
         fill="#171b34"
         id="path41" />
      <path
         d="m 289.234,13.607 c 4.345,-1.552 7.759,-4.656 9.621,-8.38 0.931,-3.414 0.931,-6.828 -0.31,-10.242 -3.104,-8.69 -12.415,-13.346 -21.105,-10.242 -4.345,1.551 -7.759,4.655 -9.622,8.38 -0.931,3.414 -0.931,6.828 0.311,10.242 3.103,8.69 12.414,13.345 21.105,10.242 z"
         fill="#0b0d19"
         id="path42" />
      <path
         d="m 74.77,-74.848 c 11.174,-6.207 23.589,-8.38 35.693,-6.828 C 95.876,-86.021 79.737,-84.779 65.46,-76.71 37.217,-60.88 27.285,-25.5 42.803,2.744 52.114,19.814 68.874,30.056 86.565,32.228 72.288,28.194 59.873,18.572 52.115,4.606 36.596,-23.637 46.528,-59.329 74.771,-74.848 Z"
         fill="#171b34"
         id="path43" />
      <path
         d="m 144.914,-54.054 c -7.759,-13.966 -20.484,-23.587 -34.451,-27.622 -11.793,-1.552 -24.208,0.62 -35.692,6.828 -28.243,15.828 -38.175,51.21 -22.656,79.454 7.759,13.966 20.484,23.587 34.45,27.622 11.794,1.552 24.209,-0.62 35.692,-6.828 28.244,-15.829 38.486,-51.52 22.657,-79.454 z"
         fill="#0b0d19"
         id="path44" />
      <path
         d="m 466.762,-77.64 c -3.414,-3.105 -7.759,-6.208 -12.104,-4.346 -2.483,0.931 -4.035,3.104 -5.587,5.587 -3.724,6.207 -5.897,13.345 -7.759,20.484 -9.932,38.175 -10.242,78.522 -1.241,116.697 1.551,6.208 3.414,12.725 6.517,18.312 0.621,0.931 1.242,2.172 2.483,2.172 0.931,0.31 1.862,-0.31 2.794,-0.93 4.965,-3.104 9.621,-6.208 14.587,-9.312 2.172,-1.241 4.034,-2.793 5.276,-4.965 1.552,-2.794 1.241,-5.897 0.931,-9.001 -3.724,-38.175 -2.483,-76.97 4.035,-114.835 0.621,-3.414 3.103,-9.001 0.31,-11.794 -1.241,-1.242 -3.414,-1.863 -4.966,-3.104 -1.862,-1.552 -3.724,-3.414 -5.276,-4.966 z"
         fill="#171b34"
         id="path45" />
      <path
         d="m 467.074,65.748 c 0.931,1.863 2.172,3.104 3.414,3.104 6.828,0.31 13.966,-30.726 15.518,-69.522 1.552,-38.485 -2.793,-70.143 -9.621,-70.453 -1.242,0 -2.483,0.931 -3.725,2.793 4.966,8.69 7.449,35.692 6.208,67.35 -1.242,31.967 -6.208,58.348 -11.794,66.728 z"
         fill="#171b34"
         id="path46" />
      <path
         d="m 467.073,65.749 c 5.586,-8.38 10.552,-35.072 11.794,-66.73 1.241,-31.657 -1.242,-58.658 -6.208,-67.349 -5.586,8.38 -10.552,35.072 -11.794,66.729 -1.241,31.657 1.552,58.66 6.208,67.35 z"
         fill="#0b0d19"
         id="path47" />
      <path
         d="m 35.974,254.451 c 4.656,-0.621 9.622,-2.483 10.863,-6.828 0.62,-2.483 0,-5.277 -0.93,-7.76 -2.794,-6.828 -6.829,-12.725 -11.484,-18.622 -23.899,-31.036 -55.556,-56.486 -91.558,-72.625 -5.897,-2.794 -12.105,-5.276 -18.312,-5.897 -1.242,0 -2.483,-0.311 -3.414,0.621 -0.62,0.62 -0.931,1.862 -0.931,2.793 -0.62,5.586 -0.931,11.483 -1.552,17.07 -0.31,2.483 -0.31,4.966 0.62,7.138 1.242,2.794 4.035,4.656 6.518,6.208 32.589,20.484 62.384,45.313 88.144,73.557 2.483,2.482 5.277,8.069 9.311,7.448 1.863,-0.31 3.725,-1.552 5.587,-2.172 2.483,-0.311 4.966,-0.621 7.138,-0.931 z"
         fill="#171b34"
         id="path48" />
      <path
         d="m -77.62,166.927 c -2.173,-0.31 -3.725,0 -4.656,0.931 -4.656,5.276 15.829,29.795 45.313,54.935 29.485,25.14 57.108,40.968 61.453,35.692 0.93,-0.931 0.93,-2.483 0,-4.655 -9.932,-1.552 -32.899,-16.139 -57.107,-36.624 -23.899,-20.794 -41.9,-40.968 -45.004,-50.279 z"
         fill="#171b34"
         id="path49" />
      <path
         d="m 24.672,253.403 c 3.214,-3.793 -17.078,-26.274 -45.324,-50.214 -28.246,-23.941 -53.75,-40.274 -56.964,-36.481 -3.214,3.792 17.078,26.274 45.324,50.214 28.246,23.94 53.75,40.273 56.964,36.481 z"
         fill="#0b0d19"
         id="path50" />
      <path
         d="m 409.655,177.17 c 0,-2.483 -0.62,-5.277 -3.103,-6.208 -1.242,-0.62 -2.794,-0.31 -4.035,0 -3.724,0.931 -7.138,2.794 -10.553,4.966 -18.001,10.863 -33.209,26.071 -43.761,44.072 -1.862,3.104 -3.414,6.207 -4.345,9.311 0,0.621 -0.311,1.242 0,1.862 0.31,0.311 0.931,0.621 1.552,0.621 3.103,0.621 5.897,1.241 9,1.862 1.242,0.311 2.483,0.621 3.725,0 1.551,-0.621 2.793,-1.862 3.724,-3.103 12.725,-16.139 27.623,-30.416 44.072,-42.521 1.552,-1.241 4.655,-2.172 4.345,-4.345 0,-0.931 -0.621,-2.172 -0.931,-3.103 0.31,-0.931 0.31,-2.173 0.31,-3.414 z"
         fill="#171b34"
         id="path51" />
      <path
         d="m 356.581,232.105 c -0.31,1.241 -0.31,1.862 0.311,2.482 2.483,2.794 16.76,-6.517 31.657,-20.794 14.898,-14.277 25.14,-27.933 22.346,-30.416 -0.31,-0.621 -1.241,-0.621 -2.482,-0.31 -1.552,5.276 -10.243,16.449 -22.657,27.933 -12.104,11.794 -23.898,20.173 -29.175,21.105 z"
         fill="#171b34"
         id="path52" />
      <path
         d="m 356.583,232.105 c 5.276,-1.242 17.07,-9.622 29.174,-21.105 12.415,-11.484 21.105,-22.967 22.657,-27.933 -5.276,1.241 -17.07,9.621 -29.175,21.105 -12.104,11.483 -21.104,22.967 -22.656,27.933 z"
         fill="#0b0d19"
         id="path53" />
    </g>
    <path
       fill-rule="evenodd"
       clip-rule="evenodd"
       d="m 1439.87,763.83 -5.73,66.77 0.92,10.619 c -10.98,56.23 -32.12,108.919 -32.12,108.919 -10.74,10.304 -55.26,30.446 -55.26,30.446 l -26.58,53.536 c -15.63,15.15 -50.4,20.97 -50.4,20.97 l -0.32,9.78 c -21.9,-2.84 -54.95,-16.09 -54.95,-16.09 l -8.57,-28.92 c -10.43,-5.59 -48.4,-31.961 -48.4,-31.961 l -8.31,-34.088 c 0,0 -28.04,-25.723 -29.79,-37.494 -0.22,-1.346 -0.72,-4.497 -1.46,-9.037 -5.7,-34.706 -25.1,-149.905 -25.1,-149.905 0,0 -4.39,-10.352 -3.83,-19.578 0.57,-9.225 3.49,-37.761 3.49,-37.761 0,0 132.59,-34.282 155.27,-36.051 22.67,-1.77 114.95,-0.503 114.95,-0.503 l 2.24,-66.431 32.13,-36.427 c 6.57,7.509 10.91,17.353 13.84,26.402 0.2,0.649 0.41,1.297 0.57,1.94 l 0.03,0.066 a 137.49,137.49 0 0 1 3.68,15.899 v 0.03 l 0.09,0.485 c 0.6,3.794 0.82,6.17 0.82,6.17 l -1.82,-32.948 12.63,-20.087 c 4.44,-24.772 3.72,-73.552 3.72,-73.552 l 9.49,-7.328 2.56,-43.489 15.5,-3.194 9.28,56.611 7.62,14.298 c 0,0 -1.88,65.291 -3.88,92.706 -2,27.414 4.89,109.186 4.89,109.186 -13.71,37.73 -37.2,60.011 -37.2,60.011 z"
       fill="url(#g)"
       id="path54"
       style="fill:url(#g)" />
    <path
       fill-rule="evenodd"
       clip-rule="evenodd"
       d="m 1439.88,763.831 -5.74,66.77 0.93,10.619 c -10.98,56.229 -32.12,108.919 -32.12,108.919 -10.74,10.304 -55.26,30.445 -55.26,30.445 l -26.58,53.536 c -15.63,15.15 -50.41,20.97 -50.41,20.97 l -0.32,9.78 c -21.89,-2.84 -54.94,-16.09 -54.94,-16.09 l -8.57,-28.92 c -10.43,-5.59 -48.4,-31.96 -48.4,-31.96 l -8.32,-34.088 c 0,0 -28.03,-25.724 -29.79,-37.494 -0.21,-1.346 -0.71,-4.498 -1.46,-9.038 l 19.08,11.226 8.58,-14.753 -2.31,-39.167 11.86,63.927 1.57,42.276 9,11.207 30.06,17.954 25.88,22.9 20.68,-12.84 3.72,-112.391 -6,-15.589 9,9.388 8.99,78.899 5.12,43.993 34.27,1.14 22.48,-30.762 24.49,-25.645 31.06,-32.627 18.08,-36.858 18.09,-43.392 19.87,-6.668 -12.64,-6.558 -38.92,2.158 -32.28,8.977 c 0,0 -43.38,9.819 -59.4,13.577 -16.02,3.758 -43.15,3.715 -43.15,3.715 l -57.69,-13.013 -3.57,-17.075 -10.07,-27.014 -1.56,-63.133 -1.14,-38.04 31.11,-22.426 68.08,-5.292 4.15,18.693 -0.98,115.623 17.51,42.264 27.96,-8.898 31.15,-35.154 6.06,-67.498 1.91,-57.708 c 9.66,-11.389 15.54,-10.207 15.54,-10.207 l -0.46,13.874 4.94,97.827 7.88,-26.669 -1.58,-54.375 12.92,-1.745 22.77,-5.74 12.73,-10.486 -16.13,-9.698 -16.52,16.05 -6.37,-20.529 -2.23,-27.106 -5.4,-37.833 16.66,-7.377 8.15,-11.601 0.11,-0.157 0.46,2.097 0.03,0.066 3.68,15.844 v 0.031 l 0.06,0.23 v 0.254 l 3.43,63.037 16.66,11.243 0.35,31.906 19.29,-12.698 2.57,-11.916 c 0,0 -6.47,-24.718 -4.7,-45.168 1.77,-20.451 9.88,-52.126 9.88,-52.126 l 1.02,-30.864 -0.44,-45.283 8.4,0.279 -6.29,-5.164 0.36,-10.807 c 0,0 -4.73,-3.77 -6.87,-8.831 -2.14,-5.061 -2.46,-21.481 -2.46,-21.481 l 2.63,-13.668 -0.9,-22.905 9.28,56.611 7.62,14.299 c 0,0 -1.88,65.29 -3.88,92.705 -2,27.415 4.9,109.186 4.9,109.186 -13.72,37.749 -37.21,60.03 -37.21,60.03 z"
       fill="#0e1020"
       id="path55" />
    <path
       fill-rule="evenodd"
       clip-rule="evenodd"
       d="m 1121,82.232 5.42,34.731 c 0,0 18.43,6.174 21.31,12.159 2.88,5.984 14.64,113.895 14.64,113.895 l 12.73,9.947 c 0,0 7.97,19.753 14.42,17.52 6.44,-2.234 13.11,-29.039 13.11,-29.039 0,0 1.01,-1.182 2.56,-3.253 1.54,-2.07 3.75,-5.182 6.06,-8.96 2.88,-4.662 6.1,-22.821 8.13,-35.918 a 692.668,692.668 0 0 0 2.03,-14.094 l 32.35,-6.787 4.02,-7.974 26.89,-16.262 c 7.8,-39.94 -0.54,-90.293 -0.54,-90.293 -8.8,-6.9 -49.41,-16.468 -62.84,-15.26 -12.63,1.128 -38.76,9.899 -41.95,11 l -0.33,0.097 -4.48,25.418 C 1153.06,72.882 1121,82.232 1121,82.232 Z"
       fill="url(#h)"
       id="path56"
       style="fill:url(#h)" />
    <path
       fill-rule="evenodd"
       clip-rule="evenodd"
       d="m 1121,82.232 5.42,34.731 c 0,0 18.43,6.174 21.31,12.159 2.88,5.984 14.64,113.895 14.64,113.895 l 12.73,9.947 c 0,0 7.97,19.753 14.42,17.519 6.44,-2.233 13.11,-29.038 13.11,-29.038 0,0 1.01,-1.182 2.56,-3.253 l -6.59,-3.117 -11.92,10.592 -5.55,-14.435 -3.14,-80.346 17.52,5.128 20.48,23.851 3.38,13.46 c 1.23,-7.98 2.03,-14.094 2.03,-14.094 l 32.35,-6.787 4.02,-7.974 26.89,-16.262 -18.23,3.09 -2.59,-18.707 -6.4,27.814 -8.34,0.325 -19.04,-5.09 c 0,0 -5.96,-12.273 -7.68,-18.788 -1.71,-6.516 -5.86,-48.993 -5.86,-48.993 l -1.51,-38.58 -10.47,-2.65 -25.19,6.987 -0.33,0.098 -4.48,25.418 c -21.48,-6.25 -53.54,3.1 -53.54,3.1 z"
       fill="#0e1020"
       id="path57" />
    <path
       fill-rule="evenodd"
       clip-rule="evenodd"
       d="m 64.195,518.911 c 0,0 -5.697,28.136 -5.05,34.846 0.647,6.71 13.52,21.642 13.52,21.642 0,0 13.575,29.22 17.883,43.509 4.31,14.289 18.993,32.465 18.993,32.465 0,0 87.914,13.637 111.938,13.637 24.023,0 36.126,-11.255 36.126,-11.255 0,0 33.902,-58.871 36.878,-61.795 2.977,-2.924 19.862,-8.978 19.862,-8.978 0,0 27.471,-49.61 29.631,-62.683 l -76.391,3.157 z"
       fill="url(#i)"
       id="path58"
       style="fill:url(#i)" />
    <path
       fill-rule="evenodd"
       clip-rule="evenodd"
       d="m 64.192,518.91 36.107,-4.516 20.983,-3.567 c 0,0 99.346,0.267 127.897,1.915 0,0 23.81,-9.626 30.305,-9.833 6.495,-0.207 18.992,11.485 18.992,11.485 l 45.504,5.931 c 0,0 -20.776,7.233 -36.792,6.928 l 15.267,5.14 c 0,0 -3.579,3.011 -9.637,4.836 -6.059,1.825 -51.589,3.18 -73.193,2.939 -21.604,-0.241 -31.08,-7.775 -31.08,-7.775 l 9.901,-3.763 -11.666,-1.385 c 0,0 -35.343,6.183 -48.845,6.62 -13.502,0.436 -30.816,-2.868 -30.816,-2.868 l -1.299,-4.602 c 0,0 -36.668,-2.062 -61.628,-7.485 z"
       fill="url(#j)"
       id="path59"
       style="fill:url(#j)" />
    <path
       fill-rule="evenodd"
       clip-rule="evenodd"
       d="m 117.26,525.808 v 19.632 l -19.944,3.387 c 0,0 -0.877,0.376 -3.067,6.021 -2.19,5.645 -12.35,19.568 -12.35,19.568 l -9.24,1.009 7.395,16.558 c 0,0 10.669,0.109 14.902,2.739 4.234,2.631 13.641,10.496 13.641,10.496 l 5.645,15.458 c 0,0 5.645,-28.599 6.021,-33.115 0.376,-4.516 5.856,-23.918 4.998,-27.192 -0.858,-3.274 0.338,-16.061 0.338,-16.061 l 1.506,-13.322 c 0,0 28.885,3.918 31.892,5.046 3.007,1.129 4.324,13.171 4.324,13.171 l 9.844,22.696 -11.026,33.115 4.275,28.107 1.347,21.138 15.689,16.791 h 12.418 c 0,0 10.161,-54.916 10.913,-58.299 0.753,-3.383 -2.679,-11.289 -2.679,-11.289 l 4.941,-34.504 -0.486,-34.598 9.901,-3.763 -11.666,-1.385 c 0,0 -36.701,5.494 -42.775,6.055 -6.074,0.56 -36.961,-5.156 -36.961,-5.156 l 18.522,-4.516 z m 158.421,14.375 24.746,4.139 -3.943,9.457 -10.729,25.887 -12.941,12.305 -14.518,5.374 -11.29,7.861 h 9.784 l -0.752,10.48 -5.246,24.965 -0.26,17.769 6.635,-0.907 c 0,0 26.484,-47.972 37.318,-65.542 0,0 17.996,-5.562 19.862,-8.979 1.867,-3.417 27.309,-50.956 29.631,-62.682 l -36.773,6.928 15.267,5.14 c 0,0 -10.748,4.787 -17.898,5.916 -7.149,1.129 -28.893,1.889 -28.893,1.889 z"
       fill="#0c0e1c"
       id="path60" />
    <path
       fill-rule="evenodd"
       clip-rule="evenodd"
       d="m 249.182,512.727 -7.993,3.925 c 0,0 5.833,1.314 9.216,2.258 3.383,0.945 21.965,-0.564 25.277,-1.505 3.311,-0.941 15.53,-4.689 15.53,-4.689 l 0.655,-3.827 c 0,0 -9.122,-8.162 -11.877,-7.718 -2.754,0.444 -25.984,9.178 -30.808,11.556 z"
       fill="url(#k)"
       id="path61"
       style="fill:url(#k)" />
    <path
       fill-rule="evenodd"
       clip-rule="evenodd"
       d="m 299.609,514.53 -7.745,4.38 -12.124,0.297 h -25.83 c 0,0 19.869,-1.697 22.849,-2.348 2.981,-0.651 14.451,-4.139 14.451,-4.139 l 0.654,-3.827 z m -182.345,30.91 8.339,19.557 1.433,-36.86 18.523,-4.512 -28.295,2.183 z m 189.945,-18.202 15.267,5.141 -6.593,47.791 c 0,0 20.528,-39.136 28.118,-59.879 z m -143.213,6.055 19.459,18.879 12.034,12.825 2.45,10.97 10.789,-6.876 -0.181,-36.713 9.901,-3.755 -11.677,-1.385 z"
       fill="#0e1020"
       id="path62" />
  </g>
  <defs
     id="defs80">
    <linearGradient
       id="c"
       x1="1087.58"
       y1="365.302"
       x2="880.072"
       y2="1112.21"
       gradientUnits="userSpaceOnUse">
      <stop
         stop-color="#0F1122"
         stop-opacity="0"
         id="stop62" />
      <stop
         offset="1"
         stop-color="#161A31"
         id="stop63" />
    </linearGradient>
    <linearGradient
       id="d"
       x1="1415.8"
       y1="364.432"
       x2="1285.38"
       y2="763.754"
       gradientUnits="userSpaceOnUse">
      <stop
         stop-color="#0F1122"
         stop-opacity="0"
         id="stop64" />
      <stop
         offset="1"
         stop-color="#161A31"
         id="stop65" />
    </linearGradient>
    <linearGradient
       id="g"
       x1="1196.2"
       y1="967.686"
       x2="1514.15"
       y2="644.441"
       gradientUnits="userSpaceOnUse">
      <stop
         offset=".01"
         stop-color="#0E1020"
         id="stop66" />
      <stop
         offset="1"
         stop-color="#1F2342"
         id="stop67" />
    </linearGradient>
    <linearGradient
       id="h"
       x1="1166.84"
       y1="235.684"
       x2="1279.09"
       y2="98.911"
       gradientUnits="userSpaceOnUse">
      <stop
         offset=".01"
         stop-color="#0E1020"
         id="stop68" />
      <stop
         offset="1"
         stop-color="#1F2342"
         id="stop69" />
    </linearGradient>
    <linearGradient
       id="i"
       x1="137.296"
       y1="642.61"
       x2="178.547"
       y2="508.726"
       gradientUnits="userSpaceOnUse">
      <stop
         offset=".01"
         stop-color="#0E1020"
         id="stop70" />
      <stop
         offset="1"
         stop-color="#1F2342"
         id="stop71" />
    </linearGradient>
    <radialGradient
       id="f"
       cx="0"
       cy="0"
       r="1"
       gradientUnits="userSpaceOnUse"
       gradientTransform="matrix(-252.12364,322.40188,-322.37588,-252.10331,280.3432,-122.73378)">
      <stop
         stop-color="#1E2140"
         id="stop72" />
      <stop
         offset="1"
         stop-color="#131525"
         id="stop73" />
    </radialGradient>
    <radialGradient
       id="j"
       cx="0"
       cy="0"
       r="1"
       gradientUnits="userSpaceOnUse"
       gradientTransform="matrix(-120.20214,20.48392,-6.98996,-41.01797,255.546,513.865)">
      <stop
         stop-color="#2C335C"
         id="stop74" />
      <stop
         offset="1"
         stop-color="#191D36"
         id="stop75" />
    </radialGradient>
    <radialGradient
       id="k"
       cx="0"
       cy="0"
       r="1"
       gradientUnits="userSpaceOnUse"
       gradientTransform="matrix(-21.772126,9.9189174,-7.7109777,-16.925676,275.85096,506.46053)">
      <stop
         stop-color="#2C335C"
         id="stop76" />
      <stop
         offset="1"
         stop-color="#191D36"
         id="stop77" />
    </radialGradient>
    <clipPath
       id="a">
      <path
         fill="#fff"
         transform="translate(4)"
         d="M0 0h1535v940H0z"
         id="path77" />
    </clipPath>
    <clipPath
       id="e">
      <path
         fill="#fff"
         transform="translate(-122 -298)"
         d="M0 0h611.421v589.695H0z"
         id="path78" />
    </clipPath>
    <filter
       id="b"
       x="0"
       y="0"
       width="1543"
       height="948"
       filterUnits="userSpaceOnUse"
       color-interpolation-filters="sRGB">
      <feFlood
         flood-opacity="0"
         result="BackgroundImageFix"
         id="feFlood78" />
      <feColorMatrix
         in="SourceAlpha"
         values="0 0 0 0 0 0 0 0 0 0 0 0 0 0 0 0 0 0 127 0"
         result="hardAlpha"
         id="feColorMatrix78" />
      <feOffset
         dy="4"
         id="feOffset78" />
      <feGaussianBlur
         stdDeviation="2"
         id="feGaussianBlur78" />
      <feComposite
         in2="hardAlpha"
         operator="out"
         id="feComposite78" />
      <feColorMatrix
         values="0 0 0 0 0 0 0 0 0 0 0 0 0 0 0 0 0 0 0.25 0"
         id="feColorMatrix79" />
      <feBlend
         in2="BackgroundImageFix"
         result="effect1_dropShadow_0_1"
         id="feBlend79" />
      <feBlend
         in="SourceGraphic"
         in2="effect1_dropShadow_0_1"
         result="shape"
         id="feBlend80" />
    </filter>
  </defs>
</svg>
