<svg width="1124" height="689" viewBox="0 0 1124 689" fill="none" xmlns="http://www.w3.org/2000/svg">
<g clip-path="url(#clip0_1_5)">
<rect width="1124" height="689" fill="#0C0E1C"/>
<path d="M515.752 80.1193C508.361 82.3405 507.902 83.0681 508.667 90.7273C506.446 83.3362 505.719 82.8766 498.059 83.6426C505.451 81.4214 505.91 80.6938 505.144 73.0346C507.404 80.4257 508.093 80.8853 515.752 80.1193Z" fill="white"/>
<path d="M406.837 258.004C406.837 258.961 406.071 259.727 405.114 259.727C404.157 259.727 403.391 258.961 403.391 258.004C403.391 257.046 404.157 256.28 405.114 256.28C406.071 256.28 406.837 257.046 406.837 258.004Z" fill="#212444"/>
<path d="M736.183 14.4801C737.282 14.4801 738.174 13.5886 738.174 12.4888C738.174 11.3889 737.282 10.4973 736.183 10.4973C735.083 10.4973 734.191 11.3889 734.191 12.4888C734.191 13.5886 735.083 14.4801 736.183 14.4801Z" fill="#212444"/>
<path d="M627.195 64.2645C628.294 64.2645 629.186 63.373 629.186 62.2732C629.186 61.1733 628.294 60.2817 627.195 60.2817C626.095 60.2817 625.203 61.1733 625.203 62.2732C625.203 63.373 626.095 64.2645 627.195 64.2645Z" fill="#212444"/>
<path d="M119.889 218.597C119.889 219.707 119.008 220.588 117.898 220.588C116.787 220.588 115.906 219.707 115.906 218.597C115.906 217.486 116.787 216.605 117.898 216.605C119.008 216.605 119.889 217.486 119.889 218.597Z" fill="#212444"/>
<path d="M35.8665 117.764C35.8665 118.875 34.9856 119.755 33.875 119.755C32.7644 119.755 31.8837 118.875 31.8837 117.764C31.8837 116.653 32.7644 115.773 33.875 115.773C34.9856 115.773 35.8665 116.653 35.8665 117.764Z" fill="#212444"/>
<path d="M58.7686 284.275C59.8684 284.275 60.7601 283.383 60.7601 282.283C60.7601 281.184 59.8684 280.292 58.7686 280.292C57.6688 280.292 56.7773 281.184 56.7773 282.283C56.7773 283.383 57.6688 284.275 58.7686 284.275Z" fill="#212444"/>
<path d="M624.206 208.87C624.206 209.981 623.325 210.861 622.214 210.861C621.104 210.861 620.223 209.981 620.223 208.87C620.223 207.76 621.104 206.879 622.214 206.879C623.325 206.879 624.206 207.76 624.206 208.87Z" fill="#212444"/>
<path d="M718.07 282.283C720.439 282.283 722.36 280.363 722.36 277.994C722.36 275.625 720.439 273.705 718.07 273.705C715.702 273.705 713.781 275.625 713.781 277.994C713.781 280.363 715.702 282.283 718.07 282.283Z" fill="#212444"/>
<path d="M225.507 222.886C227.876 222.886 229.796 220.966 229.796 218.597C229.796 216.228 227.876 214.308 225.507 214.308C223.138 214.308 221.218 216.228 221.218 218.597C221.218 220.966 223.138 222.886 225.507 222.886Z" fill="#212444"/>
<path d="M441.752 134.398C442.132 132.06 440.544 129.857 438.206 129.477C435.867 129.098 433.664 130.686 433.285 133.024C432.905 135.362 434.493 137.565 436.831 137.945C439.17 138.324 441.373 136.736 441.752 134.398Z" fill="#212444"/>
<path d="M681.035 148.745C684.588 148.745 687.469 145.865 687.469 142.312C687.469 138.758 684.588 135.878 681.035 135.878C677.482 135.878 674.602 138.758 674.602 142.312C674.602 145.865 677.482 148.745 681.035 148.745Z" fill="#212444"/>
<path d="M226.695 70.6599C226.695 71.3109 226.159 71.8471 225.508 71.8471C224.857 71.8471 224.321 71.3109 224.321 70.6599C224.321 70.0089 224.857 69.4727 225.508 69.4727C226.159 69.4727 226.695 69.9706 226.695 70.6599Z" fill="white"/>
<path d="M364.753 60.2819C364.753 60.9329 364.217 61.4691 363.566 61.4691C362.915 61.4691 362.379 60.9329 362.379 60.2819C362.379 59.6309 362.915 59.0947 363.566 59.0947C364.217 59.0947 364.753 59.6309 364.753 60.2819Z" fill="#212444"/>
<path d="M96.6049 15.2462C96.6049 15.8973 96.0687 16.4334 95.4177 16.4334C94.7666 16.4334 94.2305 15.8973 94.2305 15.2462C94.2305 14.5952 94.7666 14.0591 95.4177 14.0591C96.0687 14.0591 96.6049 14.5569 96.6049 15.2462Z" fill="#212444"/>
<path d="M930.356 135.419C930.356 136.376 929.59 137.142 928.633 137.142C927.676 137.142 926.91 136.376 926.91 135.419C926.91 134.461 927.676 133.695 928.633 133.695C929.59 133.695 930.356 134.499 930.356 135.419Z" fill="#212444"/>
<path d="M892.481 189.071C892.481 190.028 891.715 190.794 890.758 190.794C889.8 190.794 889.035 190.028 889.035 189.071C889.035 188.114 889.8 187.348 890.758 187.348C891.715 187.348 892.481 188.114 892.481 189.071Z" fill="#212444"/>
<path d="M742.746 220.014C743.698 220.014 744.47 219.242 744.47 218.291C744.47 217.339 743.698 216.567 742.746 216.567C741.795 216.567 741.023 217.339 741.023 218.291C741.023 219.242 741.795 220.014 742.746 220.014Z" fill="#212444"/>
<path d="M742.552 0.655444C742.552 1.61284 741.786 2.37876 740.828 2.37876C739.871 2.37876 739.105 1.61284 739.105 0.655444C739.105 -0.301953 739.871 -1.06787 740.828 -1.06787C741.786 -1.06787 742.552 -0.301953 742.552 0.655444Z" fill="#212444"/>
<path d="M750.173 142.159C752.035 142.159 753.543 140.65 753.543 138.789C753.543 136.927 752.035 135.419 750.173 135.419C748.312 135.419 746.803 136.927 746.803 138.789C746.803 140.65 748.312 142.159 750.173 142.159Z" fill="#212444"/>
<path d="M1078.75 117.764C1078.75 118.874 1077.87 119.755 1076.76 119.755C1075.65 119.755 1074.77 118.874 1074.77 117.764C1074.77 116.653 1075.65 115.772 1076.76 115.772C1077.87 115.772 1078.75 116.653 1078.75 117.764Z" fill="#212444"/>
<path d="M1101.65 284.275C1102.75 284.275 1103.65 283.383 1103.65 282.283C1103.65 281.184 1102.75 280.292 1101.65 280.292C1100.55 280.292 1099.66 281.184 1099.66 282.283C1099.66 283.383 1100.55 284.275 1101.65 284.275Z" fill="#212444"/>
<path d="M971.524 164.6C973.893 164.6 975.813 162.68 975.813 160.311C975.813 157.942 973.893 156.022 971.524 156.022C969.155 156.022 967.235 157.942 967.235 160.311C967.235 162.68 969.155 164.6 971.524 164.6Z" fill="#212444"/>
<path d="M771.006 61.3161C773.375 61.3161 775.296 59.3957 775.296 57.0269C775.296 54.6581 773.375 52.7378 771.006 52.7378C768.638 52.7378 766.717 54.6581 766.717 57.0269C766.717 59.3957 768.638 61.3161 771.006 61.3161Z" fill="#212444"/>
<path d="M853.573 258.003C858.035 258.003 861.653 254.386 861.653 249.923C861.653 245.46 858.035 241.843 853.573 241.843C849.11 241.843 845.492 245.46 845.492 249.923C845.492 254.386 849.11 258.003 853.573 258.003Z" fill="#212444"/>
<path d="M909.185 97.4965C910.947 96.6218 911.666 94.4845 910.792 92.7227C909.917 90.9609 907.78 90.2417 906.018 91.1164C904.256 91.9911 903.537 94.1284 904.411 95.8903C905.286 97.6521 907.423 98.3712 909.185 97.4965Z" fill="#212444"/>
<path d="M483.737 455.753C479.448 454.029 478.95 454.183 476.422 458.051C478.146 453.761 477.992 453.264 474.125 450.736C478.414 452.459 478.912 452.306 481.439 448.438C479.716 452.727 479.869 453.225 483.737 455.753Z" fill="white"/>
<path d="M206.626 632.373C202.145 633.561 201.839 633.944 202.145 638.577C200.958 634.097 200.575 633.79 195.941 634.097C200.422 632.91 200.728 632.527 200.422 627.893C201.609 632.373 202.03 632.641 206.626 632.373Z" fill="#212444"/>
<path d="M410.13 312.335C405.458 308.467 404.807 308.429 400.059 312.296C403.927 307.624 403.965 306.973 400.097 302.263C404.769 306.131 405.42 306.169 410.169 302.301C406.301 306.935 406.263 307.624 410.13 312.335Z" fill="#212444"/>
<path d="M412.238 307.318C406.187 307.854 405.728 308.352 405.077 314.403C404.541 308.352 404.043 307.892 397.992 307.241C404.043 306.705 404.502 306.207 405.153 300.157C405.728 306.207 406.187 306.705 412.238 307.318Z" fill="#212444"/>
<path d="M698.921 544.829C691.301 545.556 690.726 546.169 689.96 553.79C689.233 546.169 688.62 545.595 680.999 544.829C688.62 544.101 689.194 543.488 689.96 535.868C690.688 543.488 691.301 544.101 698.921 544.829Z" fill="#212444"/>
<path d="M696.277 538.51C691.414 544.408 691.414 545.25 696.277 551.148C690.38 546.284 689.537 546.284 683.64 551.148C688.503 545.25 688.503 544.408 683.64 538.51C689.537 543.374 690.38 543.374 696.277 538.51Z" fill="white"/>
<path d="M50.4208 341.938C52.282 341.938 53.7908 340.429 53.7908 338.568C53.7908 336.706 52.282 335.198 50.4208 335.198C48.5596 335.198 47.0507 336.706 47.0507 338.568C47.0507 340.429 48.5596 341.938 50.4208 341.938Z" fill="#212444"/>
<path d="M722.092 615.6C722.092 616.71 721.211 617.591 720.101 617.591C718.99 617.591 718.109 616.71 718.109 615.6C718.109 614.489 718.99 613.608 720.101 613.608C721.211 613.608 722.092 614.489 722.092 615.6Z" fill="#212444"/>
<path d="M626.62 465.901C627.72 465.901 628.612 465.009 628.612 463.91C628.612 462.81 627.72 461.918 626.62 461.918C625.52 461.918 624.629 462.81 624.629 463.91C624.629 465.009 625.52 465.901 626.62 465.901Z" fill="#212444"/>
<path d="M734.191 349.443C735.29 349.443 736.182 348.551 736.182 347.452C736.182 346.352 735.29 345.46 734.191 345.46C733.091 345.46 732.199 346.352 732.199 347.452C732.199 348.551 733.091 349.443 734.191 349.443Z" fill="#212444"/>
<path d="M631.174 604.915C631.174 606.026 630.293 606.906 629.183 606.906C628.072 606.906 627.191 606.026 627.191 604.915C627.191 603.804 628.072 602.924 629.183 602.924C630.293 602.924 631.174 603.804 631.174 604.915Z" fill="#212444"/>
<path d="M428.706 595.494C428.706 596.605 427.825 597.486 426.714 597.486C425.604 597.486 424.723 596.605 424.723 595.494C424.723 594.384 425.604 593.503 426.714 593.503C427.825 593.503 428.706 594.384 428.706 595.494Z" fill="#212444"/>
<path d="M335.913 374.795C337.013 374.795 337.904 373.903 337.904 372.804C337.904 371.704 337.013 370.812 335.913 370.812C334.813 370.812 333.922 371.704 333.922 372.804C333.922 373.903 334.813 374.795 335.913 374.795Z" fill="#212444"/>
<path d="M665.795 667.337C666.895 667.337 667.787 666.446 667.787 665.346C667.787 664.246 666.895 663.355 665.795 663.355C664.695 663.355 663.804 664.246 663.804 665.346C663.804 666.446 664.695 667.337 665.795 667.337Z" fill="#212444"/>
<path d="M681.038 635.207C682.138 635.207 683.029 634.316 683.029 633.216C683.029 632.116 682.138 631.224 681.038 631.224C679.938 631.224 679.047 632.116 679.047 633.216C679.047 634.316 679.938 635.207 681.038 635.207Z" fill="#212444"/>
<path d="M598.702 337.189C599.802 337.189 600.694 336.297 600.694 335.197C600.694 334.097 599.802 333.206 598.702 333.206C597.602 333.206 596.711 334.097 596.711 335.197C596.711 336.297 597.602 337.189 598.702 337.189Z" fill="#212444"/>
<path d="M89.4013 527.481C90.5011 527.481 91.3928 526.589 91.3928 525.49C91.3928 524.39 90.5011 523.498 89.4013 523.498C88.3015 523.498 87.41 524.39 87.41 525.49C87.41 526.589 88.3015 527.481 89.4013 527.481Z" fill="#212444"/>
<path d="M98.3284 483.134C98.3284 483.938 97.6772 484.589 96.873 484.589C96.0688 484.589 95.4178 483.938 95.4178 483.134C95.4178 482.33 96.0688 481.679 96.873 481.679C97.6772 481.679 98.3284 482.33 98.3284 483.134Z" fill="white"/>
<path d="M168.445 286.063C168.445 286.868 167.794 287.519 166.99 287.519C166.186 287.519 165.535 286.868 165.535 286.063C165.535 285.259 166.186 284.608 166.99 284.608C167.794 284.608 168.445 285.259 168.445 286.063Z" fill="#212444"/>
<path d="M56.7765 463.91C57.8763 463.91 58.7678 463.018 58.7678 461.918C58.7678 460.819 57.8763 459.927 56.7765 459.927C55.6767 459.927 54.785 460.819 54.785 461.918C54.785 463.018 55.6767 463.91 56.7765 463.91Z" fill="#212444"/>
<path d="M437.475 392.909C438.575 392.909 439.467 392.018 439.467 390.918C439.467 389.818 438.575 388.926 437.475 388.926C436.375 388.926 435.484 389.818 435.484 390.918C435.484 392.018 436.375 392.909 437.475 392.909Z" fill="#212444"/>
<path d="M295.702 347.452C296.802 347.452 297.694 346.56 297.694 345.46C297.694 344.361 296.802 343.469 295.702 343.469C294.602 343.469 293.711 344.361 293.711 345.46C293.711 346.56 294.602 347.452 295.702 347.452Z" fill="#212444"/>
<path d="M228.186 405.585C229.286 405.585 230.178 404.693 230.178 403.594C230.178 402.494 229.286 401.602 228.186 401.602C227.087 401.602 226.195 402.494 226.195 403.594C226.195 404.693 227.087 405.585 228.186 405.585Z" fill="#212444"/>
<path d="M536.468 312.641C537.568 312.641 538.459 311.749 538.459 310.649C538.459 309.55 537.568 308.658 536.468 308.658C535.368 308.658 534.476 309.55 534.476 310.649C534.476 311.749 535.368 312.641 536.468 312.641Z" fill="#212444"/>
<path d="M514.258 619.889C516.627 619.889 518.548 617.969 518.548 615.6C518.548 613.231 516.627 611.311 514.258 611.311C511.89 611.311 509.969 613.231 509.969 615.6C509.969 617.969 511.89 619.889 514.258 619.889Z" fill="#212444"/>
<path d="M147.883 540.195C150.252 540.195 152.172 538.275 152.172 535.906C152.172 533.537 150.252 531.617 147.883 531.617C145.514 531.617 143.594 533.537 143.594 535.906C143.594 538.275 145.514 540.195 147.883 540.195Z" fill="#212444"/>
<path d="M693.904 302.224C698.367 302.224 701.985 298.607 701.985 294.144C701.985 289.681 698.367 286.064 693.904 286.064C689.442 286.064 685.824 289.681 685.824 294.144C685.824 298.607 689.442 302.224 693.904 302.224Z" fill="#212444"/>
<path d="M326.57 687.673C326.57 688.324 326.034 688.86 325.383 688.86C324.732 688.86 324.195 688.324 324.195 687.673C324.195 687.022 324.732 686.485 325.383 686.485C326.034 686.485 326.57 687.022 326.57 687.673Z" fill="#212444"/>
<path d="M305.125 514.077C305.125 514.728 304.589 515.265 303.938 515.265C303.287 515.265 302.751 514.728 302.751 514.077C302.751 513.426 303.287 512.89 303.938 512.89C304.589 512.89 305.125 513.426 305.125 514.077Z" fill="#212444"/>
<path d="M977.307 345.46C971.793 340.099 970.95 340.022 964.593 344.388C969.955 338.873 970.031 338.031 965.665 331.674C971.18 337.035 972.023 337.112 978.38 332.746C973.018 338.26 972.942 339.103 977.307 345.46Z" fill="#212444"/>
<path d="M1024.14 675.763C1026 675.763 1027.51 674.254 1027.51 672.393C1027.51 670.531 1026 669.022 1024.14 669.022C1022.28 669.022 1020.77 670.531 1020.77 672.393C1020.77 674.254 1022.28 675.763 1024.14 675.763Z" fill="#212444"/>
<path d="M845.021 529.497C845.32 527.66 844.073 525.928 842.236 525.629C840.399 525.331 838.667 526.577 838.368 528.414C838.069 530.251 839.316 531.983 841.153 532.282C842.99 532.581 844.722 531.334 845.021 529.497Z" fill="#212444"/>
<path d="M827.53 314.02C829.391 314.02 830.9 312.511 830.9 310.65C830.9 308.788 829.391 307.28 827.53 307.28C825.668 307.28 824.16 308.788 824.16 310.65C824.16 312.511 825.668 314.02 827.53 314.02Z" fill="#212444"/>
<path d="M1093.3 341.938C1095.16 341.938 1096.67 340.429 1096.67 338.568C1096.67 336.706 1095.16 335.197 1093.3 335.197C1091.44 335.197 1089.93 336.706 1089.93 338.568C1089.93 340.429 1091.44 341.938 1093.3 341.938Z" fill="#212444"/>
<path d="M808.768 617.591C809.868 617.591 810.76 616.699 810.76 615.6C810.76 614.5 809.868 613.608 808.768 613.608C807.668 613.608 806.777 614.5 806.777 615.6C806.777 616.699 807.668 617.591 808.768 617.591Z" fill="white"/>
<path d="M896.464 584.848C897.564 584.848 898.455 583.956 898.455 582.857C898.455 581.757 897.564 580.865 896.464 580.865C895.364 580.865 894.473 581.757 894.473 582.857C894.473 583.956 895.364 584.848 896.464 584.848Z" fill="#212444"/>
<path d="M1099.66 463.91C1100.76 463.91 1101.65 463.018 1101.65 461.918C1101.65 460.818 1100.76 459.927 1099.66 459.927C1098.56 459.927 1097.67 460.818 1097.67 461.918C1097.67 463.018 1098.56 463.91 1099.66 463.91Z" fill="#212444"/>
<path d="M988.26 394.939C988.26 396.049 987.379 396.93 986.268 396.93C985.158 396.93 984.277 396.049 984.277 394.939C984.277 393.828 985.158 392.947 986.268 392.947C987.379 392.947 988.26 393.828 988.26 394.939Z" fill="#212444"/>
<path d="M827.53 375.944C828.63 375.944 829.521 375.052 829.521 373.953C829.521 372.853 828.63 371.961 827.53 371.961C826.43 371.961 825.538 372.853 825.538 373.953C825.538 375.052 826.43 375.944 827.53 375.944Z" fill="#212444"/>
<path d="M827.53 568.19C828.63 568.19 829.521 567.298 829.521 566.198C829.521 565.098 828.63 564.207 827.53 564.207C826.43 564.207 825.538 565.098 825.538 566.198C825.538 567.298 826.43 568.19 827.53 568.19Z" fill="#212444"/>
<path d="M844.956 608.783C847.325 608.783 849.245 606.863 849.245 604.494C849.245 602.125 847.325 600.205 844.956 600.205C842.587 600.205 840.667 602.125 840.667 604.494C840.667 606.863 842.587 608.783 844.956 608.783Z" fill="#212444"/>
<path d="M753.542 378.242C755.911 378.242 757.832 376.321 757.832 373.952C757.832 371.584 755.911 369.663 753.542 369.663C751.174 369.663 749.253 371.584 749.253 373.952C749.253 376.321 751.174 378.242 753.542 378.242Z" fill="#212444"/>
<path fill-rule="evenodd" clip-rule="evenodd" d="M502.649 422.209L499.521 458.646L500.027 464.441C494.035 495.126 482.502 523.88 482.502 523.88C476.643 529.503 452.357 540.495 452.357 540.495L437.857 569.708C429.33 577.977 410.36 581.156 410.36 581.156L410.185 586.491C398.242 584.943 380.211 577.709 380.211 577.709L375.536 561.928C369.845 558.879 349.133 544.487 349.133 544.487L344.597 525.884C344.597 525.884 329.304 511.847 328.345 505.423C328.229 504.689 327.955 502.969 327.548 500.491C324.443 481.552 313.859 418.686 313.859 418.686C313.859 418.686 311.462 413.036 311.769 408.002C312.077 402.968 313.674 387.395 313.674 387.395C313.674 387.395 386.004 368.687 398.374 367.721C410.744 366.755 461.086 367.447 461.086 367.447L462.309 331.195L479.834 311.315C483.418 315.414 485.786 320.785 487.386 325.724C487.495 326.078 487.607 326.432 487.697 326.782L487.713 326.819C488.552 329.669 489.222 332.566 489.72 335.495V335.511L489.767 335.776C490.097 337.846 490.216 339.143 490.216 339.143L489.224 321.162L496.115 310.201C498.536 296.682 498.142 270.062 498.142 270.062L503.32 266.063L504.715 242.331L513.17 240.587L518.236 271.481L522.392 279.284C522.392 279.284 521.367 314.914 520.276 329.875C519.185 344.835 522.944 389.459 522.944 389.459C515.465 410.05 502.649 422.209 502.649 422.209Z" fill="url(#paint0_linear_1_5)"/>
<path fill-rule="evenodd" clip-rule="evenodd" d="M502.648 422.209L499.52 458.646L500.026 464.441C494.034 495.127 482.501 523.88 482.501 523.88C476.642 529.503 452.355 540.495 452.355 540.495L437.856 569.708C429.329 577.977 410.359 581.156 410.359 581.156L410.184 586.491C398.241 584.943 380.21 577.709 380.21 577.709L375.535 561.928C369.844 558.879 349.132 544.487 349.132 544.487L344.595 525.885C344.595 525.885 329.303 511.847 328.344 505.423C328.228 504.689 327.954 502.969 327.547 500.492L337.956 506.617L342.638 498.567L341.375 477.192L347.846 512.078L348.702 535.149L353.612 541.265L370.009 551.063L384.128 563.559L395.41 556.55L397.44 495.219L394.167 486.712L399.077 491.835L403.981 534.891L406.775 558.902L425.467 559.52L437.734 542.734L451.092 528.739L468.035 510.934L477.901 490.82L487.768 467.14L498.607 463.502L491.71 459.923L470.482 461.1L452.868 465.999C452.868 465.999 429.203 471.358 420.464 473.408C411.725 475.459 396.925 475.436 396.925 475.436L365.453 468.334L363.509 459.017L358.013 444.274L357.16 409.822L356.542 389.063L373.511 376.824L410.653 373.937L412.918 384.137L412.379 447.235L421.932 470.299L437.185 465.443L454.177 446.259L457.484 409.425L458.525 377.932C463.796 371.717 467.003 372.362 467.003 372.362L466.752 379.933L469.45 433.319L473.749 418.766L472.885 389.092L479.932 388.14L492.354 385.007L499.298 379.285L490.503 373.993L481.486 382.752L478.014 371.548L476.797 356.757L473.851 336.11L482.937 332.085L487.388 325.754L487.444 325.668L487.699 326.812L487.715 326.848L489.719 335.495V335.511L489.752 335.637V335.776L491.627 370.176L500.713 376.311L500.902 393.723L511.426 386.794L512.828 380.291C512.828 380.291 509.297 366.802 510.263 355.642C511.228 344.482 515.656 327.196 515.656 327.196L516.211 310.353L515.973 285.641L520.556 285.794L517.124 282.975L517.319 277.078C517.319 277.078 514.736 275.02 513.569 272.259C512.402 269.497 512.23 260.536 512.23 260.536L513.665 253.077L513.172 240.578L518.238 271.471L522.394 279.274C522.394 279.274 521.369 314.904 520.278 329.865C519.187 344.826 522.946 389.45 522.946 389.45C515.464 410.05 502.648 422.209 502.648 422.209Z" fill="#0E1020"/>
<path fill-rule="evenodd" clip-rule="evenodd" d="M195.699 488.894C195.699 488.894 199.324 496.362 202.249 500.672C203.915 503.15 205.758 505.502 207.766 507.712L205 511.884L104.246 516.476L8.05078 524.869C8.05078 524.869 13.6423 532.837 15.9438 535.134C18.2452 537.431 21.3929 539.444 21.3929 539.444C21.3929 539.444 23.4123 549.21 24.1387 553.233C24.8651 557.256 23.0254 560.989 23.0254 560.989L27.2689 574.775L164.117 603.491H251.719L429.447 620.439L614.517 629.745V533.514L446.666 509.292L195.699 488.894Z" fill="#14172D"/>
<path fill-rule="evenodd" clip-rule="evenodd" d="M233.724 512.508C233.724 512.508 225.349 508.498 219.965 507.851C214.58 507.205 77.3949 512.209 69.2074 512.508L50.9303 511.083C50.9303 511.083 47.246 507.087 43.5816 507.794C41.26 508.265 39.0117 509.044 36.8968 510.111C36.8968 510.111 35.5588 514.316 34.4006 515.395C33.2423 516.474 28.2899 517.333 28.2899 517.333L24.5031 520.349L18.5997 516.466L12.1395 520.349L8.05078 524.869C8.05078 524.869 17.9607 526.157 20.9736 527.019C23.9865 527.88 70.7226 525.081 84.5041 527.019C98.2855 528.956 113.794 528.959 114.87 530.038C115.946 531.116 130.212 534.033 135.461 533.431C140.711 532.829 193.74 524.869 193.74 524.869L224.271 518.529L233.724 512.508Z" fill="url(#paint1_radial_1_5)"/>
<path fill-rule="evenodd" clip-rule="evenodd" d="M614.815 477.797H372.373C372.373 477.797 366.267 480.419 361.959 480.778C357.65 481.138 307.015 481.777 299.886 481.89C292.757 482.002 273.479 480.921 261.292 481.89C249.106 482.858 233.567 483.453 228.705 484.307C223.842 485.161 210.006 486.597 205.008 487.458C200.011 488.319 194.552 487.458 195.7 488.894C196.848 490.33 208.333 490.617 212.355 492.639C216.376 494.662 234.506 496.083 238.792 497.234C243.078 498.385 266.362 501.544 271.664 503.267C276.966 504.99 281.269 506.426 281.269 506.426C281.269 506.426 235.504 511.597 229.815 513.32C224.127 515.043 218.959 516.476 218.959 516.476C218.959 516.476 150.065 524.522 143.325 527.109C136.585 529.696 132.307 530.854 133.138 532.565C133.969 534.275 158.719 536.013 164.438 536.585C170.156 537.157 195.423 530.555 199.731 532.839C204.04 535.124 208.678 536.585 211.096 538.583C213.515 540.58 221.011 538.87 227.601 540.58C234.191 542.291 340.144 543.742 345.888 544.888C351.632 546.034 356.799 551.495 363.112 552.933C369.425 554.372 614.526 554.656 614.526 554.656L614.815 477.797Z" fill="url(#paint2_radial_1_5)"/>
<path fill-rule="evenodd" clip-rule="evenodd" d="M582.549 555.011L587.915 625.912L525.491 627.395L442.512 620.596L432.38 586.296L424.517 555.003L423.571 588.828L424.517 611.302L410.479 625.91L375.807 618.523L363.104 552.948L345.88 544.903L339.652 581.39L332.483 584.548L335.059 602.777L294.863 603.893L235.983 605.891L227.591 540.6L222.448 539.836L228.484 576.333L213.507 539.469L212.509 589.056L206.6 562.432L194.294 562.162L195.292 532.388L164.405 536.578L166.589 557.765L143.137 560.996L129.907 557.765L113.183 529.586L85.5349 528.22L93.72 545.2L95.7169 554.689L100.709 578.82L77.994 573.998L63.5161 540.211L62.268 532.47L57.7748 526.437L20.9087 527.036L8.05078 524.869C8.05078 524.869 14.2014 533.559 15.9438 535.134C17.6861 536.71 21.3929 539.444 21.3929 539.444L33.5119 540.351L41.8641 545.692L48.1046 554.681L35.2992 557.77L30.3892 561.286L23.4947 562.152L26.7073 571.978L47.3558 581.445L203.804 615.904L388.657 631.551L587.913 633.049L614.517 629.745V554.674L582.549 555.011Z" fill="#0E1020"/>
<path fill-rule="evenodd" clip-rule="evenodd" d="M118.742 560.994L125.694 601.306C125.694 601.306 147.483 609.619 156.13 611.294C164.777 612.97 174.767 607.299 174.767 607.299L190.727 605.881L201.71 598.442L206.613 562.429L179.377 562.145L118.742 560.994Z" fill="#0E1020"/>
<path fill-rule="evenodd" clip-rule="evenodd" d="M118.742 560.994C118.742 560.994 145.147 550.941 148.741 551.228C152.336 551.515 164.398 551.228 164.398 551.228C164.398 551.228 174.163 555.538 180.193 556.114C186.224 556.691 206.608 562.437 206.608 562.437C206.608 562.437 192.592 564.734 188.114 564.734L189.954 567.606C189.954 567.606 180.193 569.331 165.261 567.606C165.261 567.598 152.915 565.016 118.742 560.994Z" fill="url(#paint3_radial_1_5)"/>
<path fill-rule="evenodd" clip-rule="evenodd" d="M276.961 504.99L337.945 504.5L373.92 504.99L416.695 508.985L501.925 515.253H395.952L350.741 513.67L286.534 507.549L276.961 504.99Z" fill="#14172D"/>
<path fill-rule="evenodd" clip-rule="evenodd" d="M128 534.557L164.427 536.575C164.427 536.575 176.611 536.305 195.315 532.385L213.515 539.467L227.59 540.598L230.366 543.822L345.877 544.905L390.06 538.645L412.004 534.557L501.914 515.253L398.889 512.096L381.166 515.253L345.366 513.158L281.256 506.416C281.256 506.416 237.62 511.465 229.802 513.31C221.984 515.155 169.22 522.452 169.22 522.452L118.732 531.346C118.732 531.346 118.382 533.321 128 534.557Z" fill="url(#paint4_radial_1_5)"/>
<path fill-rule="evenodd" clip-rule="evenodd" d="M528.383 515.51L614.516 512.743L614.813 522.452L528.383 515.51Z" fill="#0E1020"/>
<path fill-rule="evenodd" clip-rule="evenodd" d="M424.52 555.011L454.416 557.762H469.019L499.567 556.387L514.737 557.161L535.36 557.762L544.01 563.001L563.305 562.142L579.718 560.427L585.262 555.011L603.224 554.044L614.519 554.674L538.688 547.41L498.674 551.22H460.462L424.52 555.011Z" fill="url(#paint5_radial_1_5)"/>
<path fill-rule="evenodd" clip-rule="evenodd" d="M85.5742 528.218L96.0881 527.134L103.572 525.663L115.548 526.939L133.024 528.218L153.473 524.874L118.744 531.346L113.721 530.462L111.557 531.346L85.5742 528.218Z" fill="#14172D"/>
<path fill-rule="evenodd" clip-rule="evenodd" d="M345.878 544.905L365.715 542.086L390.07 538.645L416.867 533.514L382.669 537.451L333.616 544.238L342.705 560.994L345.878 544.905Z" fill="#0E1020"/>
<path fill-rule="evenodd" clip-rule="evenodd" d="M372.373 477.797L410.854 481.79L414.062 485.787L398.141 484.541H369.697L348.492 481.79L372.373 477.797Z" fill="url(#paint6_radial_1_5)"/>
<path fill-rule="evenodd" clip-rule="evenodd" d="M68.3405 247.243C68.3405 247.243 65.7309 260.135 66.0274 263.21C66.3238 266.284 72.2204 273.126 72.2204 273.126C72.2204 273.126 78.4375 286.514 80.4111 293.061C82.3846 299.608 89.1102 307.936 89.1102 307.936C89.1102 307.936 129.378 314.185 140.381 314.185C151.385 314.185 156.928 309.028 156.928 309.028C156.928 309.028 172.456 282.054 173.82 280.714C175.183 279.374 182.917 276.6 182.917 276.6C182.917 276.6 195.499 253.87 196.489 247.88L161.499 249.326L68.3405 247.243Z" fill="url(#paint7_linear_1_5)"/>
<path fill-rule="evenodd" clip-rule="evenodd" d="M68.3398 247.243L84.878 245.174L94.489 243.54C94.489 243.54 139.993 243.662 153.07 244.417C153.07 244.417 163.975 240.007 166.95 239.912C169.925 239.817 175.649 245.174 175.649 245.174L196.492 247.892C196.492 247.892 186.975 251.206 179.64 251.066L186.632 253.421C186.632 253.421 184.993 254.801 182.218 255.637C179.443 256.473 158.589 257.094 148.694 256.983C138.798 256.873 134.458 253.421 134.458 253.421L138.993 251.697L133.65 251.062C133.65 251.062 117.461 253.895 111.277 254.095C105.093 254.295 97.1623 252.781 97.1623 252.781L96.5677 250.673C96.5677 250.673 79.7727 249.728 68.3398 247.243Z" fill="url(#paint8_radial_1_5)"/>
<path fill-rule="evenodd" clip-rule="evenodd" d="M92.6478 250.404V259.399L83.5126 260.951C83.5126 260.951 83.111 261.123 82.1078 263.71C81.1047 266.296 76.4509 272.676 76.4509 272.676L72.2194 273.138L75.6063 280.724C75.6063 280.724 80.4928 280.774 82.4319 281.98C84.3709 283.185 88.68 286.788 88.68 286.788L91.2654 293.872C91.2654 293.872 93.8509 280.768 94.0232 278.698C94.1956 276.629 96.7052 267.739 96.3122 266.239C95.9192 264.739 96.4673 258.88 96.4673 258.88L97.1568 252.776C97.1568 252.776 110.387 254.571 111.765 255.089C113.142 255.606 113.745 261.123 113.745 261.123L118.254 271.522L113.204 286.695L115.162 299.574L115.779 309.259L122.965 316.952H128.653C128.653 316.952 133.306 291.79 133.651 290.24C133.996 288.69 132.424 285.068 132.424 285.068L134.687 269.258L134.465 253.406L139 251.682L133.656 251.047C133.656 251.047 116.846 253.564 114.064 253.821C111.282 254.078 97.1344 251.459 97.1344 251.459L105.618 249.39L92.6478 250.404Z" fill="#0C0E1C"/>
<path fill-rule="evenodd" clip-rule="evenodd" d="M165.209 256.99L176.543 258.887L174.737 263.22L169.823 275.081L163.895 280.719L157.245 283.181L152.074 286.783H156.556L156.211 291.585L153.808 303.024L153.69 311.165L156.728 310.75C156.728 310.75 168.859 288.77 173.821 280.719C173.821 280.719 182.064 278.171 182.919 276.605C183.774 275.04 195.427 253.257 196.491 247.885L179.647 251.059L186.64 253.414C186.64 253.414 181.717 255.608 178.443 256.125C175.168 256.642 165.209 256.99 165.209 256.99Z" fill="#0C0E1C"/>
<path fill-rule="evenodd" clip-rule="evenodd" d="M153.071 244.411L149.41 246.209C149.41 246.209 152.082 246.811 153.631 247.243C155.181 247.676 163.692 246.985 165.209 246.554C166.726 246.123 172.322 244.405 172.322 244.405L172.622 242.652C172.622 242.652 168.444 238.912 167.183 239.115C165.921 239.319 155.281 243.321 153.071 244.411Z" fill="url(#paint9_radial_1_5)"/>
<path fill-rule="evenodd" clip-rule="evenodd" d="M176.169 245.236L172.622 247.243L167.069 247.38H155.238C155.238 247.38 164.338 246.602 165.703 246.304C167.069 246.005 172.322 244.407 172.322 244.407L172.622 242.653L176.169 245.236Z" fill="#0E1020"/>
<path fill-rule="evenodd" clip-rule="evenodd" d="M92.6484 259.399L96.468 268.36L97.1247 251.471L105.608 249.404L92.6484 250.404V259.399Z" fill="#0E1020"/>
<path fill-rule="evenodd" clip-rule="evenodd" d="M179.648 251.059L186.641 253.414L183.621 275.312C183.621 275.312 193.024 257.38 196.5 247.876L179.648 251.059Z" fill="#0E1020"/>
<path fill-rule="evenodd" clip-rule="evenodd" d="M114.055 253.833L122.968 262.484L128.48 268.36L129.602 273.386L134.543 270.236L134.461 253.414L138.996 251.694L133.647 251.059L114.055 253.833Z" fill="#0E1020"/>
<path d="M-245.267 55.7065C-132.893 93.495 80.705 166.817 194.962 215.921C354.717 284.561 577.077 343.746 592.737 374.523C608.396 405.3 539.487 402.94 649.118 431.357C758.748 459.774 1053.16 613.62 1184.71 656.233C1209.56 664.283 1234.31 673.768 1258.09 683.869H979.309C927.645 652.871 882.732 627.036 858.947 615.986C777.527 578.108 577.066 504.732 533.212 488.161C489.358 471.589 511.301 455.015 467.447 426.622C423.594 398.229 144.844 312.969 22.6869 258.513C-55.7356 223.573 -193.473 167.161 -282.098 131.254V55.7065H-245.267Z" fill="url(#paint10_linear_1_5)"/>
<path d="M348.767 -70.8065C450.385 -18.5221 612.796 74.3323 659.134 154.862C728.099 274.688 712.03 240.558 812.209 293.623C912.389 346.689 1011.36 450.413 977.652 445.367C943.945 440.321 823.857 336.102 731.296 316.961C638.735 297.819 575.752 279.405 468.459 171.307C385.958 88.1407 94.28 -30.0409 -36.0739 -80.2007L348.767 -70.8065Z" fill="url(#paint11_linear_1_5)"/>
<path d="M286.122 11.8738C286.403 -1.71828 290.995 -15.6619 286.918 -29.0197C283.498 -40.2449 274.104 -49.1969 264.148 -54.8446C252.528 -61.4063 238.871 -60.3284 227.087 -66.2808C221.488 -69.1163 217.342 -74.0611 212.235 -77.5997C207.034 -81.2086 201.576 -83.6927 195.367 -84.9582C184.826 -87.0907 173.042 -84.7707 163.437 -80.2478C157.838 -77.5997 152.427 -74.6704 146.617 -72.4909C140.877 -70.335 134.74 -69.421 128.977 -67.3353C119.512 -63.8904 111.266 -57.3522 105.128 -49.4547C102.317 -45.8692 101.778 -41.0416 101.193 -36.6593C101.076 -35.8157 100.935 -34.9955 100.724 -34.1753C94.6334 -24.8717 85.9422 -17.6538 79.617 -8.30341C72.0971 2.80461 70.9961 16.7248 72.4251 29.7076C73.9009 42.995 83.1076 54.6421 92.1034 64.0159C96.9995 69.1247 101.38 74.6553 106.581 79.5062C111.5 84.0994 114.054 90.5674 117.709 96.1214C124.736 106.808 136.169 109.69 148.186 106.409C154.418 104.698 160.251 101.886 166.365 99.8475C174.635 97.1057 182.811 98.2071 191.127 99.9413C205.511 102.917 219.145 103.035 233.482 99.6132C245.196 96.8479 257.706 92.7234 267.826 86.0914C291.955 70.2027 285.63 36.2693 286.122 11.8738Z" fill="url(#paint12_radial_1_5)"/>
<path opacity="0.35" d="M286.098 12.4601C286.449 -1.13202 291.134 -15.0288 287.128 -28.4334C283.778 -39.682 274.431 -48.7044 264.498 -54.3756C252.902 -61.0076 239.245 -60.0233 227.508 -66.0226C221.932 -68.8816 217.809 -73.8732 212.726 -77.4352C207.549 -81.0676 202.09 -83.5986 195.882 -84.864C185.34 -87.0435 173.557 -84.7937 163.928 -80.3177C158.306 -77.693 152.871 -74.7871 147.061 -72.6546C141.298 -70.5455 135.161 -69.6549 129.374 -67.5927C119.886 -64.1947 111.617 -57.7033 105.409 -49.8292C102.574 -46.2437 102.035 -41.4396 101.403 -37.0573C101.286 -36.2137 101.122 -35.3935 100.934 -34.5733C94.7966 -25.3166 86.0585 -18.1221 79.6865 -8.81858C72.1197 2.24257 70.925 16.1628 72.3072 29.1456C73.7128 42.4564 82.8491 54.1503 91.798 63.5711C96.6707 68.7032 101.005 74.2573 106.182 79.1317C111.078 83.7483 113.608 90.2397 117.216 95.8171C124.173 106.55 135.606 109.503 147.623 106.292C153.855 104.629 159.735 101.84 165.849 99.8479C174.119 97.1529 182.295 98.3012 190.611 100.082C204.995 103.152 218.606 103.316 232.966 99.9885C244.68 97.2701 257.236 93.2393 267.38 86.6308C291.626 70.8124 285.489 36.8321 286.098 12.4601ZM238.472 -31.6205C236.668 -28.5974 233.201 -27.2382 230.108 -25.879C225.517 -23.8636 221.909 -21.4733 219.098 -17.1848C216.263 -12.8728 214.085 -8.13898 211.625 -3.59266C209.751 -0.147766 207.806 4.00017 204.503 6.3202C202.442 7.74971 200.099 8.56992 198.037 9.95257C195.062 11.9211 194.945 14.5223 194.242 17.6626C193.446 21.2246 191.478 22.7713 187.987 23.5447C178.101 25.7241 168.614 31.5593 164.748 41.1675C171.355 38.1913 178.429 34.6292 185.692 36.9493C186.441 37.2071 186.441 38.2382 185.692 38.4725C176.86 41.2613 168.332 51.6428 166.107 60.5246C165.146 64.3913 164.936 75.6633 158.493 75.1712C154.651 74.8666 151.348 72.4528 147.741 71.3513C142.798 69.8047 137.339 69.0547 132.396 71.1404C129.936 72.1716 127.43 74.9603 124.642 74.5385C121.011 73.9995 120.823 68.422 116.607 68.5626C113.538 68.6798 110.727 69.5235 108.056 67.4612C105.409 65.4224 103.254 62.9383 100.911 60.5948C94.9137 54.619 87.8623 49.0181 82.8022 42.1987C76.1959 33.3169 74.6498 21.1075 76.1491 10.3744C76.5708 7.30447 77.297 4.16421 78.3043 1.21145C80.7641 -5.98299 85.59 -12.0994 90.9781 -17.3488C93.8127 -20.1141 97.3267 -21.9186 100.536 -24.1449C105.409 -27.5194 104.706 -31.9017 104.636 -37.1979C104.636 -37.8307 105.549 -38.3228 105.994 -37.7604C108.337 -34.8779 109.087 -31.3627 109.954 -27.871C111.172 -34.4092 112.624 -42.0723 118.926 -45.1657C120.683 -46.0328 124.501 -48.3763 126.516 -47.5561C129.116 -46.5015 130.756 -44.0877 132.771 -42.1895C131.693 -45.6813 130.264 -49.0793 129.304 -52.6414C129.187 -53.0866 129.444 -53.485 129.866 -53.6022C133.31 -54.8442 134.551 -59.2031 138.065 -60.1639C139.424 -60.5389 140.783 -60.6092 142.165 -60.5389C141.486 -61.3122 140.783 -62.0621 139.986 -62.7652C139.494 -63.187 139.822 -63.89 140.338 -64.1009C142.587 -64.968 145.07 -65.6711 147.085 -67.0303C145.679 -67.1006 144.273 -67.0068 142.844 -66.9834C141.884 -66.96 141.861 -68.2254 142.634 -68.5301C155.284 -73.7794 166.716 -81.7472 180.772 -82.5674C185.528 -82.8487 191.595 -82.38 194.43 -77.9274C196.397 -74.8574 194.57 -68.1786 193.375 -65.1086C193.118 -64.4525 192.017 -64.265 191.853 -65.1086C191.431 -67.4521 191.244 -69.7955 191.103 -72.1624C190.588 -69.7955 189.932 -67.4521 188.878 -65.2492C188.69 -64.8508 188.151 -64.7571 187.8 -64.968C185.106 -66.4913 182.412 -68.0614 179.741 -69.6784C179.999 -69.0691 180.257 -68.4598 180.538 -67.8505C180.819 -67.2177 180.163 -66.2569 179.46 -66.7725C176.743 -68.7644 169.363 -71.6469 166.622 -68.202C164.116 -65.0617 169.176 -60.4217 170.324 -57.5861C170.441 -57.2814 170.253 -56.8362 169.949 -56.6956C165.17 -54.3521 158.001 -53.7194 155.19 -48.7278C160.414 -46.9468 166.88 -48.1419 172.104 -49.0559C174.611 -49.4777 177.117 -49.9464 179.601 -50.4385C180.819 -50.6729 182.529 -51.2353 183.7 -50.5557C186.746 -48.7747 184.333 -43.6659 183.044 -41.5802C181.147 -38.4869 179.109 -35.5575 177.633 -32.3938C177.609 -32.1595 177.563 -31.9017 177.586 -31.6674C183.396 -33.7999 186.582 -39.8226 191.501 -43.3378C191.923 -43.6425 192.532 -43.3144 192.673 -42.8691C193.094 -41.5568 193.071 -40.1273 193.141 -38.7681C193.211 -37.7838 193.212 -36.7527 193.422 -35.7919C193.75 -34.2452 195.109 -34.5967 195.578 -35.9325C196.538 -38.7446 196.796 -41.9552 198.248 -44.6033C198.998 -45.9625 200.169 -47.3686 201.879 -46.5952C204.573 -45.3766 206.073 -43.1035 209.048 -42.7754C208.486 -44.3924 207.502 -45.6813 206.354 -47.0405C205.698 -47.8138 206.705 -48.8215 207.478 -48.1419C212.492 -43.8065 218.161 -40.1742 224.533 -38.2056C229.218 -36.7527 234.208 -35.6747 238.261 -32.7922C238.518 -32.4407 238.706 -31.9955 238.472 -31.6205Z" fill="#171B34"/>
<path d="M147.608 94.3489C142.267 93.238 138.384 89.582 138.306 85.7885C138.101 86.1793 137.967 86.5231 137.881 86.9386C137.018 91.0935 141.121 95.4765 147.056 96.7108C152.99 97.9451 158.5 95.5615 159.363 91.4066C159.45 90.9911 159.477 90.5633 159.432 90.1825C157.967 93.6551 152.949 95.4597 147.608 94.3489Z" fill="#171B34"/>
<path d="M150.247 81.646C144.381 80.4257 139.034 82.28 138.305 85.7877C137.576 89.2954 141.741 93.1282 147.608 94.3485C153.475 95.5688 158.821 93.7146 159.55 90.2069C160.279 86.6992 156.114 82.8663 150.247 81.646Z" fill="#0B0D19"/>
<path d="M112.925 79.7095C112.756 78.4359 113.002 77.2488 113.581 76.2544C112.656 77.4245 112.217 78.9431 112.383 80.5258C112.788 83.6442 115.672 85.8541 118.789 85.4499C120.693 85.2266 122.235 84.0613 123.043 82.5573C122.131 83.6681 120.841 84.5143 119.259 84.6806C116.213 85.0378 113.329 82.8279 112.925 79.7095Z" fill="#171B34"/>
<path d="M117.38 74.0716C115.857 74.2502 114.507 75.0842 113.596 76.1949C113.018 77.1893 112.759 78.4359 112.94 79.6501C113.344 82.7685 116.228 84.9784 119.346 84.5742C120.869 84.3956 122.218 83.5617 123.13 82.4509C123.708 81.4565 123.967 80.21 123.786 78.9958C123.381 75.8773 120.497 73.6674 117.38 74.0716Z" fill="#0B0D19"/>
<path opacity="0.6" d="M105.083 -26.3716C101.452 -23.6297 98.6404 -20.0911 94.939 -17.3493C91.8702 -15.0995 89.1527 -12.5686 86.6461 -9.70955C80.8831 -3.14784 78.0954 4.89023 77.3457 13.4673C76.5258 22.6537 79.1027 31.5589 83.9754 39.2689C86.6695 43.534 90.16 47.0023 93.5803 50.6347C96.2743 53.5171 98.6639 56.7511 101.99 58.9305C102.225 59.0946 102.787 58.579 102.553 58.3447C91.3314 46.1118 80.0866 33.7383 79.3838 16.2795C79.009 6.88218 82.195 -1.76521 87.9814 -9.10025C90.488 -12.2639 93.7209 -14.8652 96.8132 -17.4196C99.9758 -20.0677 102.201 -23.4891 105.294 -26.1138C105.551 -26.3247 105.317 -26.5356 105.083 -26.3716Z" fill="#0B0D19"/>
<path opacity="0.7" d="M256.391 77.1626C253.229 78.3812 250.16 79.7873 247.115 81.2871C244.046 82.8104 240.625 84.4508 237.674 86.5834C235.284 87.6379 232.918 89.419 231.817 91.4343C229.99 94.8089 235.542 94.5277 237.439 94.2934C243.53 93.6138 249.621 90.9188 254.962 88.0597C258.968 85.9038 265.036 82.2714 267.355 78.2172C271.08 71.5852 258.336 76.4127 256.391 77.1626Z" fill="#0C0E16"/>
<g opacity="0.7">
<path opacity="0.7" d="M90.8606 11.9675C90.556 11.9675 90.228 11.9909 89.9235 11.9909C89.5252 11.9675 89.3847 11.8035 89.0801 11.6394C88.8693 11.5457 88.6116 11.8035 88.5413 11.9675C88.2133 12.9752 90.1109 12.6237 90.6028 12.6002C90.8605 12.6002 91.2588 11.9675 90.8606 11.9675Z" fill="#0B0D19"/>
</g>
<path opacity="0.7" d="M259.439 40.4642C258.548 40.5345 257.705 41.1672 257.073 41.7531C256.417 42.3858 255.808 43.1826 255.737 44.0965C255.714 44.3309 255.854 44.6355 256.089 44.7058C256.885 44.9402 257.611 44.7527 258.314 44.284C258.9 43.909 259.977 42.9248 259.813 42.0812C259.954 41.7999 260.071 41.5187 260.141 41.2375C260.282 40.7219 259.977 40.4407 259.439 40.4642Z" fill="#0B0D19"/>
<path opacity="0.7" d="M278.132 12.0613C276.984 10.21 274.548 10.4678 273.095 11.8036C271.83 12.9753 271.128 14.3345 270.519 15.8109C269.277 17.7325 268.457 20.0291 268.316 21.3649C268.199 22.396 268.293 23.6615 268.644 24.8098C268.668 24.9973 268.691 25.1847 268.738 25.3722C269.16 27.5282 271.596 29.0046 273.541 27.6922C275.11 27.3876 276.469 26.4502 277.546 25.1379C280.381 21.7164 280.404 15.7171 278.132 12.0613Z" fill="#0C0E16"/>
<path opacity="0.7" d="M273.308 -0.429089C273.097 -0.73374 272.723 -0.73374 272.395 -0.663436C271.832 -0.546263 271.247 -0.0306947 271.294 0.602041C271.223 0.789518 271.2 0.976995 271.153 1.18791C271.106 1.49256 271.434 1.63317 271.692 1.5863C272.067 1.53943 272.348 1.25821 272.535 0.953561C272.559 0.906691 272.582 0.859822 272.605 0.836387C272.676 0.789518 272.746 0.766083 272.816 0.719214C273.168 0.508302 273.613 -0.00726569 273.308 -0.429089Z" fill="#0B0D19"/>
<path d="M255.104 -7.36602C246.882 -4.01487 237.816 3.46078 236.902 12.8815C236.621 12.3894 236.293 11.991 235.942 11.616C236.059 9.10854 236.176 6.6479 236.902 4.16383C236.996 3.85918 236.551 4.04665 236.48 4.23413C235.707 6.29638 235.215 8.52266 234.981 10.7724C233.318 9.60065 231.209 9.27258 228.82 9.38975C227.086 9.27258 225.4 9.41318 223.736 9.7647C223.385 8.26488 223.104 6.76507 223.104 5.05434C223.104 2.61714 223.596 -2.09323 225.353 -4.0383C225.61 -4.34295 225.259 -4.48357 225.025 -4.29609C222.682 -2.37445 222.096 1.70319 221.675 4.51535C221.511 5.64021 221.277 8.21802 221.628 10.3271C219.028 11.1474 216.521 12.4128 214.014 13.8892C210.711 15.8577 207.549 18.0371 204.62 20.4743C204.433 20.3103 204.245 20.1462 204.082 19.9588C203.519 19.3729 202.957 18.787 202.418 18.1777C201.879 17.5684 201.317 17.006 200.661 16.5139C200.099 16.0921 199.42 15.764 198.904 15.2718C198.693 15.0609 198.178 15.5062 198.365 15.7405C198.74 16.2092 199.209 16.5139 199.63 16.9123C200.31 17.5684 200.895 18.2246 201.481 18.9745C202.02 19.6776 202.606 20.3572 203.168 21.0602C203.285 21.2008 203.379 21.318 203.472 21.4352C203.168 21.7164 202.887 21.9976 202.606 22.2554C202.395 22.0913 202.207 21.9273 202.043 21.7398C201.551 21.2477 201.106 20.7087 200.521 20.3103C200.333 20.1931 199.912 20.5915 200.099 20.7556C200.638 21.2477 201.036 21.8804 201.481 22.4663C201.598 22.6303 201.739 22.7944 201.879 22.9584C200.731 24.0598 199.607 25.1847 198.553 26.3799C196.444 25.6065 193.493 25.8174 191.689 25.8877C186.933 26.0986 183.208 27.3407 179.039 29.4732C178.851 29.567 178.804 29.9185 179.085 29.8013C183.607 27.9969 187.589 27.1298 192.485 27.2704C194.078 27.3173 195.648 27.575 197.171 28.0203C197.1 28.114 197.03 28.1843 196.96 28.2781C194.172 31.8167 191.783 36.2927 191.009 40.8625C188.55 41.378 185.832 42.7841 184.286 44.0965C182.693 45.4322 181.311 46.8852 180.046 48.549C179.062 49.8614 178.64 52.2752 177.516 53.3532C177.399 53.4703 177.375 53.7281 177.61 53.6344C179.296 52.9313 180.585 49.5802 181.686 48.2913C184.263 45.3151 187.308 43.7918 190.775 42.6201C190.728 43.2528 190.705 43.8855 190.728 44.5183C190.775 45.8072 191.08 46.8852 191.548 47.8226C190.846 48.1038 190.143 48.76 189.744 49.1584C188.854 50.1192 188.175 51.2675 187.308 52.2283C187.027 52.5564 187.425 52.7673 187.706 52.5095C188.386 51.8533 188.971 51.1269 189.604 50.4004C189.955 49.9786 190.354 49.627 190.775 49.2755C191.15 48.9709 191.642 48.8303 192.064 48.6193C192.649 49.4396 193.399 50.1426 194.266 50.6816C193.704 50.9863 193.212 51.5721 192.977 52.0877C192.86 52.322 192.72 52.5564 192.556 52.7907C192.462 52.9313 192.275 53.0954 192.368 53.2594C192.368 53.2594 192.368 53.2594 192.368 53.2829C192.392 53.3297 192.509 53.3297 192.556 53.3297C192.93 53.2594 193.212 52.7907 193.422 52.4861C193.844 51.9002 194.359 51.5252 194.875 51.0566C197.241 52.3689 200.286 52.861 202.98 52.861C208.064 52.8845 213.78 52.2986 219.121 50.7285C219.215 51.4315 219.566 52.0877 219.918 52.7204C220.433 53.6812 220.761 54.7124 221.534 55.5091C221.745 55.7201 222.284 55.2982 222.143 55.0639C221.651 54.1968 221.534 53.1891 221.347 52.2049C221.23 51.6659 220.972 51.1503 220.808 50.5879C220.761 50.4707 220.738 50.3301 220.714 50.2129C227.531 47.9163 233.505 43.8621 236.387 37.1832C237.933 33.5977 238.729 29.7545 238.917 25.8877C239.221 25.7237 239.502 25.5597 239.83 25.4659C240.299 25.3019 240.791 25.2081 241.259 25.091C241.517 25.0207 241.892 24.4348 241.423 24.5051C240.557 24.6223 239.69 24.6691 238.94 25.091C238.964 23.8489 238.94 22.5835 238.846 21.318C239.549 20.6149 240.58 20.1931 241.47 19.8182C242.103 19.5604 242.712 19.2557 243.344 18.9745C243.672 18.8339 244 18.6933 244.328 18.5761C244.071 18.6699 246.554 17.8731 245.336 18.4824C245.265 18.5058 245.242 18.6464 245.359 18.5996C245.898 18.3652 245.734 18.459 246.249 18.1543C246.32 18.1074 246.437 17.9668 246.319 17.8965C244.773 16.9357 242.103 18.3652 240.627 18.9511C240.158 19.1386 239.409 19.4666 238.706 19.9119C238.565 18.7636 238.401 17.6153 238.167 16.4904C238.12 16.2092 238.05 15.9749 237.98 15.7171C239.385 11.1005 240.252 6.74164 243.18 2.71088C246.32 -1.64797 250.771 -4.03831 255.128 -6.92077C255.409 -6.99108 255.526 -7.5535 255.104 -7.36602ZM234.63 35.9881C230.788 48.0335 216.076 49.7911 205.253 50.7519C199.513 51.2675 193.516 49.5567 192.766 43.2528C192.86 43.3231 192.954 43.3934 193.048 43.4637C195.39 46.1821 201.856 46.5571 204.737 46.6977C209.774 46.9789 214.694 44.0262 218.84 41.5187C222.846 39.1283 228.656 35.9412 231.233 31.9339C232.943 29.2623 233.599 26.3799 234.302 23.3099C234.841 20.943 234.723 18.2246 235.075 15.8108C235.356 16.6311 235.59 17.4044 235.778 18.084C237.347 23.9427 236.457 30.27 234.63 35.9881Z" fill="#0B0D19"/>
<path d="M124.409 2.92156C120.474 3.97612 115.601 5.07755 111.525 4.96038C108.667 4.86664 105.996 4.58543 103.138 4.65573C102.997 1.56236 102.412 -1.39041 101.217 -4.01509C102.295 -4.31974 103.372 -4.41348 104.497 -4.55408C105.832 -4.71813 107.191 -5.18682 108.526 -5.49147C108.784 -5.56177 109.159 -6.14764 108.69 -6.07734C107.238 -5.84299 105.762 -5.51491 104.286 -5.35087C103.115 -5.23369 101.92 -5.23369 100.889 -4.62438C100.819 -4.76499 100.748 -4.90561 100.678 -5.04622C101.006 -5.09309 101.358 -5.13995 101.709 -5.21025C102.248 -5.32742 102.763 -5.51491 103.255 -5.81956C103.583 -6.00704 103.536 -6.47573 103.115 -6.24138C102.482 -5.9133 101.709 -5.74926 101.006 -5.74926C100.748 -5.74926 100.538 -5.72582 100.327 -5.65551C100.092 -6.03047 99.8348 -6.35855 99.5537 -6.6632C99.8348 -6.6632 100.116 -6.6632 100.397 -6.7335C101.756 -6.96785 103.044 -7.90524 104.262 -8.46767C106.137 -9.35819 108.221 -10.8111 109.041 -12.8031C109.159 -13.0609 108.76 -12.9671 108.667 -12.8265C107.167 -10.7643 102.388 -8.84263 99.9051 -9.05354C98.3823 -9.19415 97.211 -8.9598 96.2271 -8.04585C95.5243 -7.95211 94.8215 -7.57716 94.189 -6.87412C92.5257 -4.99935 91.4481 -2.86679 90.6985 -0.640494C86.1069 7.44446 84.467 19.1149 86.0366 27.3639C86.4348 29.4262 87.5124 33.8787 90.3236 33.9725C91.4247 34.7224 93.1817 35.2614 93.6736 35.4489C95.2901 36.105 96.8596 36.9018 98.3823 37.7455C100.631 38.9641 101.451 40.792 103.044 42.5964C103.208 42.8074 103.606 42.4324 103.56 42.2215C103.115 40.7217 102.552 39.339 101.732 38.0032C101.053 36.8784 98.968 36.1519 97.867 35.6129C96.274 34.8161 94.6575 34.2303 92.9708 33.6444C92.8771 33.621 92.6663 33.5507 92.3852 33.4804C94.2124 32.6367 95.618 30.7854 96.7425 28.8637C97.375 29.0746 98.031 29.2621 98.64 29.473C100.069 29.9417 101.147 30.8088 102.435 31.4884C102.669 31.629 103.138 31.1369 102.857 30.9494C101.615 30.1526 100.678 29.2621 99.296 28.6528C98.6401 28.3716 97.9841 28.0904 97.3281 27.8092C97.7967 26.9421 98.195 26.075 98.5464 25.3485C98.6869 25.0673 98.804 24.7861 98.9446 24.5049C99.7645 24.6924 100.584 24.8798 101.404 25.0439C103.888 25.5594 106.465 26.3562 108.971 26.6374C109.299 26.6609 109.814 26.0516 109.346 25.9344C108.058 25.6532 106.839 24.9501 105.574 24.5518C104.45 24.2002 103.278 23.9893 102.154 23.6847C101.404 23.4972 100.514 23.1457 99.6474 22.8879C100.702 20.3335 101.592 17.4511 102.224 14.4749C102.388 14.3577 102.646 14.053 102.388 13.9593C102.365 13.9593 102.341 13.9358 102.318 13.9358C102.623 12.3892 102.833 10.819 102.974 9.24892C103.677 9.27235 104.356 9.27236 105.036 9.34266C106.371 9.48327 107.659 9.83479 108.995 9.88166C109.252 9.88166 109.697 9.3661 109.299 9.31923C108.011 9.17863 106.792 8.70992 105.504 8.47558C104.708 8.31153 103.864 8.26467 103.021 8.26467C103.044 7.67881 103.068 7.09294 103.091 6.50707C103.56 6.57738 104.098 6.55394 104.825 6.60081C107.074 6.76485 109.393 7.09294 111.665 7.04607C115.624 6.95233 120.638 4.91351 124.245 3.43713C124.526 3.36682 124.784 2.82782 124.409 2.92156ZM99.952 -2.86679C97.5624 2.54662 94.4936 7.32729 93.1583 13.1859C91.9869 18.3884 92.8303 24.7158 94.0719 29.8714C92.432 31.5118 90.5579 32.0508 89.1523 28.9106C88.1684 26.6843 88.0513 24.1065 88.0513 21.6459C88.1215 21.6459 88.1918 21.599 88.2621 21.5287C88.918 21.5521 89.6911 21.4115 90.0659 21.3178C90.3236 21.2475 90.5579 21.06 90.6516 20.8022C90.6984 20.6382 90.6516 20.521 90.511 20.4741V20.4507C89.738 20.2163 88.7774 20.4273 88.0747 19.9351C88.0512 19.9117 88.0278 19.9117 88.0044 19.9117C88.0044 19.068 88.0278 18.1541 88.0513 17.2401C88.6603 17.123 89.2694 16.8886 89.7848 16.6543C90.1128 16.5137 90.3705 15.8106 89.8082 15.9981C89.2694 16.1856 88.6603 16.3496 88.0747 16.3496C88.2152 13.4906 88.5198 10.4441 89.1055 7.46789C89.1289 7.63193 89.4568 7.44446 89.4802 7.32729C90.4876 3.69492 91.7058 0.343753 93.2051 -3.12458C95.3369 -8.06929 98.3355 -5.88986 100.092 -3.0777C100.069 -3.0074 99.9988 -2.93709 99.952 -2.86679Z" fill="#0B0D19"/>
<g opacity="0.6">
<path d="M696.698 180.334C693.743 184.081 689.506 187.014 687.821 191.618C686.404 195.486 687.14 199.983 688.734 203.673C690.599 207.971 694.653 210.562 696.693 214.725C697.661 216.705 697.776 218.968 698.458 221.04C699.151 223.152 700.154 225.004 701.625 226.673C704.126 229.503 707.917 231.349 711.564 232.117C713.693 232.561 715.828 232.887 717.917 233.507C719.981 234.119 721.893 235.162 723.948 235.799C727.328 236.839 731.021 236.754 734.412 235.842C735.958 235.433 737.13 234.196 738.222 233.092C738.433 232.881 738.646 232.681 738.879 232.496C742.553 231.18 746.515 231 750.265 229.721C754.722 228.203 757.976 224.537 760.323 220.599C762.722 216.565 762.608 211.353 762.072 206.823C761.782 204.355 761.726 201.879 761.296 199.419C760.89 197.091 761.543 194.738 761.695 192.409C761.988 187.928 759.396 184.699 755.336 183.073C753.229 182.232 751 181.784 748.856 181.06C745.96 180.077 743.903 178.037 741.941 175.79C738.542 171.91 734.748 168.99 730.009 166.911C726.143 165.205 721.766 163.711 717.529 163.425C707.408 162.764 701.999 173.607 696.698 180.334Z" fill="url(#paint13_radial_1_5)"/>
<path opacity="0.35" d="M696.831 180.175C693.856 183.907 689.603 186.807 687.888 191.409C686.446 195.269 687.155 199.775 688.736 203.467C690.581 207.78 694.614 210.397 696.632 214.563C697.588 216.545 697.687 218.816 698.357 220.89C699.038 223.004 700.031 224.869 701.502 226.538C703.994 229.381 707.77 231.246 711.414 232.032C713.544 232.488 715.681 232.825 717.759 233.458C719.82 234.088 721.727 235.139 723.784 235.787C727.161 236.844 730.851 236.778 734.256 235.888C735.808 235.484 736.976 234.253 738.08 233.159C738.292 232.948 738.511 232.753 738.737 232.563C742.415 231.27 746.385 231.106 750.139 229.85C754.599 228.355 757.879 224.71 760.239 220.781C762.662 216.756 762.578 211.546 762.066 207.012C761.787 204.543 761.748 202.07 761.33 199.608C760.936 197.278 761.601 194.924 761.771 192.598C762.093 188.119 759.516 184.871 755.471 183.225C753.374 182.371 751.137 181.907 749.003 181.169C746.116 180.173 744.069 178.12 742.117 175.86C738.738 171.953 734.961 169.025 730.235 166.915C726.379 165.196 722.009 163.665 717.769 163.368C707.631 162.663 702.159 173.479 696.831 180.175ZM700.841 202.607C701.986 202.142 703.245 202.496 704.399 202.77C706.111 203.178 707.628 203.273 709.322 202.667C711.029 202.06 712.641 201.196 714.292 200.443C715.546 199.876 716.968 199.126 718.384 199.176C719.264 199.212 720.094 199.478 720.964 199.528C722.214 199.607 722.797 198.903 723.658 198.172C724.635 197.343 725.514 197.327 726.655 197.85C729.885 199.333 733.777 199.708 736.893 197.836C734.413 197.271 731.678 196.77 730.135 194.582C729.979 194.351 730.197 194.062 730.457 194.155C733.521 195.245 738.106 194.143 740.609 192.127C741.696 191.248 744.14 188.136 745.841 189.638C746.852 190.537 747.267 191.913 748.044 192.985C749.101 194.465 750.471 195.831 752.297 196.294C753.204 196.526 754.496 196.276 755.188 196.985C756.091 197.905 754.963 199.506 756.174 200.36C757.058 200.977 758.024 201.336 758.335 202.48C758.645 203.611 758.723 204.763 758.883 205.916C759.298 208.859 760.088 211.921 760.062 214.903C760.033 218.789 757.882 222.536 755.191 225.224C754.423 225.995 753.555 226.72 752.648 227.334C750.437 228.828 747.791 229.519 745.171 229.848C743.792 230.022 742.426 229.783 741.056 229.727C738.977 229.64 738.246 231.016 737.145 232.514C737.011 232.691 736.651 232.635 736.646 232.384C736.599 231.08 737.133 229.937 737.63 228.776C735.905 230.349 733.876 232.187 731.457 231.719C730.781 231.589 729.216 231.437 728.825 230.781C728.32 229.935 728.371 228.911 728.209 227.953C727.772 229.159 727.453 230.413 726.968 231.614C726.907 231.764 726.75 231.821 726.607 231.764C725.38 231.383 724.11 232.341 722.922 231.865C722.462 231.683 722.067 231.415 721.695 231.102C721.721 231.463 721.759 231.822 721.834 232.187C721.882 232.409 721.642 232.537 721.453 232.487C720.639 232.253 719.795 231.924 718.943 231.878C719.322 232.196 719.735 232.467 720.141 232.763C720.415 232.96 720.153 233.319 719.872 233.241C715.218 232.032 710.33 231.842 706.22 229.095C704.829 228.166 703.229 226.75 703.377 224.903C703.475 223.626 705.401 222.143 706.385 221.536C706.596 221.407 706.944 221.588 706.811 221.859C706.434 222.604 705.99 223.3 705.529 223.993C706.174 223.439 706.853 222.922 707.615 222.528C707.752 222.456 707.922 222.544 707.976 222.678C708.408 223.675 708.831 224.685 709.236 225.704C709.293 225.478 709.35 225.253 709.4 225.023C709.455 224.786 709.842 224.656 709.93 224.949C710.27 226.083 711.726 228.453 713.223 228.069C714.59 227.72 714.154 225.349 714.433 224.312C714.465 224.201 714.611 224.116 714.726 224.142C716.561 224.497 718.703 225.838 720.546 225.036C719.46 223.431 717.396 222.396 715.74 221.546C714.948 221.133 714.147 220.733 713.347 220.345C712.957 220.153 712.359 219.948 712.174 219.51C711.698 218.366 713.455 217.446 714.257 217.135C715.444 216.671 716.634 216.282 717.717 215.708C717.773 215.648 717.841 215.585 717.884 215.515C715.806 214.882 713.639 215.894 711.517 215.836C711.334 215.832 711.233 215.611 711.288 215.457C711.448 215 711.757 214.605 712.025 214.209C712.213 213.919 712.432 213.63 712.576 213.316C712.811 212.813 712.356 212.624 711.942 212.899C711.078 213.483 710.327 214.328 709.36 214.762C708.862 214.983 708.236 215.129 707.921 214.55C707.424 213.639 707.485 212.684 706.722 211.962C706.537 212.534 706.54 213.104 706.574 213.727C706.594 214.083 706.098 214.152 706.026 213.798C705.539 211.522 704.72 209.304 703.352 207.403C702.347 206.004 701.178 204.645 700.653 202.98C700.655 202.827 700.696 202.662 700.841 202.607Z" fill="#171B34"/>
<path d="M752.947 186.571C754.208 188.013 754.522 189.86 753.741 190.939C753.881 190.873 753.991 190.805 754.103 190.707C755.224 189.726 755.003 187.629 753.602 186.027C752.201 184.424 750.153 183.925 749.032 184.906C748.92 185.004 748.822 185.118 748.754 185.234C749.899 184.572 751.686 185.129 752.947 186.571Z" fill="#171B34"/>
<path d="M749.521 189.57C750.906 191.154 752.796 191.767 753.742 190.939C754.689 190.111 754.334 188.155 752.949 186.571C751.564 184.987 749.674 184.374 748.728 185.202C747.781 186.03 748.136 187.985 749.521 189.57Z" fill="#0B0D19"/>
<path d="M759.561 198.016C759.339 198.409 759.018 198.689 758.646 198.845C759.152 198.713 759.597 198.381 759.885 197.902C760.432 196.943 760.092 195.714 759.133 195.167C758.553 194.826 757.874 194.826 757.33 195.076C757.82 194.958 758.361 194.994 758.839 195.283C759.768 195.828 760.108 197.057 759.561 198.016Z" fill="#171B34"/>
<path d="M757.12 198.652C757.585 198.925 758.139 198.977 758.63 198.859C759.002 198.703 759.338 198.409 759.545 198.03C760.091 197.071 759.751 195.841 758.793 195.295C758.328 195.022 757.774 194.97 757.283 195.088C756.911 195.244 756.575 195.538 756.368 195.916C755.822 196.875 756.162 198.105 757.12 198.652Z" fill="#0B0D19"/>
<path opacity="0.6" d="M739.311 229.387C740.908 229.388 742.444 228.992 744.061 229.008C745.397 229.028 746.694 228.895 748.001 228.625C751.004 228.008 753.486 226.347 755.511 224.104C757.684 221.705 758.847 218.665 759.114 215.474C759.262 213.709 759.018 211.998 758.829 210.257C758.685 208.879 758.7 207.467 758.229 206.152C758.198 206.056 757.932 206.082 757.948 206.197C758.502 212 759.033 217.846 755.535 222.885C753.651 225.596 750.929 227.343 747.756 228.172C746.384 228.527 744.928 228.571 743.522 228.631C742.075 228.703 740.728 229.19 739.306 229.27C739.19 229.274 739.211 229.383 739.311 229.387Z" fill="#0B0D19"/>
<path opacity="0.7" d="M689.895 195.073C689.389 195.701 689.406 197.003 689.326 197.654C689.098 199.606 689.329 201.647 690.196 203.406C690.539 204.099 691.342 205.315 692.239 205.56C692.759 205.963 693.543 206.195 694.091 206.507C694.989 207.01 695.723 207.813 696.492 208.487C696.525 208.512 696.66 208.511 696.634 208.45C696.262 207.045 694.594 206.155 693.167 205.601C693.457 205.491 693.655 205.228 693.791 204.898C694.463 205.169 695.242 205.283 695.855 205.633C695.899 205.656 696.057 205.611 695.985 205.556C695.38 205.088 694.622 204.835 693.91 204.523C694.075 203.895 694.078 203.155 694.096 202.735C694.117 202.298 694.096 201.848 694.045 201.397C694.12 201.393 694.196 201.388 694.272 201.383C694.306 201.378 694.342 201.385 694.379 201.392C694.385 201.397 694.474 201.402 694.426 201.397C694.462 201.404 694.508 201.397 694.522 201.366C694.567 201.266 694.298 201.239 694.034 201.234C694.029 201.159 694.013 201.084 694.008 201.009C694.168 201.016 694.326 201.012 694.483 201.048C694.58 201.07 694.745 200.947 694.594 200.916C694.4 200.872 694.191 200.848 693.991 200.841C693.959 200.652 693.933 200.467 693.896 200.284C694.254 200.328 694.626 200.341 694.976 200.369C695.32 200.392 695.651 200.363 695.988 200.34C696.291 200.321 696.716 200.168 697.023 200.226C697.053 200.227 697.148 200.196 697.096 200.157C697.002 200.076 696.971 200.104 696.838 200.116C696.385 200.156 695.934 200.165 695.479 200.182C694.918 200.201 694.372 200.077 693.826 199.994C693.737 199.607 693.643 199.227 693.526 198.85C693.589 198.835 693.658 198.826 693.715 198.818C694.374 198.697 695.018 198.472 695.652 198.261C695.764 198.221 695.687 198.132 695.596 198.157C695.025 198.312 694.459 198.462 693.879 198.56C693.736 198.586 693.591 198.6 693.446 198.614C693.305 198.187 693.147 197.769 692.974 197.37C693.425 197.196 693.853 196.89 694.268 196.708C694.395 196.65 694.232 196.578 694.16 196.606C693.853 196.725 693.56 196.854 693.268 196.994C693.141 197.053 693.006 197.095 692.878 197.143C692.77 196.917 692.674 196.689 692.561 196.47C692.408 196.168 692.184 195.782 691.915 195.456C692.769 195.307 693.636 194.611 694.235 194.023C694.322 193.934 694.089 193.902 694.03 193.94C693.624 194.231 693.182 194.475 692.731 194.69C692.394 194.849 691.976 194.965 691.692 195.205C691.537 195.056 691.378 194.925 691.2 194.832C692.139 194.191 692.942 193.128 693.505 192.274C693.582 192.158 693.339 192.139 693.278 192.206C692.288 193.324 691.1 194.065 689.968 195.004C689.922 195.01 689.903 195.048 689.895 195.073ZM691.069 195.538C691.028 195.579 690.969 195.616 690.937 195.644C690.895 195.674 690.878 195.723 690.896 195.768C690.904 195.784 690.911 195.789 690.919 195.805C690.35 196.448 690.895 200.367 690.978 200.708C691.114 201.264 692.117 204.508 692.944 204.587C692.697 204.927 692.345 205.052 691.821 204.49C691.034 203.648 690.581 202.625 690.285 201.514C689.817 199.747 689.954 197.737 690.313 195.966C690.45 195.266 690.75 195.265 691.069 195.538Z" fill="#0B0D19"/>
<path opacity="0.7" d="M718.843 168.346C719.987 168.675 721.144 168.931 722.314 169.156C723.496 169.379 724.801 169.644 726.079 169.672C726.972 169.883 728.011 169.885 728.746 169.554C729.972 168.996 728.357 167.899 727.776 167.563C725.927 166.463 723.65 165.928 721.549 165.597C719.971 165.352 717.503 165.085 715.996 165.729C713.549 166.797 718.14 168.144 718.843 168.346Z" fill="#0C0E16"/>
<g opacity="0.7">
<path opacity="0.7" d="M751.406 221.661C751.491 221.726 751.588 221.789 751.673 221.853C751.78 221.944 751.784 222.02 751.835 222.13C751.874 222.201 752.001 222.183 752.055 222.152C752.36 221.94 751.755 221.636 751.612 221.539C751.54 221.484 751.294 221.577 751.406 221.661Z" fill="#0B0D19"/>
</g>
<path opacity="0.7" d="M710.225 177.979C710.489 178.148 710.859 178.149 711.16 178.119C711.478 178.081 711.817 177.987 712.03 177.745C712.086 177.685 712.111 177.57 712.061 177.5C711.887 177.266 711.644 177.165 711.348 177.147C711.105 177.128 710.594 177.176 710.462 177.447C710.363 177.496 710.271 177.55 710.191 177.613C710.043 177.728 710.069 177.871 710.225 177.979Z" fill="#0B0D19"/>
<path opacity="0.7" d="M698.979 181.975C698.908 182.736 699.645 183.18 700.335 183.114C700.937 183.053 701.421 182.822 701.904 182.537C702.659 182.262 703.375 181.792 703.697 181.448C703.948 181.184 704.189 180.81 704.334 180.414C704.367 180.356 704.4 180.299 704.427 180.237C704.765 179.543 704.395 178.614 703.572 178.57C703.068 178.323 702.489 178.297 701.91 178.437C700.392 178.794 699.116 180.47 698.979 181.975Z" fill="#0C0E16"/>
<path opacity="0.7" d="M697.687 186.495C697.682 186.625 697.787 186.704 697.893 186.754C698.076 186.84 698.349 186.82 698.47 186.633C698.529 186.595 698.575 186.548 698.633 186.499C698.711 186.423 698.648 186.314 698.566 186.273C698.451 186.207 698.313 186.226 698.196 186.272C698.18 186.28 698.163 186.288 698.152 186.29C698.122 186.288 698.098 186.279 698.068 186.278C697.925 186.262 697.691 186.312 697.687 186.495Z" fill="#0B0D19"/>
<path opacity="0.7" d="M699.553 208.079C699.591 208.561 700.03 208.976 700.527 208.919C700.568 208.96 700.695 208.942 700.716 208.887C700.721 208.88 700.721 208.88 700.72 208.868C700.898 208.797 701.018 208.651 700.935 208.433C700.908 208.361 700.868 208.29 700.824 208.226C700.796 207.977 700.688 207.751 700.483 207.586C700.089 207.288 699.521 207.59 699.553 208.079Z" fill="#0B0D19"/>
<path opacity="0.6" d="M704.252 226.362C707.443 230.229 712.811 231.462 717.58 232.191C717.682 232.207 717.801 232.09 717.665 232.039C715.447 231.29 713.136 230.842 710.903 230.071C708.424 229.218 706.335 228.04 704.412 226.287C704.358 226.235 704.186 226.271 704.252 226.362Z" fill="#0B0D19"/>
<path opacity="0.7" d="M720.16 232.708C720.443 232.798 721.098 233.417 721.683 233.694C721.587 234.148 722.613 234.469 722.949 234.569C724.831 235.136 726.679 235.678 728.644 235.834C729.595 235.913 730.427 235.862 731.245 235.707C732.491 235.628 733.944 235.396 734.58 234.609L734.585 234.602C734.746 234.445 734.863 234.235 734.972 234.049C735.128 233.775 735.425 233.587 735.559 233.286C735.617 233.155 735.338 233.17 735.276 233.238C735.073 233.466 734.777 233.654 734.531 233.829C734.461 233.88 734.4 233.947 734.346 234.019C734.062 233.835 733.635 233.677 733.272 233.557C733.318 233.469 733.365 233.38 733.409 233.28C733.544 232.979 733.722 232.702 733.895 232.42C734.047 232.163 734.234 231.697 734.484 231.504C734.632 231.389 734.367 231.302 734.275 231.356C733.848 231.58 733.531 232.082 733.204 232.433C732.994 232.656 732.825 232.879 732.668 233.142C732.62 233.219 732.57 233.285 732.509 233.352C731.31 233.043 730.014 232.93 728.734 232.89C728.734 232.849 728.74 232.801 728.74 232.76C728.767 232.451 728.801 232.147 728.852 231.834C728.875 231.708 728.628 231.707 728.59 231.812C728.5 232.094 728.415 232.371 728.362 232.66C728.348 232.732 728.335 232.805 728.315 232.872C728.233 232.872 728.162 232.87 728.085 232.863C728.119 232.6 728.133 232.322 728.178 232.098C728.294 231.495 728.449 230.88 728.463 230.261C728.458 230.144 728.221 230.171 728.186 230.259C727.97 230.858 727.666 231.412 727.487 232.03C727.424 232.25 727.326 232.557 727.274 232.858C726.974 232.859 726.663 232.861 726.371 232.866C726.106 232.862 725.844 232.881 725.576 232.894C724.834 232.88 724.099 232.912 723.375 232.983C723.317 232.991 723.26 232.999 723.21 233.024C723.1 232.91 722.963 232.806 722.866 232.701C722.623 232.436 722.417 232.135 722.19 231.85C722.126 231.771 721.858 231.826 721.921 231.946C722.117 232.3 722.309 232.879 722.637 233.209C722.602 233.214 722.568 233.219 722.545 233.222C722.505 233.192 722.455 233.164 722.41 233.141C722.187 233.013 722.037 232.776 721.86 232.601C721.825 232.564 721.67 232.592 721.713 232.644C721.846 232.837 721.965 233.062 722.119 233.24C721.509 232.996 720.914 232.597 720.254 232.542C720.147 232.533 719.994 232.654 720.16 232.708ZM722.673 233.639C722.713 233.668 722.811 233.661 722.816 233.613C722.766 233.925 728.584 234.685 728.997 234.698C730.361 234.749 731.913 234.892 733.296 234.658C733.218 234.775 733.112 234.901 732.985 235.042C732.968 235.05 732.957 235.052 732.934 235.055C730.455 235.594 728.084 235.565 725.606 234.887C724.752 234.654 723.899 234.39 723.048 234.139C722.356 233.935 722.362 233.764 722.673 233.639Z" fill="#0B0D19"/>
<path d="M701.316 192.292C704.328 193.094 708.449 192.921 710.699 190.476C710.673 190.674 710.681 190.855 710.7 191.034C710.136 191.711 709.583 192.376 708.854 192.918C708.763 192.983 708.927 193.025 708.987 192.987C709.64 192.573 710.249 192.054 710.79 191.474C711.008 192.154 711.529 192.693 712.223 193.166C712.684 193.566 713.186 193.884 713.726 194.137C713.507 194.632 713.269 195.111 712.907 195.591C712.391 196.273 711.256 197.488 710.353 197.661C710.216 197.691 710.285 197.805 710.39 197.802C711.453 197.76 712.48 196.742 713.193 196.044C713.477 195.764 714.088 195.092 714.436 194.426C715.338 194.748 716.308 194.924 717.322 195.041C718.664 195.19 720.011 195.249 721.347 195.187C721.364 195.272 721.382 195.358 721.389 195.445C721.422 195.728 721.455 196.012 721.477 196.296C721.499 196.581 721.538 196.858 721.617 197.134C721.686 197.372 721.806 197.607 721.847 197.854C721.861 197.958 722.1 197.943 722.097 197.837C722.091 197.627 722.024 197.442 721.99 197.241C721.939 196.914 721.914 196.606 721.909 196.272C721.906 195.961 721.886 195.646 721.877 195.33C721.874 195.266 721.873 195.213 721.872 195.161C722.016 195.147 722.155 195.127 722.288 195.115C722.312 195.205 722.33 195.291 722.336 195.378C722.37 195.62 722.38 195.865 722.46 196.101C722.488 196.174 722.69 196.151 722.673 196.066C722.626 195.814 722.648 195.552 722.647 195.294C722.649 195.223 722.645 195.147 722.64 195.072C723.195 195.006 723.748 194.929 724.296 194.818C724.723 195.481 725.594 196.047 726.114 196.41C727.491 197.358 728.797 197.799 730.416 198.085C730.488 198.098 730.576 198.01 730.472 197.983C728.824 197.531 727.525 196.93 726.184 195.854C725.747 195.503 725.362 195.098 725.03 194.651C725.07 194.64 725.104 194.635 725.144 194.624C726.673 194.223 728.29 193.476 729.473 192.36C730.271 192.736 731.33 192.918 732.041 192.878C732.77 192.841 733.464 192.727 734.171 192.529C734.724 192.37 735.353 191.783 735.896 191.719C735.953 191.711 736.015 191.644 735.929 191.621C735.308 191.461 734.238 192.126 733.657 192.254C732.305 192.542 731.13 192.323 729.911 191.917C730.058 191.75 730.198 191.578 730.326 191.395C730.585 191.025 730.728 190.658 730.795 190.296C731.052 190.366 731.387 190.332 731.583 190.304C732.036 190.224 732.469 190.046 732.915 189.961C733.063 189.928 732.996 189.785 732.863 189.798C732.534 189.837 732.216 189.917 731.885 189.986C731.698 190.03 731.512 190.044 731.319 190.053C731.15 190.059 730.982 189.994 730.82 189.964C730.829 189.61 730.768 189.255 730.639 188.92C730.861 188.954 731.123 188.894 731.298 188.799C731.38 188.758 731.469 188.723 731.565 188.692C731.621 188.672 731.708 188.666 731.716 188.6C731.716 188.6 731.716 188.6 731.721 188.594C731.725 188.575 731.692 188.551 731.679 188.541C731.559 188.481 731.381 188.553 731.257 188.593C731.015 188.668 730.792 188.664 730.548 188.686C730.163 187.818 729.414 187.035 728.66 186.464C727.241 185.381 725.516 184.334 723.688 183.643C723.81 183.426 723.851 183.168 723.886 182.916C723.945 182.538 724.072 182.18 724.024 181.793C724.009 181.689 723.769 181.693 723.759 181.789C723.713 182.136 723.533 182.443 723.377 182.758C723.296 182.934 723.259 183.133 723.186 183.325C723.174 183.368 723.151 183.412 723.132 183.45C720.737 182.649 718.206 182.519 715.986 183.78C714.794 184.456 713.758 185.364 712.887 186.407C712.767 186.389 712.653 186.375 712.542 186.332C712.376 186.278 712.218 186.201 712.062 186.134C711.975 186.099 711.746 186.184 711.892 186.263C712.16 186.414 712.412 186.585 712.712 186.625C712.442 186.968 712.181 187.328 711.939 187.702C711.594 187.75 711.216 187.65 710.887 187.566C710.655 187.504 710.42 187.461 710.184 187.405C710.062 187.375 709.94 187.345 709.824 187.309C709.916 187.337 709.052 187.034 709.522 187.122C709.547 187.13 709.583 187.095 709.54 187.084C709.34 187.035 709.405 187.044 709.197 187.02C709.167 187.018 709.104 187.033 709.122 187.077C709.352 187.674 710.403 187.839 710.94 187.988C711.111 188.034 711.39 188.101 711.681 188.125C711.478 188.477 711.28 188.833 711.108 189.198C711.062 189.286 711.032 189.367 710.997 189.454C709.626 190.449 708.461 191.486 706.788 191.995C704.986 192.551 703.234 192.277 701.403 192.162C701.31 192.122 701.158 192.255 701.316 192.292ZM716.225 184.486C719.85 181.927 724.342 184.55 727.577 186.574C729.293 187.645 730.611 189.394 729.487 191.318C729.476 191.279 729.464 191.239 729.453 191.2C729.372 189.942 727.641 188.468 726.863 187.818C725.512 186.673 723.509 186.458 721.817 186.282C720.19 186.103 717.888 185.765 716.318 186.341C715.274 186.727 714.48 187.396 713.634 188.106C712.982 188.655 712.44 189.441 711.83 190.043C711.925 189.754 712.023 189.487 712.115 189.257C712.915 187.284 714.503 185.701 716.225 184.486Z" fill="#0B0D19"/>
<path d="M702.96 211.74C703.905 213.218 704.771 214.719 705.767 216.143C705.503 216.356 705.466 216.76 705.527 217.198C705.422 217.16 705.334 217.125 705.247 217.09C704.072 216.572 702.946 215.906 701.72 215.495C701.64 215.465 701.455 215.573 701.58 215.626C702.601 216.048 703.555 216.656 704.527 217.184C704.894 217.38 705.265 217.558 705.638 217.747C705.766 218.204 705.951 218.643 706.043 218.888C705.849 218.886 705.652 218.902 705.533 218.895C705.019 218.866 704.507 218.779 703.994 218.844C703.879 218.86 703.883 218.977 704.005 218.966C704.732 218.918 705.46 219.169 706.187 219.203C706.243 219.307 706.31 219.409 706.377 219.512C706.337 219.523 706.309 219.533 706.27 219.544C706.031 219.601 705.791 219.646 705.56 219.719C705.402 219.765 705.513 219.89 705.638 219.861C705.917 219.793 706.21 219.746 706.494 219.683C706.588 219.805 706.681 219.927 706.779 220.043C706.975 220.398 707.231 220.756 707.525 221.102C707.24 221.453 707.013 221.89 706.799 222.213C706.298 222.959 705.624 223.645 705.295 224.49C705.261 224.577 705.448 224.574 705.48 224.505C705.849 223.785 706.49 223.196 707.022 222.588C707.325 222.24 707.595 221.856 707.886 221.499C708.099 221.721 708.322 221.931 708.548 222.123C708.387 222.445 708.381 222.863 708.287 223.205C708.256 223.315 708.491 223.317 708.531 223.224C708.594 223.045 708.646 222.867 708.696 222.678C708.727 222.568 708.771 222.456 708.807 222.34C709.304 222.746 709.819 223.074 710.253 223.278C710.295 223.413 710.339 223.56 710.381 223.695C710.554 224.217 710.964 224.888 710.843 225.457C710.818 225.572 711.054 225.575 711.087 225.476C711.258 224.977 711.037 224.273 710.915 223.779C710.891 223.689 710.878 223.596 710.864 223.493C711.058 223.536 711.219 223.555 711.354 223.554C711.526 223.777 711.742 223.981 711.929 224.185C712.345 224.644 712.788 225.04 713.172 225.527C713.208 225.575 713.37 225.553 713.325 225.488C713.059 225.091 712.767 224.726 712.448 224.371C712.197 224.089 711.985 223.742 711.721 223.45C712.123 223.218 712.07 222.579 711.868 221.932C711.936 221.952 712.01 221.977 712.082 221.99C712.355 222.052 712.647 222.17 712.927 222.113C713.036 222.093 713.016 221.995 712.919 221.974C712.511 221.913 712.135 221.742 711.754 221.578C711.719 221.489 711.683 221.4 711.647 221.311C712.164 221.444 712.685 221.56 713.182 221.708C714.228 222.015 715.527 222.193 716.507 222.655C716.576 222.687 716.766 222.614 716.651 222.547C715.935 222.13 715.021 221.975 714.243 221.696C713.311 221.373 712.368 221.052 711.417 220.796C711.36 220.681 711.304 220.577 711.25 220.485C710.923 219.907 710.539 219.379 710.111 218.881C710.293 218.75 710.473 218.608 710.652 218.465C711.154 218.061 711.657 217.668 712.116 217.21C712.225 217.107 711.941 217.047 711.862 217.111C711.228 217.663 710.498 218.07 709.805 218.536C709.397 218.093 708.941 217.687 708.467 217.318C708.489 217.139 708.48 216.946 708.497 216.773C708.503 216.685 708.292 216.69 708.274 216.769C708.249 216.884 708.217 216.995 708.192 217.11C708.152 217.08 708.12 217.055 708.08 217.025C708.028 216.986 707.969 216.941 707.903 216.891C707.882 216.783 707.861 216.674 707.843 216.588C707.79 216.249 707.724 215.9 707.655 215.569C707.632 215.449 707.346 215.459 707.352 215.588C707.371 215.891 707.384 216.2 707.391 216.504C707.117 216.307 706.809 216.115 706.508 216.022C706.087 215.529 705.656 215.048 705.268 214.538C704.537 213.583 703.901 212.555 703.149 211.626C703.123 211.606 702.906 211.648 702.96 211.74Z" fill="#0B0D19"/>
<path d="M740.097 217.09C741.422 217.628 743.02 218.351 744.137 219.247C744.918 219.879 745.606 220.523 746.422 221.109C745.806 222.005 745.345 222.956 745.125 223.944C744.758 223.801 744.437 223.599 744.092 223.401C743.683 223.164 743.204 223.007 742.765 222.81C742.678 222.775 742.449 222.859 742.595 222.939C743.052 223.181 743.534 223.402 743.982 223.668C744.335 223.884 744.67 224.137 745.088 224.184C745.077 224.239 745.067 224.293 745.057 224.347C744.956 224.291 744.847 224.229 744.734 224.175C744.558 224.093 744.374 224.037 744.172 224.018C744.04 224.001 743.954 224.142 744.122 224.166C744.369 224.208 744.62 224.326 744.817 224.474C744.889 224.529 744.953 224.567 745.027 224.592C745.013 224.747 745.016 224.893 745.03 225.038C744.951 224.979 744.873 224.919 744.779 224.879C744.349 224.657 743.79 224.647 743.329 224.546C742.616 224.399 741.725 224.364 741.073 224.748C740.986 224.796 741.117 224.854 741.173 224.834C742.03 224.574 743.775 225.048 744.426 225.633C744.823 225.995 745.2 226.177 745.669 226.13C745.886 226.252 746.162 226.296 746.488 226.233C747.351 226.061 748.104 225.692 748.785 225.227C751.782 223.935 754.711 221.014 756.017 218.371C756.342 217.71 756.982 216.234 756.215 215.613C756.065 215.169 755.687 214.646 755.589 214.49C755.275 213.964 755.004 213.408 754.756 212.849C754.384 212.032 754.541 211.346 754.477 210.503C754.476 210.41 754.285 210.43 754.253 210.499C754.06 211.014 753.925 211.52 753.872 212.068C753.825 212.526 754.255 213.172 754.449 213.556C754.727 214.116 755.055 214.623 755.404 215.144C755.425 215.17 755.469 215.235 755.533 215.314C754.843 215.163 754.057 215.384 753.336 215.684C753.203 215.491 753.059 215.299 752.933 215.111C752.632 214.678 752.514 214.206 752.297 213.743C752.261 213.654 752.026 213.693 752.065 213.805C752.244 214.291 752.318 214.739 752.576 215.202C752.7 215.42 752.824 215.638 752.949 215.855C752.634 215.999 752.339 216.157 752.087 216.286C751.988 216.335 751.895 216.389 751.797 216.438C751.607 216.212 751.417 215.986 751.222 215.766C750.635 215.096 750.082 214.327 749.44 213.717C749.353 213.641 749.079 213.703 749.186 213.835C749.487 214.187 749.68 214.642 749.95 215.021C750.19 215.358 750.474 215.665 750.724 215.988C750.894 216.2 751.069 216.487 751.258 216.742C750.422 217.234 749.562 217.853 748.755 218.553C748.685 218.551 748.548 218.581 748.6 218.662C748.607 218.667 748.609 218.679 748.615 218.684C748.202 219.052 747.811 219.447 747.439 219.857C747.248 219.702 747.057 219.558 746.882 219.395C746.538 219.072 746.251 218.701 745.887 218.405C745.815 218.351 745.581 218.401 745.683 218.498C746.014 218.81 746.256 219.2 746.567 219.538C746.756 219.753 746.982 219.945 747.218 220.123C747.088 220.282 746.957 220.441 746.826 220.6C746.71 220.482 746.554 220.374 746.361 220.207C745.766 219.685 745.185 219.102 744.539 218.634C743.41 217.821 741.575 217.331 740.252 216.98C740.158 216.94 739.972 217.036 740.097 217.09ZM745.722 223.891C747.537 222.881 749.408 222.192 751.022 220.834C752.451 219.625 753.554 217.674 754.297 215.967C755.103 215.855 755.742 216.101 755.472 217.278C755.276 218.11 754.763 218.857 754.242 219.546C754.223 219.531 754.193 219.529 754.159 219.534C753.98 219.389 753.734 219.264 753.609 219.211C753.522 219.176 753.416 219.179 753.336 219.232C753.288 219.268 753.276 219.31 753.306 219.353L753.301 219.36C753.468 219.589 753.781 219.734 753.874 220.02C753.876 220.032 753.882 220.037 753.889 220.042C753.71 220.278 753.51 220.529 753.31 220.78C753.115 220.684 752.895 220.62 752.701 220.577C752.579 220.547 752.358 220.689 752.555 220.756C752.746 220.817 752.951 220.9 753.115 221.024C752.471 221.795 751.741 222.584 750.947 223.293C750.975 223.243 750.843 223.226 750.812 223.253C749.761 224.057 748.711 224.738 747.557 225.392C745.914 226.325 745.535 225.079 745.638 223.92C745.659 223.905 745.694 223.9 745.722 223.891Z" fill="#0B0D19"/>
</g>
</g>
<defs>
<linearGradient id="paint0_linear_1_5" x1="369.719" y1="533.456" x2="543.232" y2="357.116" gradientUnits="userSpaceOnUse">
<stop offset="0.01" stop-color="#0E1020"/>
<stop offset="1" stop-color="#1F2342"/>
</linearGradient>
<radialGradient id="paint1_radial_1_5" cx="0" cy="0" r="1" gradientUnits="userSpaceOnUse" gradientTransform="translate(162.394 515.293) rotate(171.683) scale(97.9837 28.8991)">
<stop stop-color="#2C335C"/>
<stop offset="1" stop-color="#191D36"/>
</radialGradient>
<radialGradient id="paint2_radial_1_5" cx="0" cy="0" r="1" gradientUnits="userSpaceOnUse" gradientTransform="translate(462.537 500.384) rotate(168.471) scale(211.243 85.2448)">
<stop stop-color="#2C335C"/>
<stop offset="1" stop-color="#191D36"/>
</radialGradient>
<radialGradient id="paint3_radial_1_5" cx="0" cy="0" r="1" gradientUnits="userSpaceOnUse" gradientTransform="translate(178.836 556.262) rotate(165.986) scale(38.9067 18.8361)">
<stop stop-color="#2C335C"/>
<stop offset="1" stop-color="#191D36"/>
</radialGradient>
<radialGradient id="paint4_radial_1_5" cx="0" cy="0" r="1" gradientUnits="userSpaceOnUse" gradientTransform="translate(380.8 517.727) rotate(172.681) scale(165.975 43.2131)">
<stop stop-color="#2C335C"/>
<stop offset="1" stop-color="#191D36"/>
</radialGradient>
<radialGradient id="paint5_radial_1_5" cx="0" cy="0" r="1" gradientUnits="userSpaceOnUse" gradientTransform="translate(554.465 551.992) rotate(174.01) scale(82.0754 17.5524)">
<stop stop-color="#2C335C"/>
<stop offset="1" stop-color="#191D36"/>
</radialGradient>
<radialGradient id="paint6_radial_1_5" cx="0" cy="0" r="1" gradientUnits="userSpaceOnUse" gradientTransform="translate(393.337 480.145) rotate(171.143) scale(28.5099 8.93705)">
<stop stop-color="#2C335C"/>
<stop offset="1" stop-color="#191D36"/>
</radialGradient>
<linearGradient id="paint7_linear_1_5" x1="101.823" y1="303.921" x2="120.729" y2="242.581" gradientUnits="userSpaceOnUse">
<stop offset="0.01" stop-color="#0E1020"/>
<stop offset="1" stop-color="#1F2342"/>
</linearGradient>
<radialGradient id="paint8_radial_1_5" cx="0" cy="0" r="1" gradientUnits="userSpaceOnUse" gradientTransform="translate(155.986 244.932) rotate(170.326) scale(55.8505 19.0648)">
<stop stop-color="#2C335C"/>
<stop offset="1" stop-color="#191D36"/>
</radialGradient>
<radialGradient id="paint9_radial_1_5" cx="0" cy="0" r="1" gradientUnits="userSpaceOnUse" gradientTransform="translate(165.286 241.539) rotate(155.5) scale(10.9591 8.52154)">
<stop stop-color="#2C335C"/>
<stop offset="1" stop-color="#191D36"/>
</radialGradient>
<linearGradient id="paint10_linear_1_5" x1="417.049" y1="208.038" x2="302.312" y2="476.659" gradientUnits="userSpaceOnUse">
<stop stop-color="#0F1122" stop-opacity="0"/>
<stop offset="1" stop-color="#161A31"/>
</linearGradient>
<linearGradient id="paint11_linear_1_5" x1="429.684" y1="52.6505" x2="322.576" y2="251.414" gradientUnits="userSpaceOnUse">
<stop stop-color="#0F1122" stop-opacity="0"/>
<stop offset="1" stop-color="#161A31"/>
</linearGradient>
<radialGradient id="paint12_radial_1_5" cx="0" cy="0" r="1" gradientUnits="userSpaceOnUse" gradientTransform="translate(220.101 -28.909) rotate(131.222) scale(141.282 144.299)">
<stop stop-color="#1E2140"/>
<stop offset="1" stop-color="#131525"/>
</radialGradient>
<radialGradient id="paint13_radial_1_5" cx="0" cy="0" r="1" gradientUnits="userSpaceOnUse" gradientTransform="translate(706.559 205.738) rotate(-11.6828) scale(49.5912 50.6698)">
<stop stop-color="#1E2140"/>
<stop offset="1" stop-color="#131525"/>
</radialGradient>
<clipPath id="clip0_1_5">
<rect width="1124" height="689" fill="white"/>
</clipPath>
</defs>
</svg>
