<?xml version="1.0" encoding="UTF-8" standalone="no"?>
<svg
   width="169"
   height="260"
   fill="none"
   version="1.1"
   id="svg3"
   sodipodi:docname="closed-card.svg"
   inkscape:version="1.3 (0e150ed, 2023-07-21)"
   xmlns:inkscape="http://www.inkscape.org/namespaces/inkscape"
   xmlns:sodipodi="http://sodipodi.sourceforge.net/DTD/sodipodi-0.dtd"
   xmlns="http://www.w3.org/2000/svg"
   xmlns:svg="http://www.w3.org/2000/svg">
  <sodipodi:namedview
     id="namedview3"
     pagecolor="#ffffff"
     bordercolor="#000000"
     borderopacity="0.25"
     inkscape:showpageshadow="2"
     inkscape:pageopacity="0.0"
     inkscape:pagecheckerboard="0"
     inkscape:deskcolor="#d1d1d1"
     inkscape:zoom="3.4923018"
     inkscape:cx="72.158713"
     inkscape:cy="107.80855"
     inkscape:window-width="1776"
     inkscape:window-height="778"
     inkscape:window-x="0"
     inkscape:window-y="25"
     inkscape:window-maximized="0"
     inkscape:current-layer="svg3" />
  <g
     clip-path="url(#a)"
     id="g2"
     transform="matrix(1.0136859,0,0,1.0055403,-0.87011785,-0.57706503)">
    <path
       transform="translate(0.81,0.79)"
       fill="url(#b)"
       d="M 0,0 H 167.381 V 258.42 H 0 Z"
       id="path1"
       style="fill:url(#b)" />
    <path
       opacity="0.1"
       fill-rule="evenodd"
       clip-rule="evenodd"
       d="M 42.805149,1.2772387 38.174048,5.5749536 H 33.528996 V 9.8590001 L 28.896899,14.157692 24.266795,9.8590001 V 5.5749536 h -4.631101 l -4.6311,-4.2986912 H 42.806146 Z M 10.372498,31.32219 H 5.7274445 v 4.297715 L 1.0963441,39.905904 V 14.157692 l 4.6311004,4.297714 V 22.74043 H 10.3715 l 4.632098,4.297714 -4.6311,4.285023 z m 13.8933,30.046905 V 57.07138 h -4.6311 l -4.6311,-4.285022 4.6311,-4.297716 h 4.632097 v -4.285023 l 4.630104,-4.297715 4.632097,4.297715 v 4.285023 h 4.644056 l 4.632097,4.297716 -4.631101,4.285022 h -4.645052 v 4.297715 l -4.632097,4.298691 -4.630104,-4.298691 z m -13.8933,21.464166 H 5.7274445 v 4.284047 l -4.6311004,4.298691 4.0690302,3.775389 H 10.93357 v 5.328702 l 4.070028,3.77636 -4.070028,3.76173 v 5.32966 H 5.1653743 l -4.0690302,3.7754 V 65.667786 l 4.6311004,4.284047 v 4.29869 H 10.3715 l 4.632098,4.284048 z m 13.8933,25.747239 v 4.29869 l 4.631101,4.28405 4.632097,-4.28405 v -4.29869 h 4.644056 l 4.632097,-4.28405 -4.631101,-4.298691 h -4.645052 v -4.297713 l -4.6311,-4.284047 4.06903,-3.776365 h 5.754244 v -5.328698 l 4.083979,-3.776365 -4.083979,-3.761722 v -5.343342 h -5.754244 l -4.070027,-3.761721 -4.069031,3.761721 H 19.07462 v 5.343342 l -4.070026,3.761722 4.070026,3.776365 v 5.328698 h 5.754246 l 4.06903,3.776365 -4.630104,4.284047 v 4.297713 h -4.632098 l -4.6311,4.298691 4.6311,4.28405 h 4.632098 z m -5.192174,17.6878 v -5.3287 h 5.754244 l 4.069031,-3.77539 4.070027,3.77539 h 5.754244 v 5.3287 l 4.083979,3.77637 -4.083979,3.77539 v 5.32967 h -5.754244 l -4.06903,3.77539 4.6311,4.28405 v 4.29772 h 4.644056 l 4.632097,4.28501 -4.631101,4.29771 h -4.645052 v 4.28503 l -4.632097,4.29772 -4.630104,-4.29772 v -4.28503 h -4.632097 l -4.6311,-4.29771 4.6311,-4.28501 h 4.632097 v -4.29772 l 4.630104,-4.28405 -4.069031,-3.77539 H 19.07462 v -5.32967 l -4.070026,-3.77539 4.070026,-3.77637 z m 32.993726,8.07409 v 4.28502 l 4.6311,4.29771 -4.06903,3.76172 h -5.75524 v 5.34236 l -4.069031,3.7627 4.070027,3.77539 v 5.32968 h 5.754244 l 4.06903,3.77539 4.070027,-3.77539 h 5.754245 v -5.32968 l 4.083978,-3.77539 -4.083978,-3.7627 v -5.34236 h -5.754245 l -4.069031,-3.76172 4.631102,-4.29771 v -4.28502 h 4.6311 l 4.644056,-4.29772 -4.630104,-4.29772 h -4.64605 v -4.28502 l -4.6311,-4.29772 -4.6311,4.29772 v 4.28502 h -4.630104 l -4.6311,4.29772 4.6311,4.29772 h 4.6311 z m 22.60838,38.10633 v 5.32967 l -4.06903,3.77539 4.06903,3.7627 v 5.3287 h 5.755242 l 4.070026,3.77637 4.06903,-3.77637 h 5.755242 v -5.3287 l 4.082982,-3.7627 4.631098,4.28503 h 4.6311 v 4.29771 l 4.6311,4.28503 4.6311,-4.28503 v -4.29771 h 4.6321 l 4.64406,-4.28503 4.07002,3.7627 v 5.3287 h 5.75425 l 4.07002,3.77637 4.06904,-3.77637 h 5.75524 v -5.3287 l 4.06902,-3.7627 4.64506,4.28503 h 4.6311 v 4.29771 l 4.6311,4.28503 v -25.74821 l -4.6311,4.28404 v 4.29868 h -4.6311 l -4.64506,4.29772 -4.06902,-3.77539 v -5.32967 h -5.75524 l -4.06904,-3.77538 -4.07002,3.77538 h -5.75425 v 5.32967 l -4.07002,3.77539 -4.64406,-4.29772 h -4.6321 v -4.29868 l -4.6311,-4.28404 -4.6311,4.28404 v 4.29868 h -4.6311 l -4.631098,4.29772 -4.082982,-3.77539 v -5.32967 h -5.755242 l -4.06903,-3.77538 -4.070026,3.77538 z m 5.193172,-12.35911 v 4.28503 l 4.632096,4.29772 4.6311,-4.29772 v -4.28503 H 93.7632 l 4.644056,-4.29771 4.070024,3.77539 v 5.32968 h 5.75425 l 4.07002,3.77539 4.07003,-3.77539 h 5.75424 v -5.32968 l 4.08299,-3.77539 4.6311,4.29771 h 4.63209 v 4.28503 l 4.6311,4.29772 4.6311,-4.29772 v -4.28503 h 4.6311 l 4.6311,-4.29771 4.08299,3.77539 v 5.32968 h 5.75524 l 4.06903,3.77539 v -51.50815 l -4.6311,4.29772 v 4.28502 h -4.6311 l -4.64506,4.29772 -4.06902,-3.77637 v -5.3287 h -5.75524 l -4.06904,-3.77539 -4.07002,3.77539 h -5.75425 v 5.3287 l -4.07002,3.77637 -4.64406,-4.29772 h -4.6321 v -4.28502 l -4.6311,-4.29772 -4.6311,4.29772 v 4.28502 h -4.6311 l -4.631098,4.29772 -4.082982,-3.77637 v -5.3287 h -5.755242 l -4.06903,-3.77539 -4.070026,3.77539 H 74.67573 v 5.3287 l -4.06903,3.77637 4.06903,3.77539 v 5.32967 h 5.755242 l 4.06903,3.77539 -4.6311,4.28405 v 4.29772 H 75.2378 l -4.6311,4.28501 4.6311,4.29771 z m 74.127498,-30.04494 4.64506,4.29772 h 4.6311 v 4.28502 l 4.6311,4.29771 -4.06903,3.76172 h -5.75524 v 5.34236 l -4.08299,3.7627 -4.6311,-4.28501 h -4.6311 v -4.29772 l -4.6311,-4.28405 4.06904,-3.77539 h 5.75524 v -5.32967 z m -27.78759,0 4.07002,3.77539 v 5.32967 h 5.75425 l 4.06903,3.77539 -4.63011,4.28405 v 4.29772 h -4.63209 l -4.6311,4.28501 -4.08299,-3.7627 v -5.34236 h -5.75424 l -4.06903,-3.76172 4.6301,-4.29771 v -4.28502 h 4.6321 z m -27.800558,0 4.631098,4.29772 h 4.6311 v 4.28502 l 4.6311,4.29771 -4.07002,3.76172 h -5.75425 v 5.34236 l -4.069028,3.7627 -4.6311,-4.28501 h -4.645054 v -4.29772 l -4.6311,-4.28405 4.06903,-3.77539 h 5.755242 v -5.32967 z m -79.335624,47.73372 v -5.32967 h 5.75524 l 4.069031,-3.77538 4.070027,3.77538 h 5.754244 v 5.32967 l 4.083979,3.77539 -4.083979,3.7627 v 5.3287 h -5.754244 l -4.070027,3.77637 -4.069031,-3.77637 H 19.07462 v -5.3287 l -4.070026,-3.7627 4.070026,-3.77539 z M 5.7274445,134.34239 H 10.3715 l 4.632098,-4.29772 -4.6311,-4.29772 H 5.7274445 v -4.28502 l -4.6311004,-4.29772 v 51.50815 l 4.0690302,-3.77539 H 10.93357 v -5.32968 l 4.070028,-3.77539 -4.070028,-3.7627 v -5.34236 H 5.1653743 l -4.0690302,-3.76172 4.6311004,-4.29771 z m 46.3409015,55.79413 v -4.29771 H 47.43625 l -4.631101,-4.28503 4.631101,-4.29772 h 4.6311 v -4.29868 l 4.6311,-4.28404 4.632098,4.28404 v 4.29868 h 4.644056 l 4.632096,4.29772 -4.645052,4.28503 H 61.32955 v 4.29771 l -4.632096,4.28503 -4.6311,-4.28503 z M 10.3715,185.83881 H 5.7274445 v 4.29771 l -4.6311004,4.28503 v -25.74821 l 4.6311004,4.28404 v 4.29868 H 10.3715 l 4.632098,4.29772 -4.6311,4.28503 z M 89.131102,108.5805 H 93.7632 l 4.644056,-4.28405 -4.630104,-4.298691 h -4.645054 v -4.297713 l -4.632096,-4.284047 4.06903,-3.776365 h 5.755241 v -5.328698 l 4.082983,-3.775389 4.631104,4.297714 h 4.6311 v 4.284047 l 4.6311,4.298691 -4.07003,3.775389 h -5.75425 v 5.328702 l -4.070022,3.76269 4.070022,3.7754 v 5.32966 h 5.75425 l 4.07003,3.7754 4.07002,-3.7754 h 5.75425 v -5.32966 l 4.08298,-3.76173 4.6311,4.28405 h 4.6321 v 4.29869 l 4.6311,4.28405 4.6311,-4.28405 v -4.29869 h 4.6311 l 4.6311,-4.28405 -4.6311,-4.298691 h -4.6311 v -4.297713 l -4.6311,-4.284047 4.06903,-3.776365 h 5.75524 v -5.328698 l 4.06903,-3.776365 4.64505,4.29869 h 4.6311 v 4.284047 l 4.6311,4.298691 v -25.74919 l -4.6311,4.284048 v 4.29869 h -4.6311 l -4.64505,4.284047 -4.06903,-3.761721 v -5.343342 h -5.75524 l -4.06903,-3.761722 -4.07003,3.761722 h -5.75424 v 5.343342 l -4.07003,3.761721 -4.64406,-4.284047 h -4.63209 v -4.29869 l -4.6311,-4.284048 -4.6311,4.284048 v 4.29869 h -4.6311 l -4.631104,4.284047 -4.082983,-3.761721 v -5.343342 h -5.755241 l -4.06903,-3.761722 -4.070027,3.761722 h -5.755241 v 5.343342 l -4.06903,3.761721 4.06903,3.776366 v 5.328698 h 5.755241 l 4.070027,3.776364 -4.632098,4.284047 v 4.297711 h -4.6311 l -4.6311,4.2987 4.6311,4.28404 h 4.6311 v 4.29869 l 4.632098,4.28405 4.6311,-4.28405 v -4.29869 z m 37.077708,-30.045929 4.07002,3.776365 v 5.328698 h 5.75425 l 4.07002,3.775388 -4.6311,4.286 v 4.296737 h -4.63209 l -4.6311,4.298691 -4.08299,-3.77636 v -5.328702 h -5.75424 l -4.07003,-3.775389 4.6311,-4.298691 v -4.284047 h 4.6321 z m 37.62582,16.655841 4.06903,-3.774413 v 25.747241 l -4.06903,-3.7754 h -5.75524 v -5.32966 l -4.08299,-3.7754 4.08299,-3.76269 v -5.328702 h 5.75524 z m -97.311908,0 h -5.754245 l -4.069031,-3.774413 4.631102,-4.298691 v -4.284047 h 4.6311 l 4.644056,-4.29869 -4.630104,-4.284048 h -4.64605 v -4.299666 l -4.6311,-4.284048 -4.6311,4.284048 v 4.29869 h -4.630104 l -4.6311,4.284047 4.6311,4.298691 h 4.6311 v 4.284046 l 4.6311,4.298691 -4.06903,3.77539 h -5.75524 v 5.328698 l -4.06903,3.76269 4.070026,3.7754 v 5.32968 h 5.754244 l 4.06903,3.77538 4.070028,-3.77538 h 5.754244 v -5.32968 l 4.083979,-3.76172 -4.083979,-3.77637 V 95.190412 Z M 122.12582,198.41074 h -5.75424 l -4.07003,-3.77539 -4.07002,3.77539 h -5.75425 v 5.32968 l -4.070024,3.77538 -4.630104,-4.28502 h -4.645054 v -4.29771 l -4.632096,-4.29772 -4.632098,4.29772 v 4.29771 h -4.6311 l -4.6311,4.28502 4.6311,4.29772 h 4.6311 v 4.28503 l 4.632098,4.29772 4.6311,-4.29772 v -4.28503 h 4.6311 l 4.644056,-4.29772 4.070022,3.7754 v 5.32967 h 5.75425 l 4.07003,3.7754 4.07002,-3.7754 h 5.75425 v -5.32967 l 4.08298,-3.7754 4.6311,4.29772 h 4.6321 v 4.28503 l 4.6311,4.29772 4.6311,-4.29772 v -4.28503 h 4.6311 l 4.6311,-4.29772 4.08298,3.7754 v 5.32967 h 5.75524 l 4.06903,3.7754 v -25.76092 l -4.06903,3.77539 h -5.75524 v 5.32968 l -4.08298,3.77538 -4.6311,-4.28502 h -4.6311 v -4.29771 l -4.6311,-4.29772 -4.6311,4.29772 v 4.29771 h -4.6321 l -4.6311,4.28502 -4.08298,-3.77538 v -5.32968 z m -55.603098,0 h -5.754245 l -4.070027,-3.77539 -4.06903,3.77539 h -5.75524 v 5.32968 l -4.069031,3.77538 4.070027,3.7754 v 5.32967 h 5.754244 l 4.06903,3.7754 4.070027,-3.7754 h 5.754245 v -5.32967 l 4.083978,-3.7754 -4.083978,-3.77538 z m -61.3573477,0 H 10.93357 v 5.32968 l 4.070028,3.77538 -4.070028,3.7754 v 5.32967 H 5.1653743 l -4.0690302,3.7754 V 194.63535 Z M 33.528,211.81352 h 4.646048 l 4.631101,-4.29772 -4.631101,-4.28502 h -4.645052 v -4.29771 l -4.632097,-4.29772 -4.630104,4.29772 v 4.29771 h -4.632097 l -4.6311,4.28502 4.6311,4.29772 h 4.632097 v 4.28503 l 4.630104,4.29772 4.632097,-4.29772 v -4.28503 z M 10.934568,61.89142 v -5.328698 l 4.070026,-3.776364 -4.070026,-3.77539 V 43.681294 H 5.1653743 L 1.0963441,39.905904 V 65.667786 L 5.1653743,61.89142 H 10.93357 Z m 78.198528,-4.82004 h 4.6311 l 4.644056,-4.285022 4.070028,3.776364 v 5.328698 h 5.75424 l 4.07003,3.776366 4.07003,-3.776366 h 5.75424 v -5.328698 l 4.08298,-3.776364 4.6311,4.285022 h 4.6321 v 4.297715 l 4.6311,4.298691 4.6311,-4.298691 V 57.07138 h 4.6311 l 4.6311,-4.285022 4.08298,3.776364 v 5.328698 h 5.75524 l 4.06904,3.776366 V 39.905904 l -4.06904,3.77539 h -5.75524 v 5.329674 l -4.08298,3.77539 -4.6311,-4.297716 h -4.6311 v -4.285023 l -4.6311,-4.297715 -4.6311,4.297715 v 4.285023 h -4.6321 l -4.6311,4.297716 -4.08298,-3.77539 v -5.329674 h -5.75424 l -4.07003,-3.77539 -4.07003,3.77539 h -5.75424 v 5.329674 l -4.069032,3.77539 -4.6311,-4.297716 h -4.645052 v -4.285023 l -4.633094,-4.297715 -4.632098,4.297715 v 4.285023 h -4.6311 l -4.6311,4.297716 4.6311,4.285022 h 4.6311 v 4.297715 l 4.632098,4.298691 4.6311,-4.298691 V 57.07138 Z M 60.768477,43.681294 h 5.754245 v 5.329674 l 4.083978,3.77539 -4.083978,3.776364 V 61.89142 H 60.768477 L 56.69845,65.667786 52.62942,61.89142 h -5.75524 v -5.328698 l -4.069031,-3.776364 4.070027,-3.77539 v -5.329674 h 5.754244 l 4.06903,-3.77539 z m 0.562071,-12.358127 h 4.6311 L 70.605704,27.038144 65.9756,22.74043 h -4.64605 v -4.285024 l -4.6311,-4.297714 -4.6311,4.297714 v 4.285024 h -4.630104 l -4.6311,4.297714 4.6311,4.285023 h 4.6311 v 4.297714 l 4.6311,4.285023 4.632098,-4.285023 V 31.323167 Z M 32.966926,17.933081 h 5.754244 v 5.329673 l 4.083979,3.77539 -4.083979,3.762697 v 5.342367 h -5.754244 l -4.070027,3.762696 -4.069031,-3.762696 H 19.07462 v -5.342367 l -4.070026,-3.776366 4.070026,-3.761721 v -5.329673 h 5.754246 l 4.06903,-3.775389 4.070026,3.775389 z m 61.358344,0 h -5.755242 l -4.06903,-3.775389 -4.070026,3.775389 H 74.67573 v 5.329673 l -4.06903,3.761721 4.06903,3.776366 v 5.342367 h 5.755242 l 4.070026,3.762696 4.06903,-3.762696 h 5.755242 v -5.342367 l 4.082982,-3.762697 4.631098,4.285023 h 4.6311 v 4.297714 l 4.6311,4.285023 4.6311,-4.285023 v -4.297714 h 4.6321 l 4.64406,-4.285023 -4.64406,-4.297714 h -4.6321 v -4.285024 l -4.6311,-4.297714 -4.6311,4.297714 v 4.285024 h -4.6311 l -4.631098,4.297714 -4.082982,-3.77539 z M 10.932574,5.052628 15.002601,1.2762624 H 1.0963441 V 14.157692 L 5.1653743,10.381325 H 10.93357 V 5.052628 Z m 87.475678,-3.7753893 -4.6311,4.2977149 h -4.645054 v 4.2840465 l -4.632096,4.2986919 -4.6311,-4.2986919 V 5.5749536 H 75.2378 L 70.607697,1.2762624 H 126.2098 l -4.08298,3.7763656 v 5.328697 h -5.75424 l -4.07003,3.776367 -4.07003,-3.776367 h -5.75424 V 5.052628 Z m 32.431658,4.2977149 -4.6311,-4.2986912 h 41.69485 V 14.157692 l -4.06903,-3.776367 h -5.75524 V 5.052628 l -4.08299,-3.7753893 -4.6311,4.2977149 h -4.6311 V 9.8590001 L 140.1031,14.157692 135.472,9.8590001 V 5.5749536 Z M 66.522722,5.052628 70.6067,1.2762624 H 42.805149 l 4.070027,3.7763656 v 5.328697 h 5.754244 l 4.06903,3.776367 4.070027,-3.776367 h 5.754245 z M 33.528996,254.72818 v -4.28502 l -4.632097,-4.29771 -4.630104,4.29771 v 4.28502 h -4.632097 l -4.6311,4.29772 h 27.801551 l -4.631101,-4.29772 z M 5.1653743,249.92084 H 10.93357 v 5.32967 l 4.070028,3.77539 H 1.0963441 v -12.88045 z m 0.5620702,-12.3591 H 10.3715 l 4.632098,-4.29772 -4.6311,-4.28404 H 5.7274445 v -4.2987 l -4.6311004,-4.28405 v 25.74725 l 4.6311004,-4.28405 z m 83.4036575,12.88142 v 4.28502 h 4.64605 l 4.6311,4.29772 H 70.6067 l 4.6311,-4.29772 h 4.631102 v -4.28502 l 4.632096,-4.29771 4.6311,4.29771 z m 37.077708,8.58274 H 98.408252 l 4.069028,-3.77539 v -5.32967 h 5.75425 l 4.07002,-3.77539 4.07003,3.77539 h 5.75424 v 5.32967 z m 27.78759,0 h -27.78759 l 4.6311,-4.29772 h 4.63209 v -4.28502 l 4.6311,-4.29771 4.6311,4.29771 v 4.28502 h 4.6311 z m 0,0 4.08299,-3.77539 v -5.32967 h 5.75524 l 4.06903,-3.77539 v 12.88045 z m -87.473678,-9.10506 h -5.754245 l -4.070027,-3.77539 -4.06903,3.77539 h -5.75524 v 5.32967 l -4.069031,3.77539 H 70.6067 l -4.083978,-3.77539 z M 32.966926,224.15896 h 5.754244 v 5.34334 l 4.083979,3.76172 -4.083979,3.77636 v 5.34237 h -5.754244 l -4.070027,3.76173 -4.069031,-3.76173 H 19.07462 v -5.34237 l -4.070026,-3.77636 4.070026,-3.76172 v -5.34334 h 5.754246 l 4.06903,-3.76173 4.070026,3.76173 z m 28.362624,13.40278 h 4.632098 l 4.644056,-4.29772 -4.630104,-4.28404 h -4.64605 v -4.2987 l -4.6311,-4.28405 -4.6311,4.28405 v 4.2987 h -4.630104 l -4.6311,4.28404 4.6311,4.29772 h 4.6311 v 4.29869 l 4.6311,4.28405 4.632098,-4.28405 v -4.29869 z m 32.996716,-13.40278 h -5.755241 l -4.069031,-3.76173 -4.070026,3.76173 h -5.755241 v 5.34334 l -4.06903,3.76172 4.06903,3.77636 v 5.34237 h 5.755241 l 4.070026,3.76173 4.069031,-3.76173 h 5.755241 v -5.34237 l 4.082982,-3.77636 4.631102,4.29772 h 4.6311 v 4.29869 l 4.6311,4.28405 4.6311,-4.28405 v -4.29869 h 4.6321 l 4.64405,-4.29772 4.07003,3.77636 v 5.34237 h 5.75425 l 4.07002,3.76173 4.06903,-3.76173 h 5.75524 v -5.34237 l 4.06903,-3.77636 4.64506,4.29772 h 4.6311 v 4.29869 l 4.6311,4.28405 v -25.74725 l -4.6311,4.28405 v 4.2987 h -4.6311 l -4.64506,4.28404 -4.06903,-3.76172 v -5.34334 h -5.75524 l -4.06903,-3.76173 -4.07002,3.76173 h -5.75425 v 5.34334 l -4.07003,3.76172 -4.64405,-4.28404 h -4.6321 v -4.2987 l -4.6311,-4.28405 -4.6311,4.28405 v 4.2987 h -4.6311 l -4.631102,4.28404 -4.082982,-3.76172 z M 163.27356,31.323167 v 4.297714 l 4.6311,4.285023 V 14.157692 l -4.6311,4.297714 v 4.285024 h -4.6311 l -4.64506,4.297714 -4.06903,-3.77539 v -5.329673 h -5.75524 l -4.06903,-3.775389 -4.07002,3.775389 h -5.75425 v 5.329673 l -4.07003,3.761721 4.07003,3.776366 v 5.342367 h 5.75425 l 4.07002,3.762696 4.06903,-3.762696 h 5.75524 v -5.342367 l 4.06903,-3.762697 4.64506,4.285023 z"
       fill="#000000"
       id="path2"
       style="stroke-width:0.986391" />
  </g>
  <defs
     id="defs3">
    <linearGradient
       id="b"
       x1="83.691"
       y1="0"
       x2="83.691"
       y2="258.42"
       gradientUnits="userSpaceOnUse">
      <stop
         stop-color="#3085E8"
         id="stop2" />
      <stop
         offset="1"
         stop-color="#1660B6"
         id="stop3" />
    </linearGradient>
    <clipPath
       id="a">
      <path
         fill="#fff"
         transform="translate(.81 .79)"
         d="M0 0h167.381v258.42H0z"
         id="path3" />
    </clipPath>
  </defs>
</svg>
